<?xml version="1.0" standalone="no"?>
<!DOCTYPE svg PUBLIC "-//W3C//DTD SVG 20010904//EN"
 "http://www.w3.org/TR/2001/REC-SVG-20010904/DTD/svg10.dtd">
<svg version="1.0" xmlns="http://www.w3.org/2000/svg"
 width="360.000000pt" height="504.000000pt" viewBox="0 0 360.000000 504.000000"
 preserveAspectRatio="xMidYMid meet">
<metadata>
Created by potrace 1.11, written by Peter Selinger 2001-2013
</metadata>
<g transform="translate(0.000000,504.000000) scale(0.100000,-0.100000)"
fill="#000000" stroke="none">
<path d="M0 5020 c0 -19 7 -20 160 -20 l160 0 2 -82 c2 -46 3 -137 3 -203 l0
-120 173 -3 172 -2 0 -210 0 -210 -170 0 -170 0 0 -205 c0 -157 -3 -205 -12
-206 -7 -1 -82 -1 -165 1 l-153 2 0 -211 0 -211 73 -1 c39 0 112 -1 162 -2
l90 -2 3 -207 2 -208 -165 0 -165 0 0 -210 0 -210 165 0 165 0 0 -211 0 -211
168 3 167 3 3 -204 c1 -116 -2 -206 -7 -209 -5 -3 -81 -5 -170 -3 l-161 3 0
203 c0 111 -2 205 -4 207 -2 2 -77 3 -165 1 l-161 -3 0 -210 0 -210 165 7 165
7 0 -212 0 -211 -165 0 -165 0 0 -210 0 -210 165 0 165 0 0 -44 0 -44 55 29
c31 16 79 36 108 44 l52 14 -107 0 -108 1 0 210 0 210 170 0 170 0 0 -194 0
-194 -32 -11 c-18 -5 -42 -12 -53 -14 -11 -3 1 -5 27 -6 26 0 49 -5 53 -10 6
-11 -29 -33 -60 -37 -83 -13 -185 -57 -237 -103 l-37 -32 -3 42 -3 43 -98
-100 c-71 -71 -107 -116 -128 -161 -28 -59 -32 -63 -65 -63 l-34 0 0 -132 c0
-132 8 -159 20 -70 8 52 27 132 43 175 8 22 15 27 43 27 29 0 36 5 55 42 25
50 86 128 100 128 5 0 23 15 39 33 l29 32 1 -117 0 -118 -94 0 c-52 0 -97 -4
-100 -8 -11 -19 -67 -251 -73 -305 -4 -43 -9 -57 -19 -53 -8 4 -21 9 -29 12
-11 5 -15 -1 -15 -25 l0 -31 159 0 159 0 7 205 7 205 167 2 166 3 3 196 c2
186 3 197 22 202 14 4 20 0 20 -12 0 -27 9 -30 38 -16 41 20 75 34 97 38 11 3
-24 5 -77 6 -123 1 -130 17 -22 50 56 17 82 20 102 13 15 -5 44 -7 65 -4 32 4
37 1 37 -16 0 -13 -10 -24 -27 -30 l-28 -10 26 -1 c15 -1 29 -7 31 -14 2 -6 2
-101 0 -209 l-4 -198 -137 0 -138 0 -5 -181 c-3 -100 -3 -192 0 -205 4 -24 5
-24 143 -24 l139 0 2 203 3 202 102 3 103 3 0 -206 0 -205 80 0 80 0 0 205 0
205 65 0 65 0 0 -205 0 -205 50 0 50 0 0 205 0 205 -50 0 -50 0 2 208 3 207
50 0 50 0 1 -195 c1 -107 2 -201 3 -208 1 -9 14 -12 44 -10 l42 3 1 190 c0
105 2 197 2 206 2 15 16 17 105 15 56 0 87 -2 69 -4 -25 -3 -32 -8 -30 -20 5
-26 48 -28 55 -3 7 27 39 27 46 1 6 -23 37 -27 37 -5 0 9 -10 20 -22 25 l-23
9 23 0 c19 1 22 6 22 41 0 29 4 40 15 40 10 0 15 10 15 30 0 20 -5 30 -15 30
-13 0 -15 20 -13 137 2 86 7 137 13 136 6 -2 12 -20 14 -40 3 -31 5 -34 11
-18 5 12 9 -38 9 -122 1 -78 -3 -144 -8 -147 -5 -3 -11 -24 -13 -45 -3 -34 0
-42 24 -56 21 -12 28 -24 28 -46 0 -19 -5 -29 -15 -29 -13 0 -15 -25 -15 -165
0 -103 -4 -165 -10 -165 -6 0 -10 -75 -10 -205 0 -130 4 -205 10 -205 6 0 10
75 10 205 0 176 2 205 15 205 13 0 15 -29 15 -205 l0 -205 25 0 25 0 0 205 0
205 25 0 25 0 0 -167 c0 -93 3 -185 6 -205 6 -34 10 -38 36 -38 l28 0 -2 203
-3 202 -32 3 -33 3 0 170 0 169 -25 0 -25 0 0 -170 0 -170 -25 0 -25 0 0 165
0 165 25 6 c16 4 25 13 25 25 0 29 48 26 52 -3 2 -18 11 -24 36 -26 30 -3 33
-1 30 20 -2 18 -9 23 -33 23 -23 1 -31 6 -33 23 -3 19 1 22 27 22 16 0 33 -5
37 -12 4 -6 6 -100 5 -209 l-2 -198 38 -3 c36 -3 38 -5 39 -38 0 -19 1 -110 2
-202 l2 -168 45 0 45 0 2 203 3 202 48 3 47 3 0 210 0 209 -50 0 -50 0 0 -213
0 -213 -47 6 -48 5 0 205 0 205 45 1 45 0 3 54 c4 60 -6 72 -53 63 -39 -8 -45
-18 -45 -74 l0 -46 -37 6 c-38 6 -38 7 -41 58 l-3 52 43 3 c38 3 43 6 46 30 3
24 25 41 48 37 44 -8 45 -4 42 118 l-3 118 -49 0 -49 0 6 -123 c7 -123 7 -123
-16 -122 -57 5 -66 1 -69 -32 -2 -21 -9 -34 -18 -34 -8 -1 -21 -2 -27 -3 -9
-1 -13 -18 -13 -51 0 -47 -2 -50 -25 -50 -16 0 -25 -6 -25 -15 0 -22 -37 -18
-61 6 -15 15 -19 30 -17 60 4 54 22 50 26 -6 3 -41 6 -45 28 -45 24 0 25 3 22
48 -3 42 -5 47 -25 44 -20 -3 -23 1 -23 27 0 23 5 30 22 33 22 3 23 7 26 130
2 121 2 127 -19 133 -22 7 -22 4 -3 113 4 17 10 32 15 32 5 0 9 11 9 25 0 20
-5 25 -25 25 -25 0 -25 1 -25 88 0 53 5 93 12 100 8 8 8 15 -1 25 -9 12 -7 14
14 14 l25 1 0 -113 c0 -91 3 -114 15 -119 20 -7 19 -33 0 -44 -20 -11 -18
-146 3 -148 6 -1 17 -2 22 -3 6 -1 10 -50 10 -126 l0 -125 -25 0 c-21 0 -25
-5 -25 -30 0 -25 4 -30 25 -30 21 0 25 5 25 29 0 25 5 31 30 36 l30 7 0 118 0
119 38 3 37 3 3 83 3 83 37 -6 c63 -11 62 -9 62 -89 l0 -74 50 0 50 -1 0 210
0 209 64 0 c59 0 65 2 68 22 2 13 2 -29 0 -92 -3 -63 -8 -116 -13 -118 -12 -5
-11 -32 1 -32 6 0 10 -40 10 -101 l0 -100 -62 2 -63 3 -3 -114 c-2 -78 1 -116
9 -121 6 -3 36 -5 65 -2 53 5 54 4 54 -21 0 -26 1 -26 80 -26 l80 0 0 30 c0
23 5 30 19 30 19 0 31 44 45 173 l6 47 -34 0 c-19 0 -37 -6 -39 -12 -4 -10 -6
-10 -6 0 -1 6 -12 12 -25 12 -19 0 -26 7 -31 32 -4 18 -16 63 -26 99 -17 55
-23 65 -42 65 -12 -1 -23 6 -25 16 -4 20 50 38 116 38 38 0 42 -2 42 -25 0
-21 -5 -25 -29 -25 -17 0 -32 -3 -35 -8 -4 -6 33 -134 53 -182 3 -8 7 31 9 88
l3 102 29 0 c26 0 30 -4 31 -27 5 -182 3 -168 32 -171 26 -3 27 -6 27 -55 -1
-49 -10 -103 -25 -154 -6 -18 -3 -23 12 -23 40 0 73 -24 73 -53 0 -28 0 -28
-52 -21 -29 4 -58 11 -65 16 -7 5 -22 8 -35 6 -21 -3 -23 -9 -28 -68 l-5 -65
-78 2 -78 1 1 -196 c1 -108 1 -202 1 -209 -1 -8 -24 -13 -63 -15 l-63 -3 -3
-202 -2 -203 71 0 71 0 -2 193 c-1 105 -2 198 -1 205 1 9 14 11 48 7 26 -3 60
-3 75 0 l28 7 0 206 0 207 38 3 c20 1 61 0 89 -3 l53 -6 2 -207 3 -207 100 -3
c54 -2 102 -5 105 -8 3 -3 6 -93 8 -200 l4 -194 129 0 129 0 2 201 3 202 98
-2 97 -2 0 75 c0 41 -5 88 -12 103 -20 45 -75 108 -134 153 -38 30 -54 49 -54
66 0 22 -4 24 -47 24 l-48 0 25 -20 c14 -11 35 -23 48 -26 22 -6 22 -8 22
-189 l0 -183 -132 -1 -133 -1 -3 210 -3 210 88 1 88 1 -45 20 c-25 12 -64 23
-87 26 -40 4 -43 7 -43 36 0 28 -5 33 -40 44 -22 6 -46 12 -54 12 -7 0 -37 7
-65 17 l-51 16 0 124 0 123 105 0 105 0 0 -150 0 -150 28 -6 c54 -11 167 -49
170 -56 2 -5 9 -8 15 -8 6 0 21 -10 34 -22 l23 -21 0 206 0 207 100 0 100 0 0
210 0 210 -100 0 -100 0 2 208 3 207 98 -3 97 -3 0 213 0 213 -100 3 -100 3 0
-210 0 -211 -135 0 -135 0 0 210 0 209 123 -1 c67 0 128 0 135 1 9 1 12 49 12
206 l0 205 100 0 100 0 0 210 0 210 -100 0 -100 0 -2 -207 -3 -208 -132 -1
-133 -1 0 208 0 208 133 3 132 3 3 208 2 207 100 0 100 0 0 210 0 210 -100 0
-100 0 -1 178 c-1 97 -2 191 -3 207 l-1 30 -132 3 -133 3 0 204 0 205 136 0
137 0 -5 -205 -5 -205 103 0 104 0 0 225 0 225 -1800 0 c-1793 0 -1800 0
-1800 -20z m950 -225 l0 -205 105 0 105 0 0 205 0 205 80 0 80 0 0 -205 0
-205 65 0 65 0 0 205 0 205 53 0 52 0 0 -202 0 -203 45 0 45 0 -4 203 -3 202
46 0 46 0 0 -204 c0 -186 2 -204 18 -208 41 -11 42 -5 42 208 l0 204 30 0 30
0 0 -205 c0 -198 1 -205 20 -205 12 0 20 -7 20 -17 0 -10 1 -103 2 -208 1
-188 1 -190 -20 -193 -22 -3 -22 -7 -22 -168 0 -157 1 -164 20 -164 19 0 20 7
21 138 1 75 2 142 4 147 1 6 3 18 3 28 1 9 9 17 17 17 13 0 15 29 15 205 0
192 -1 205 -19 215 -19 9 -20 23 -21 210 0 194 0 200 20 200 19 0 20 -6 20
-205 0 -130 4 -205 10 -205 6 0 10 -77 10 -210 0 -133 -4 -210 -10 -210 -6 0
-10 -62 -10 -165 0 -160 -1 -165 -21 -165 -15 0 -20 -5 -17 -22 4 -30 38 -37
38 -9 0 12 5 21 10 21 6 0 10 62 10 165 0 138 3 167 15 171 13 5 15 39 15 215
0 179 -2 209 -15 209 -13 0 -15 29 -15 205 0 176 2 205 15 205 13 0 15 -29 15
-205 0 -176 2 -205 15 -205 13 0 15 29 15 205 l0 205 25 0 25 0 0 -205 0 -205
25 0 25 0 0 205 0 205 28 0 29 0 7 -197 c4 -108 3 -200 -1 -204 -4 -4 -19 -9
-33 -11 l-25 -3 -3 -207 -2 -207 32 -3 33 -3 0 -140 c1 -206 -1 -195 40 -195
l35 0 0 170 0 170 45 0 45 0 0 -180 c0 -136 3 -182 13 -184 6 -3 31 -7 55 -10
l42 -6 0 190 0 190 65 0 65 0 2 208 3 207 78 3 77 3 0 204 0 205 90 0 90 0 0
-205 0 -205 105 0 105 0 0 -210 0 -209 133 -3 132 -3 3 -207 2 -208 -135 0
-135 0 0 -210 0 -210 -105 0 -105 0 0 -205 c0 -215 1 -209 -45 -207 -11 1 -30
-1 -41 -3 -20 -5 -22 -13 -30 -182 -5 -98 -8 -190 -5 -205 3 -27 5 -28 62 -28
l59 0 0 210 0 210 103 -3 102 -2 3 -207 2 -208 -105 0 -105 0 0 -210 0 -210
105 0 105 0 0 -210 0 -210 135 0 135 0 0 -210 0 -210 -135 0 -135 0 0 210 0
210 -105 0 -105 0 0 -210 0 -210 -30 0 -31 0 6 68 c3 37 8 79 10 94 2 15 0 30
-6 34 -7 4 -8 43 -3 115 6 107 6 109 -15 109 -25 0 -33 -17 -36 -74 -4 -102
-2 -96 -40 -96 l-35 0 0 85 0 85 -49 0 c-48 0 -48 0 -72 49 -13 27 -27 47 -31
45 -4 -3 -8 11 -8 31 0 23 -4 34 -10 30 -6 -4 -18 -1 -27 7 -12 10 -17 10 -20
1 -8 -23 -48 -76 -60 -81 -8 -2 -13 6 -13 20 0 18 -2 20 -10 8 -6 -9 -6 -18 0
-24 6 -6 10 -27 10 -48 0 -35 -2 -38 -29 -38 -24 0 -28 3 -24 20 6 23 -15 28
-35 8 -9 -9 -12 30 -13 175 -1 103 -2 193 -3 200 -1 8 17 13 52 15 41 2 52 7
52 20 0 15 2 15 10 2 6 -10 6 -16 0 -18 -6 -2 -10 -65 -10 -150 l0 -147 35 53
36 53 -26 57 c-19 43 -24 64 -17 81 8 22 10 21 35 -27 15 -29 27 -58 27 -66 0
-7 9 -16 20 -19 19 -5 20 0 20 79 l0 84 -51 0 c-40 0 -49 3 -42 13 7 8 3 28
-13 62 l-24 50 0 -40 c0 -30 -3 -36 -10 -25 -13 20 -13 70 0 70 6 0 10 34 10
81 0 68 -2 80 -14 70 -19 -16 -44 14 -30 37 5 9 9 35 9 57 0 38 -2 40 -32 43
-32 3 -33 3 -33 -38 l0 -42 -20 23 -19 24 0 -30 c-1 -16 8 -41 19 -55 l21 -25
-7 28 c-7 32 11 38 21 6 4 -11 20 -36 37 -55 26 -30 29 -38 20 -62 -15 -41
-38 -137 -41 -176 -1 -4 -8 -6 -16 -3 -8 4 -17 2 -20 -3 -4 -6 -26 -10 -51
-10 l-44 0 0 -199 c0 -135 4 -202 11 -207 8 -4 7 -9 -2 -15 -12 -7 -11 -11 3
-25 17 -18 38 -12 38 12 0 8 9 14 20 14 19 0 19 -2 -5 -40 -14 -23 -23 -45
-20 -50 11 -17 32 -11 43 12 9 19 11 8 11 -58 l1 -81 41 -6 c22 -3 43 -8 46
-10 13 -13 -12 -27 -48 -27 -32 0 -39 4 -39 19 0 38 -93 38 -103 0 -3 -13 -11
-17 -21 -13 -23 9 -20 34 4 34 19 0 20 7 20 100 0 88 -2 100 -19 110 -11 5
-28 7 -38 4 -15 -5 -15 -4 -3 5 8 5 25 8 37 4 14 -3 23 -1 23 6 0 6 -17 11
-37 11 l-38 0 -1 -211 c-1 -126 -6 -215 -12 -221 -5 -5 -18 -8 -28 -6 -18 3
-19 19 -24 213 -5 202 -6 210 -25 210 -19 0 -20 8 -23 208 l-2 207 -25 0 -25
0 0 -205 c0 -188 -1 -205 -17 -206 -17 -1 -17 -2 0 -6 21 -5 23 -43 2 -43 -9
0 -15 9 -15 23 -1 12 0 115 0 229 0 139 -3 207 -10 210 -7 2 -11 70 -11 206 0
167 -3 204 -15 209 -8 3 -14 18 -14 35 0 25 -2 28 -14 19 -12 -10 -15 -7 -18
16 l-3 28 -22 -35 -23 -35 0 140 1 140 24 -28 c22 -25 25 -38 25 -104 0 -66 2
-74 15 -63 12 10 15 10 15 -4 0 -9 7 -16 15 -16 11 0 15 -12 15 -45 0 -25 5
-45 10 -45 6 0 10 -77 10 -210 0 -180 2 -210 15 -210 13 0 15 30 15 210 0 180
-2 210 -15 210 -13 0 -15 21 -15 132 0 118 2 130 15 112 14 -18 14 -18 15 4 0
12 -7 25 -15 28 -11 5 -15 23 -15 70 0 48 4 66 15 70 13 5 15 37 14 208 0 139
-3 194 -10 177 -11 -29 -14 -26 -23 18 -5 28 -4 32 8 21 8 -6 27 -10 43 -8 26
3 28 7 33 58 3 38 8 51 14 41 8 -12 11 -11 23 4 11 17 13 11 13 -43 0 -59 -1
-62 -25 -62 l-25 0 0 -205 0 -205 25 0 25 0 0 205 c0 169 2 205 14 205 9 0 12
7 9 18 -2 10 3 24 11 31 13 11 17 10 25 -10 7 -17 10 10 10 96 l1 120 -18 -30
c-10 -16 -22 -42 -25 -57 -4 -16 -12 -28 -17 -28 -13 0 -13 73 1 87 5 5 21 37
34 69 l25 59 1 -45 c1 -32 3 -37 6 -17 3 16 11 36 19 45 7 9 20 26 28 37 14
18 15 2 16 -155 0 -96 3 -185 6 -197 5 -19 13 -23 49 -23 l44 0 -4 198 c-1
108 -3 203 -4 211 -1 9 -14 12 -46 9 -38 -3 -45 0 -45 14 0 11 -8 19 -20 19
-11 1 -26 2 -32 3 -7 0 -14 11 -16 23 -6 39 -72 42 -72 2 0 -14 -7 -19 -25
-19 -18 0 -25 -5 -25 -20 0 -30 47 -28 52 3 2 18 8 21 33 19 36 -5 39 -7 32
-27 -4 -9 -19 -15 -37 -15 l-30 0 0 -87 0 -88 -22 35 -23 35 -3 -29 -4 -28
-24 23 -24 22 0 -111 c0 -92 2 -110 14 -106 23 9 31 -35 9 -51 -16 -12 -18
-11 -21 6 -3 16 -6 18 -18 8 -12 -10 -14 11 -14 147 1 142 2 157 15 140 14
-19 15 -18 15 15 l0 34 25 -30 24 -30 1 48 c0 44 -2 47 -25 47 -16 0 -25 -6
-25 -16 0 -14 -3 -14 -15 -4 -13 10 -15 9 -15 -11 l-1 -24 -12 23 c-11 19 -13
-11 -13 -183 1 -112 5 -205 9 -205 5 0 5 -5 2 -10 -4 -6 -12 -4 -21 5 -13 13
-15 50 -12 237 2 122 2 214 0 205 -5 -25 -27 -21 -40 8 -6 14 -18 25 -27 25
-8 0 -17 -11 -21 -25 -4 -18 -13 -25 -30 -25 l-24 0 0 -211 c0 -165 3 -209 13
-203 6 4 8 3 4 -2 -4 -4 -24 -7 -43 -5 l-34 3 0 -108 c0 -96 2 -106 14 -88 14
18 15 18 21 1 5 -11 1 -25 -11 -38 -17 -19 -19 -19 -24 -3 -5 14 -14 8 -43
-31 l-37 -48 0 156 0 156 38 3 37 3 3 208 2 207 -39 0 c-39 0 -53 12 -43 38 2
7 21 12 44 12 35 0 39 2 36 23 -2 18 -10 23 -40 25 -35 3 -38 1 -38 -22 0 -19
-5 -26 -20 -26 -11 0 -20 -4 -20 -9 0 -5 -10 -11 -21 -14 -17 -5 -24 1 -32 24
-13 32 -16 33 -69 18 -27 -7 -38 -16 -38 -29 0 -11 -11 -22 -27 -28 l-28 -10
28 -1 27 -1 0 -210 0 -210 50 0 50 0 1 -37 c1 -21 3 -67 4 -103 l3 -65 -44 48
c-26 29 -44 59 -44 73 0 33 -18 30 -23 -3 -2 -16 -2 -2 0 30 l5 57 -50 0 c-40
0 -53 4 -65 23 -13 18 -16 19 -16 5 -1 -27 -18 -22 -43 12 -28 38 -39 38 -58
-3 l-15 -32 -125 -2 c-69 -1 -135 -2 -147 -3 -32 0 -55 -88 -59 -220 -1 -58
-5 -124 -9 -147 -6 -39 -4 -43 14 -43 12 0 21 1 22 3 0 1 4 74 8 162 7 122 13
170 27 200 l19 40 3 -202 2 -203 39 0 c36 0 40 3 49 33 6 17 13 50 17 72 4 22
13 56 22 75 23 55 32 18 18 -76 -13 -92 -19 -104 -45 -104 -13 0 -22 -9 -25
-27 -4 -16 -10 -44 -14 -64 -5 -24 -4 -41 4 -52 20 -28 32 -20 39 26 19 125
14 116 60 119 l41 3 -3 130 c-3 104 -1 136 12 160 9 17 16 39 16 50 1 61 7 65
86 64 66 -1 75 -4 89 -26 24 -35 14 -48 -18 -23 l-27 21 0 -190 0 -191 65 0
65 0 0 141 0 142 42 -54 c64 -80 68 -84 68 -60 0 27 16 27 23 0 3 -12 0 -22
-9 -26 -17 -6 -20 -113 -4 -129 8 -8 -8 -12 -52 -13 -34 -1 -64 -3 -65 -5 -2
-2 -3 -38 -1 -81 l3 -77 27 54 c15 29 39 67 52 83 22 26 25 28 26 10 1 -18 1
-19 11 -2 5 9 21 17 33 17 21 0 24 5 24 35 0 19 -6 39 -14 46 -15 13 -19 49
-5 49 16 0 41 -49 41 -80 0 -16 5 -30 10 -30 6 0 10 -4 10 -10 0 -5 -6 -10
-12 -10 -10 0 -12 -47 -10 -210 l3 -210 29 0 c26 0 29 4 34 43 11 86 13 91 15
37 1 -30 3 -71 5 -90 2 -19 1 -25 -1 -12 -2 12 -8 22 -13 22 -13 0 -20 -28
-20 -78 0 -32 -7 -59 -23 -82 l-22 -35 -3 98 -3 97 -44 0 -45 0 0 -152 c0 -98
4 -148 10 -138 15 24 24 2 10 -27 -10 -24 -13 -25 -19 -11 -5 15 -10 13 -34
-17 -15 -18 -27 -39 -27 -44 0 -21 26 -11 42 17 l17 27 1 -37 0 -38 45 0 45 0
1 -122 c1 -68 4 -113 6 -100 2 12 11 22 18 22 16 0 29 -35 20 -50 -4 -6 -8
-27 -10 -48 -2 -21 -6 -54 -10 -75 -5 -24 -3 -37 4 -38 49 -6 46 -19 49 204 2
195 1 208 -15 205 -13 -2 -18 -13 -19 -38 -2 -83 -3 -86 -19 -70 -10 11 -16
50 -21 140 -6 117 -5 127 15 160 12 19 27 47 33 63 7 15 16 27 20 27 4 0 8
-63 8 -140 l0 -140 30 0 30 0 0 210 c0 205 0 210 -21 210 -19 0 -20 5 -17 108
2 81 0 106 -9 104 -10 -1 -13 24 -13 101 0 99 -1 104 -30 137 -16 19 -29 39
-30 44 0 4 13 24 30 43 l30 34 0 -76 c0 -41 4 -75 9 -75 9 0 13 15 27 93 3 20
10 37 16 37 5 0 7 44 5 108 -3 74 -2 87 2 42 7 -59 9 -65 16 -35 2 6 3 43 4
83 1 65 3 75 21 79 19 5 20 13 19 187 -1 99 -3 173 -6 164 -5 -20 -23 -25 -23
-6 0 6 5 27 12 45 9 24 18 33 34 33 21 0 22 -5 29 -112 4 -62 5 -156 3 -208
-4 -89 -6 -95 -26 -98 -22 -3 -22 -5 -22 -207 l0 -204 -27 -3 -28 -3 -3 -185
c-1 -102 0 -195 3 -207 5 -20 12 -23 51 -23 29 0 43 -4 39 -11 -4 -6 -13 -8
-21 -5 -12 4 -14 -28 -14 -200 l0 -205 23 3 c22 3 22 4 24 193 1 105 3 198 3
208 0 9 7 17 15 17 13 0 15 -30 15 -210 0 -180 -2 -210 -15 -210 -13 0 -15
-28 -16 -187 -2 -212 -2 -194 3 -211 5 -20 -26 -37 -48 -27 -11 5 -27 9 -36 9
-9 1 -20 4 -24 8 -11 11 44 10 65 -1 10 -6 23 -6 32 0 10 6 7 9 -13 9 l-28 0
0 200 0 200 -30 0 -30 0 0 -200 c0 -184 -1 -200 -17 -200 -12 0 -9 -5 11 -15
15 -8 37 -15 47 -15 18 0 19 -9 19 -116 0 -105 2 -115 18 -112 15 3 17 18 20
112 3 103 4 108 23 103 14 -4 20 -1 18 11 -1 9 -1 111 0 225 1 162 4 208 14
205 19 -7 21 -447 1 -455 -11 -4 -14 -26 -14 -95 0 -80 -2 -90 -19 -95 -11 -3
-21 -13 -24 -24 -3 -13 -11 -17 -21 -13 -14 5 -16 -5 -16 -73 0 -72 2 -79 20
-80 18 -2 20 4 20 78 0 72 2 79 20 79 13 0 20 7 20 20 0 11 7 20 15 20 12 0
15 17 15 96 0 61 4 93 10 89 6 -3 10 -46 10 -96 0 -72 3 -89 15 -89 8 0 15 -9
15 -20 0 -11 -7 -20 -15 -20 -8 0 -15 9 -15 20 0 11 -4 20 -10 20 -5 0 -10 -6
-10 -14 0 -8 5 -18 10 -21 6 -3 10 -25 10 -48 1 -41 1 -42 15 -17 l14 25 1
-36 c0 -20 2 -65 4 -100 3 -42 2 -51 -2 -25 -4 22 -13 41 -21 44 -9 3 -11 0
-6 -7 5 -9 1 -9 -14 1 -19 12 -21 20 -17 91 3 56 1 77 -7 74 -7 -2 -14 -36
-17 -83 -4 -61 -8 -79 -20 -79 -13 0 -15 -24 -18 -142 -2 -138 -2 -143 18
-143 28 0 28 -46 0 -55 -15 -5 -20 -15 -20 -41 0 -27 -4 -34 -20 -34 -16 0
-20 7 -20 35 0 19 3 34 8 34 24 -4 32 4 32 31 0 23 -5 30 -19 30 -15 0 -21 -8
-23 -32 -2 -28 -8 -34 -31 -36 -27 -3 -28 -1 -25 30 2 28 7 34 31 36 l28 3 -3
140 c-2 83 -7 139 -13 140 -5 1 -18 5 -27 10 -16 9 -18 29 -18 203 0 175 -2
194 -17 200 -10 3 -24 9 -30 12 -10 4 -13 -22 -13 -115 0 -120 0 -121 25 -127
14 -3 25 -10 25 -15 0 -5 -11 -11 -25 -15 -24 -6 -25 -10 -25 -79 l0 -72 30 3
30 4 0 -150 0 -149 -27 3 -28 3 -5 144 -5 144 -37 3 c-32 3 -38 7 -38 26 0 15
-7 26 -20 29 -17 4 -19 11 -14 51 7 46 7 46 -24 46 -29 0 -30 -2 -34 -48 -6
-91 -2 -101 45 -104 l42 -3 2 -130 c1 -71 2 -136 2 -142 1 -8 16 -13 41 -13
39 0 40 -1 40 -36 0 -33 2 -35 28 -32 24 3 27 -1 30 -30 3 -30 1 -32 -27 -32
-28 0 -31 3 -31 30 0 28 -2 30 -40 30 -39 0 -40 1 -40 35 l0 35 -50 0 c-36 0
-50 -4 -50 -14 0 -29 13 -46 34 -46 49 0 67 -12 64 -39 -3 -23 -8 -26 -45 -29
-42 -3 -43 -2 -43 26 0 35 -10 40 -67 34 -41 -4 -43 -6 -43 -36 l0 -31 -65 3
-65 4 0 -211 0 -211 -80 0 -80 0 0 210 0 210 -105 0 c-58 0 -105 4 -105 8 0 9
88 32 124 32 13 0 37 5 54 11 25 8 31 17 34 42 3 30 5 32 38 28 19 -3 53 -5
75 -5 l40 -1 3 153 3 152 -81 0 -80 0 0 59 0 60 -63 0 -64 0 2 -42 c3 -80 -1
-76 68 -79 34 -2 61 -6 60 -10 -2 -5 -3 -71 -3 -148 l0 -140 -30 0 c-32 0 -37
9 -18 28 8 8 5 19 -15 45 -18 24 -31 61 -44 130 -16 89 -19 97 -40 97 -27 0
-27 -3 -8 -111 19 -99 30 -132 56 -155 29 -26 24 -33 -31 -40 -40 -5 -50 -10
-50 -25 0 -11 -6 -19 -12 -19 -10 0 -13 41 -13 172 l0 173 -142 3 -143 3 0
208 0 209 28 0 c15 -1 88 0 162 2 l135 2 -4 150 c-3 137 -2 150 13 145 12 -5
21 3 33 31 38 89 34 86 101 85 19 0 22 5 22 37 0 21 3 53 6 71 6 31 5 33 -8
15 -22 -28 -32 -4 -17 39 15 40 26 45 31 13 2 -15 15 3 46 64 23 47 42 90 42
97 0 28 -22 5 -56 -59 -21 -38 -39 -68 -40 -67 -1 1 0 48 3 105 l6 102 53 0
c45 0 52 -2 47 -18 -2 -10 3 -24 11 -31 13 -11 17 -10 25 10 7 16 9 -41 8
-176 l-2 -200 -72 2 c-40 2 -73 0 -73 -5 -1 -4 -2 -84 -3 -177 -2 -94 -6 -176
-10 -183 -5 -6 -16 -12 -26 -12 -10 0 -26 -9 -36 -20 -18 -20 -17 -20 9 -20
l28 0 -32 -40 c-31 -39 -70 -54 -70 -26 0 7 9 25 21 40 l20 26 -35 0 c-36 0
-36 0 -36 -44 0 -24 7 -57 15 -72 9 -18 15 -57 15 -101 0 -67 9 -89 25 -63 3
6 28 10 56 10 37 0 49 -4 49 -15 0 -10 10 -15 29 -15 17 0 33 -5 36 -10 9 -14
62 -13 71 2 11 18 -20 34 -72 37 -26 1 -51 4 -56 7 -4 3 -8 63 -8 134 0 94 -3
130 -12 133 -7 2 -9 8 -5 13 4 5 12 2 16 -5 7 -10 31 -13 102 -9 52 2 86 2 77
0 -16 -3 -18 -21 -18 -213 l0 -209 65 0 65 0 0 230 -1 230 -53 0 c-28 0 -57
-5 -64 -12 -9 -9 -12 32 -12 187 l0 200 65 -2 65 -2 0 210 0 209 -61 0 c-67 0
-67 1 -34 75 7 17 17 42 20 58 11 43 -13 33 -35 -15 l-19 -43 0 173 -1 172
-75 0 c-71 0 -75 -1 -76 -22 0 -13 0 -102 0 -198 0 -97 -3 -181 -7 -187 -4 -6
-16 -11 -27 -11 -11 1 -46 0 -77 -1 l-57 -1 -7 -37 c-4 -21 -8 -56 -8 -78 -1
-22 -5 -41 -11 -42 -5 -2 -12 -29 -15 -60 l-5 -58 -11 68 c-8 55 -8 67 3 63
10 -4 13 11 12 67 -1 54 -3 65 -9 42 -4 -16 -8 -46 -9 -65 -1 -27 -4 -31 -11
-20 -5 8 -10 29 -10 45 0 50 -11 75 -31 75 -24 0 -24 -10 5 -166 13 -71 27
-155 31 -186 6 -52 4 -58 -12 -59 -10 0 -69 -1 -131 -2 l-112 -2 0 208 0 207
-170 0 -170 0 0 210 0 210 170 0 170 0 -2 206 -3 205 -165 3 -165 3 -3 206
c-2 190 -1 206 15 209 10 3 87 2 171 0 l152 -4 0 211 0 211 140 0 140 0 0 210
0 210 -139 0 -139 0 -4 183 c-2 100 -1 192 1 205 3 22 6 22 142 22 l139 0 0
-205z m1392 123 c1 -46 2 -137 2 -203 l1 -120 48 -5 c26 -4 50 -4 52 -1 3 2 5
96 5 208 l0 203 65 0 65 0 0 -205 0 -205 -65 0 -65 0 0 -209 c0 -148 -3 -210
-11 -213 -7 -2 -30 -1 -52 2 l-41 5 -1 190 c-2 249 3 225 -50 225 l-45 0 -2
-212 -3 -213 -30 3 c-16 2 -31 5 -31 5 -1 1 -3 94 -5 207 l-4 205 38 3 37 3 0
205 0 204 45 0 45 0 2 -82z m-694 -1375 l-3 -208 -41 -3 c-33 -2 -42 1 -46 15
-3 13 -2 343 2 396 0 4 20 7 45 7 l45 0 -2 -207z m282 -240 c0 -19 3 -24 9
-15 6 10 10 6 14 -15 3 -16 0 -37 -9 -50 -21 -33 -20 -303 0 -303 12 0 15 25
13 153 -1 102 2 159 10 172 10 16 12 -14 13 -152 0 -128 -3 -172 -12 -175 -10
-4 -12 -40 -10 -146 3 -124 2 -142 -12 -142 -13 0 -16 12 -16 55 0 40 -4 57
-15 61 -8 4 -15 17 -15 31 0 22 2 24 15 13 13 -11 15 -3 15 59 0 55 -3 71 -15
71 -10 0 -15 -15 -17 -57 l-3 -58 -20 23 -20 23 -5 -23 c-5 -21 -7 -20 -29 15
-26 42 -23 54 8 37 19 -9 21 -8 21 15 0 20 5 25 25 25 l25 0 0 205 c0 176 2
205 15 205 10 0 15 -10 15 -27z m757 -2076 c4 -6 12 -34 19 -62 6 -27 16 -49
23 -47 7 1 11 -16 11 -48 l0 -50 -80 0 -80 0 0 109 c0 68 4 111 11 113 20 7
89 -4 96 -15z m308 -327 c6 -5 38 -14 73 -20 55 -11 62 -15 62 -36 0 -24 -1
-24 -105 -24 l-105 0 0 51 0 51 33 -7 c17 -4 37 -11 42 -15z"/>
<path d="M1160 4380 l0 -210 -105 0 -106 0 1 -210 1 -210 100 0 c91 0 99 -2
99 -19 0 -11 -8 -22 -18 -25 -34 -11 -93 -83 -132 -162 l-39 -79 -2 115 c-2
63 -3 122 -5 130 -1 8 -2 21 -3 28 -1 9 -36 12 -141 12 l-140 0 0 -210 0 -210
120 0 119 0 17 32 c9 18 21 44 25 58 8 24 8 24 8 -5 -1 -16 0 -37 0 -45 3 -22
38 47 57 110 9 30 26 68 36 83 l20 28 49 -53 c33 -36 48 -48 49 -35 0 21 16
22 24 1 7 -18 -1 -37 -13 -29 -8 4 -26 -124 -19 -131 2 -1 19 26 38 62 35 65
52 75 58 36 2 -12 15 -31 30 -43 l27 -21 3 51 c2 29 2 73 0 99 l-3 47 -11 -35
c-7 -24 -17 -36 -32 -38 -29 -4 -28 8 11 92 l32 71 5 -38 5 -39 29 54 c21 40
27 61 22 81 -8 33 -36 36 -36 5 0 -13 -5 -30 -11 -38 -7 -11 -9 -7 -8 20 2 68
2 68 -41 66 -21 -1 -42 -5 -46 -9 -4 -4 -22 -7 -40 -7 l-33 0 -1 205 -1 205
81 0 80 0 0 -191 0 -191 23 5 c12 4 41 9 65 13 l42 7 0 178 0 179 50 0 50 0 0
210 0 210 -50 0 -50 0 0 -210 0 -210 -65 0 -65 0 0 210 0 210 -80 0 -80 0 0
-210z"/>
<path d="M1645 4383 l0 -208 -45 -5 -45 -5 -3 -168 -2 -169 32 7 c76 15 70 0
66 173 l-3 157 43 3 42 3 0 -165 0 -166 30 0 c23 0 30 -4 30 -20 0 -16 -7 -20
-30 -20 -25 0 -30 -4 -30 -25 0 -21 5 -25 30 -25 26 0 30 4 30 26 0 22 4 25
28 22 22 -2 28 1 30 20 3 19 -1 22 -27 22 l-31 0 0 165 0 165 30 0 30 0 -2
208 -3 207 -27 3 -28 3 0 -210 0 -211 -30 0 c-29 0 -30 2 -31 48 -1 99 -7 348
-8 360 -1 7 -16 12 -39 12 l-37 0 0 -207z"/>
<path d="M2010 4381 c0 -181 -2 -211 -15 -211 -13 0 -15 -26 -15 -170 0 -147
-2 -170 -16 -170 -12 0 -14 -9 -12 -37 3 -33 7 -38 31 -41 22 -3 27 1 27 17 0
12 -7 21 -15 21 -8 0 -15 -8 -15 -17 0 -9 -2 -14 -5 -11 -3 3 -2 19 1 36 7 35
34 44 34 12 0 -15 7 -20 25 -20 18 0 25 5 25 20 0 15 7 20 25 20 l25 0 0 170
0 170 -25 0 -25 0 -2 208 c-3 206 -3 207 -25 210 l-23 3 0 -210z m50 -381 l0
-170 -25 0 -25 0 0 170 0 170 25 0 25 0 0 -170z"/>
<path d="M2740 4380 l0 -210 -80 0 -80 0 0 -210 0 -210 -32 0 -33 0 25 -20
c32 -25 40 -25 40 0 0 18 7 20 80 20 l80 0 0 -151 c0 -82 -4 -148 -9 -145 -4
3 -21 39 -37 80 -17 46 -44 93 -71 123 l-42 48 -1 -34 0 -33 -40 33 c-21 19
-52 44 -67 56 l-28 22 35 1 35 1 -28 15 c-16 9 -31 13 -34 11 -2 -3 -4 -104
-3 -225 l1 -221 -53 -3 -53 -3 0 -173 c0 -149 -2 -169 -13 -143 -17 42 -32 39
-25 -5 5 -29 3 -36 -8 -32 -8 3 -22 -1 -31 -10 -17 -14 -18 -11 -18 52 0 36 5
74 11 85 9 13 9 23 1 37 -10 17 -11 16 -12 -10 0 -24 -2 -26 -14 -16 -8 6 -23
35 -33 63 l-18 52 -3 -145 c-1 -79 0 -150 2 -157 3 -6 14 -10 26 -8 l21 4 -21
-26 c-11 -14 -20 -32 -20 -39 0 -25 23 -27 41 -3 18 24 19 22 19 -104 l0 -129
-34 41 c-32 38 -35 39 -38 19 -3 -22 -3 -22 -21 5 -20 31 -14 55 9 36 12 -10
14 5 14 95 l0 107 -32 -3 c-31 -3 -33 -5 -36 -47 -3 -34 2 -49 19 -67 22 -24
22 -24 3 -38 -17 -13 -19 -13 -22 5 -4 22 -6 23 -33 9 -18 -10 -19 -7 -19 65
0 73 -1 75 -25 75 -24 0 -25 -2 -25 -74 0 -73 14 -107 40 -91 6 4 10 -6 10
-26 l0 -33 20 22 c12 12 23 22 25 22 3 0 5 -29 5 -65 0 -50 -3 -63 -14 -59 -9
4 -16 -8 -22 -38 -8 -41 -9 -39 -12 36 -3 74 -4 78 -18 57 -9 -12 -20 -19 -25
-16 -5 4 -9 -27 -9 -74 l0 -81 50 0 50 0 0 -150 c0 -139 -6 -171 -26 -138 -4
6 -11 25 -15 42 -4 20 -7 -4 -8 -71 l-1 -103 25 0 25 0 0 -205 c0 -178 2 -206
16 -212 8 -3 23 2 32 11 15 14 17 43 18 194 1 232 -2 212 39 212 l35 0 2 208
3 207 48 3 49 3 -2 157 c-1 86 -1 162 0 167 1 6 10 -21 19 -60 12 -51 21 -71
34 -73 17 -3 18 1 12 45 -16 113 -41 184 -64 182 -9 -1 -27 -1 -40 0 -20 1
-22 3 -10 17 11 14 13 14 21 -1 5 -8 14 -13 19 -10 5 4 7 11 4 16 -4 5 -2 9 2
9 5 0 13 -8 19 -18 8 -12 22 -17 48 -16 l36 2 0 -147 c0 -85 -4 -140 -9 -132
-15 23 -26 -9 -26 -76 0 -53 3 -63 17 -63 13 0 18 -8 19 -27 0 -16 3 -22 6
-15 11 28 23 8 23 -41 0 -62 17 -78 68 -65 l32 9 0 69 c0 63 2 70 20 70 11 0
20 -3 21 -7 11 -83 9 -102 -16 -121 -24 -19 -25 -23 -25 -155 l0 -136 51 -3
51 -3 -22 -28 c-23 -29 -21 -57 5 -57 8 0 15 4 15 9 0 4 11 20 25 35 30 33 32
46 5 46 -19 0 -19 1 3 38 l22 37 3 -27 c3 -29 22 -40 22 -13 0 24 28 17 32 -7
2 -14 11 -24 24 -26 25 -4 34 20 34 93 -1 43 -6 89 -35 279 -3 16 -9 34 -14
39 -5 5 -47 9 -94 8 -69 -1 -86 2 -91 15 -3 9 -4 19 -2 23 3 4 -4 43 -15 86
-13 53 -19 112 -19 185 l0 108 78 -1 77 -2 5 -190 c3 -105 7 -152 8 -105 2 47
9 123 16 170 7 47 11 93 8 103 -3 12 2 17 17 17 19 0 20 4 15 83 -6 100 -23
284 -30 315 -5 23 -30 30 -36 10 -3 -7 -7 -5 -11 6 -4 10 -3 15 3 11 6 -4 10
13 11 42 l1 48 16 -47 16 -48 73 0 73 0 0 210 0 210 105 0 105 0 0 210 0 210
-105 0 -105 0 0 210 0 210 -90 0 -90 0 0 -210z m180 -420 l0 -210 -90 0 -90 0
0 210 0 210 90 0 90 0 0 -210z m-286 -422 c14 -23 39 -71 57 -105 31 -60 31
-64 15 -82 -11 -12 -13 -20 -6 -23 6 -2 -12 -27 -41 -57 -37 -38 -54 -50 -62
-42 -8 8 2 23 36 56 l47 45 -50 0 -50 0 0 -205 c0 -113 -3 -205 -7 -206 -5 0
-33 -1 -63 -2 l-55 -2 -3 79 -3 79 -30 -28 c-19 -19 -32 -26 -39 -19 -7 7 4
23 30 49 22 21 40 34 40 27 0 -22 15 -12 54 34 48 57 39 70 -14 19 l-40 -39 0
107 0 107 65 0 65 0 0 147 c0 162 -2 160 54 61z m-54 -949 l0 -89 -49 0 c-30
0 -51 -5 -54 -12 -11 -32 -13 4 -5 82 10 91 17 107 51 112 53 9 57 2 57 -93z
m-355 3 c20 -40 24 -43 25 -22 0 20 2 22 10 10 25 -39 0 -80 -49 -80 -25 0
-31 -4 -32 -22 l-2 -23 -4 23 c-3 17 -11 22 -34 22 -28 0 -29 1 -29 51 0 78
26 111 56 72 12 -17 13 -16 14 5 0 32 16 19 45 -36z"/>
<path d="M670 2710 l0 -210 101 0 101 0 -7 40 c-4 22 -7 117 -8 210 l-1 170
-93 0 -93 0 0 -210z"/>
<path d="M897 2886 c-3 -19 -1 -103 3 -188 5 -84 9 -163 10 -175 0 -25 34 -33
43 -10 4 10 6 10 6 0 1 -7 9 -13 19 -13 14 0 22 16 36 69 20 76 18 116 -4 116
-10 0 -19 -17 -27 -49 -7 -26 -14 -51 -18 -54 -3 -3 -5 72 -5 166 l0 172 -29
0 c-25 0 -29 -5 -34 -34z"/>
<path d="M1536 2850 c-75 -134 -86 -169 -86 -261 l0 -89 50 0 c32 0 52 5 56
13 2 7 3 94 2 192 l-3 180 -19 -35z"/>
<path d="M1452 2068 c-2 -9 -9 -15 -15 -12 -7 2 -30 -14 -51 -36 -31 -32 -37
-43 -27 -53 10 -9 21 -3 52 32 l39 44 0 -166 c0 -165 0 -167 24 -182 14 -9 37
-15 53 -13 l28 3 3 198 c2 108 0 197 -5 198 -72 6 -97 3 -101 -13z"/>
<path d="M2740 1870 l0 -210 46 0 c30 0 43 4 39 11 -4 6 -9 72 -11 147 -2 75
-6 165 -10 200 -5 61 -6 62 -35 62 l-29 0 0 -210z"/>
<path d="M2854 2028 c3 -29 8 -124 12 -210 7 -158 7 -158 30 -158 l24 0 0 210
0 210 -36 0 -36 0 6 -52z"/>
<path d="M1646 1652 c-5 -15 -16 -19 -49 -18 l-42 1 3 -95 4 -95 -34 -10 c-42
-13 -43 -29 0 -33 27 -3 32 0 32 18 0 18 5 21 33 18 35 -3 32 -12 51 137 4 28
9 60 12 73 5 26 -2 30 -10 4z"/>
<path d="M1450 1102 c0 -111 -3 -151 -12 -154 -7 -2 -37 -4 -65 -3 l-53 2 0
-34 c0 -29 3 -33 28 -33 15 0 44 3 65 6 33 6 37 10 37 35 0 26 3 29 35 30 19
1 40 2 47 3 20 2 29 62 26 179 l-3 112 -52 3 -53 3 0 -149z"/>
<path d="M0 4380 l0 -210 163 2 162 3 3 208 2 207 -165 0 -165 0 0 -210z"/>
<path d="M2454 941 c-7 -8 -4 -111 4 -112 30 -6 71 -6 95 -2 26 4 27 7 27 62
l0 58 -61 -1 c-33 -1 -62 -3 -65 -5z"/>
<path d="M1930 820 c0 -5 7 -10 15 -10 8 0 15 -9 15 -20 0 -11 -7 -20 -15 -20
-13 0 -15 -27 -15 -179 0 -168 -1 -179 -19 -184 -18 -4 -19 -16 -20 -172 -2
-183 4 -235 25 -235 12 0 14 37 14 204 0 172 2 205 15 210 13 4 15 34 15 176
0 112 3 169 10 165 18 -11 11 47 -7 61 -22 16 -33 17 -33 4z"/>
<path d="M1730 606 l0 -196 -42 0 -43 0 0 -205 0 -205 43 0 42 0 0 205 0 205
30 0 30 0 0 -205 0 -205 30 0 30 0 0 205 c0 198 1 205 20 205 19 0 20 7 20
185 0 178 -1 185 -20 185 -19 0 -20 -7 -20 -185 l0 -185 -30 0 -30 0 0 188 c0
144 -3 189 -12 189 -7 0 -21 4 -30 8 -17 7 -18 -6 -18 -189z"/>
<path d="M2745 402 c-3 -3 -5 -95 -5 -204 l0 -198 90 0 90 0 0 204 0 203 -85
0 c-46 0 -87 -2 -90 -5z"/>
</g>
</svg>
