<?xml version="1.0" standalone="no"?>
<!DOCTYPE svg PUBLIC "-//W3C//DTD SVG 20010904//EN"
 "http://www.w3.org/TR/2001/REC-SVG-20010904/DTD/svg10.dtd">
<svg version="1.0" xmlns="http://www.w3.org/2000/svg"
 width="640.000000pt" height="403.000000pt" viewBox="0 0 640.000000 403.000000"
 preserveAspectRatio="xMidYMid meet">
<metadata>
Created by potrace 1.11, written by Peter Selinger 2001-2013
</metadata>
<g transform="translate(0.000000,403.000000) scale(0.100000,-0.100000)"
fill="#000000" stroke="none">
<path d="M0 3890 c0 -77 2 -140 5 -140 16 0 63 32 89 59 17 17 39 31 51 31 12
0 64 32 115 71 51 38 106 77 122 85 15 8 28 19 28 24 0 6 -79 10 -205 10
l-205 0 0 -140z"/>
<path d="M492 4018 c-7 -7 -12 -17 -12 -24 0 -7 -21 -25 -46 -41 -26 -15 -67
-47 -93 -71 -38 -36 -42 -42 -21 -37 14 4 39 14 55 22 17 8 47 21 68 29 45 16
44 14 -33 -77 -75 -87 -145 -224 -190 -371 -5 -16 -6 -28 -2 -28 4 0 66 53
138 118 116 104 227 182 240 169 9 -8 -72 -156 -109 -198 -65 -74 -149 -201
-172 -259 -12 -30 -49 -103 -83 -162 -34 -59 -62 -113 -62 -120 -1 -7 -16 -49
-36 -93 -19 -44 -32 -66 -29 -50 2 17 9 73 15 125 6 52 21 140 34 195 41 171
56 239 56 253 0 8 -21 -4 -46 -27 -34 -30 -57 -42 -92 -46 -26 -4 -53 -8 -60
-10 -16 -6 -18 -1915 -2 -1915 6 0 30 42 54 94 24 51 49 96 55 100 8 5 11 -12
11 -57 0 -69 -12 -88 -76 -121 -36 -17 -54 -58 -54 -117 0 -45 16 -50 58 -20
15 10 56 29 92 41 36 13 73 30 84 39 18 15 18 14 11 -44 -4 -33 -9 -64 -12
-68 -3 -5 -26 -17 -51 -28 -25 -11 -50 -26 -56 -34 -6 -8 -37 -24 -69 -35
l-57 -21 0 -165 0 -165 42 3 c42 3 44 4 81 76 27 52 43 72 57 72 18 0 20 -7
20 -70 l0 -70 -38 -19 c-20 -11 -50 -36 -65 -56 -16 -20 -44 -43 -63 -52 -34
-17 -34 -17 -34 -86 0 -99 31 -195 82 -254 22 -27 44 -49 48 -51 12 -5 100 98
106 124 9 33 18 30 38 -13 22 -48 53 -86 64 -79 5 3 12 23 16 45 3 21 14 49
24 61 l19 23 42 -87 c39 -81 41 -89 27 -105 -31 -34 -22 -42 56 -54 36 -5 35
2 -2 38 -17 16 -30 33 -30 37 0 7 78 102 141 172 5 5 14 4 23 -3 8 -7 19 -10
24 -7 5 3 14 -6 21 -20 6 -13 31 -47 57 -74 43 -46 44 -49 23 -55 -26 -8 -37
3 -75 78 -13 26 -28 47 -33 47 -18 0 -28 -60 -15 -95 8 -20 56 -45 87 -45 14
0 43 -17 70 -40 65 -58 90 -53 37 7 l-42 48 157 3 c87 1 159 1 160 0 1 -2 5
-21 8 -43 l6 -40 -111 -3 c-61 -1 -114 -4 -116 -7 -3 -3 2 -13 10 -22 8 -10
27 -44 41 -76 14 -31 34 -60 44 -63 10 -3 29 -11 43 -18 14 -7 38 -16 54 -20
34 -8 176 3 176 13 0 4 -27 43 -60 87 -33 43 -60 83 -60 88 0 4 32 6 70 4 39
-2 70 -3 70 -1 0 1 -10 23 -22 48 -21 42 -24 45 -62 45 -61 0 -86 10 -86 32 0
30 -18 57 -87 133 -62 68 -123 170 -123 205 0 16 18 30 118 93 l42 27 0 -54
c0 -64 49 -170 114 -243 34 -39 41 -55 50 -116 l11 -72 49 -8 c27 -4 74 -7
105 -5 50 3 57 6 69 31 11 22 12 39 4 69 l-11 40 36 -33 c20 -19 32 -28 28
-20 -20 35 -24 86 -8 118 8 18 19 33 23 33 14 0 95 -97 143 -171 26 -41 58
-89 72 -108 31 -42 65 -149 65 -202 l0 -39 60 0 c33 0 60 2 60 5 0 17 -50 98
-110 179 -89 121 -140 205 -140 234 0 12 7 33 14 45 8 12 20 54 26 92 6 39 15
74 19 78 5 5 24 -10 42 -32 32 -41 33 -41 53 -22 12 11 30 37 41 58 10 21 20
39 21 41 1 2 33 -29 71 -68 l69 -73 30 31 c38 37 92 47 212 39 l84 -6 -40 29
c-49 35 -108 93 -122 120 -10 18 -8 20 19 20 21 0 35 -8 50 -29 21 -29 120
-82 189 -100 22 -6 45 -18 52 -26 11 -13 3 -15 -64 -15 -73 0 -76 -1 -66 -19
5 -11 10 -36 10 -55 0 -42 9 -44 83 -21 45 13 48 13 43 -3 -20 -63 -46 -171
-46 -195 0 -39 21 -85 65 -137 55 -67 63 -61 20 15 -35 63 -37 70 -26 105 13
44 48 70 102 77 34 5 43 12 68 57 17 28 36 73 43 99 7 28 18 47 26 47 10 0 13
-8 8 -27 -3 -16 -9 -54 -12 -85 -6 -50 -9 -57 -33 -63 -40 -10 -71 -33 -71
-53 0 -10 11 -29 24 -41 l25 -23 38 31 38 31 25 -29 c51 -60 127 -84 206 -65
33 7 75 14 94 14 l35 0 -50 -31 c-49 -31 -115 -87 -115 -99 0 -3 16 -12 35
-19 41 -14 75 -54 75 -87 0 -24 2 -24 95 -24 71 0 95 3 93 13 -7 36 14 69 57
88 25 11 45 23 45 28 0 22 -116 104 -180 127 l-35 13 34 1 c19 0 77 -7 127
-17 87 -15 96 -15 138 1 25 10 59 33 76 53 l31 35 40 -26 c21 -15 39 -32 39
-38 0 -6 11 -1 25 12 16 15 25 34 25 53 0 27 2 28 32 21 98 -21 122 -82 68
-177 -37 -66 -38 -78 -4 -46 55 52 84 109 84 167 0 57 -21 145 -46 196 -13 26
-13 28 3 21 10 -3 44 -14 76 -22 l58 -16 -6 -41 c-4 -27 1 -69 14 -123 34
-134 35 -130 -88 -304 -13 -18 -11 -19 28 -19 38 0 41 2 41 28 0 36 51 143 94
195 47 59 56 79 56 133 0 40 -5 51 -35 79 -19 19 -50 39 -70 45 -28 9 -35 17
-35 38 0 15 7 39 14 55 l15 27 -87 0 -87 1 24 19 c13 11 35 23 50 26 77 17
201 88 201 116 0 4 -44 8 -97 8 -54 0 -124 4 -157 10 -58 9 -60 9 -126 -31
-59 -35 -90 -69 -90 -99 0 -12 55 -28 127 -35 59 -7 62 -8 52 -27 -6 -11 -9
-28 -6 -38 4 -15 0 -16 -32 -10 -20 4 -65 13 -100 20 l-63 13 5 39 c3 21 1 38
-4 38 -4 0 -25 15 -46 33 -28 25 -35 27 -29 12 4 -11 13 -40 19 -64 8 -29 20
-47 34 -54 15 -7 27 -25 34 -51 6 -23 24 -65 41 -94 17 -29 28 -55 26 -57 -3
-3 -24 3 -48 12 -29 12 -45 14 -47 7 -2 -6 -9 -19 -16 -28 -12 -16 -17 -15
-78 13 -41 20 -94 35 -144 41 -71 9 -111 20 -74 20 9 0 24 7 35 16 18 14 15
15 -38 9 -36 -4 -65 -2 -78 5 -17 9 -29 9 -50 0 -22 -9 -37 -9 -64 0 -20 6
-44 10 -53 8 -36 -8 45 -38 104 -39 57 -1 57 -1 18 -10 -22 -4 -63 -8 -92 -8
-75 -1 -150 -19 -215 -52 l-57 -29 -16 30 c-15 30 -15 30 21 45 75 31 176 65
194 65 19 0 19 1 -2 45 -20 40 -21 51 -11 97 6 29 9 55 7 57 -2 2 -27 -11 -56
-29 -87 -55 -126 -75 -133 -68 -4 3 2 36 13 72 l20 65 -30 -29 c-38 -38 -58
-37 -83 2 -11 18 -46 47 -79 66 -50 29 -62 33 -83 23 -14 -6 -83 -11 -163 -11
l-140 0 -24 39 c-17 27 -34 40 -57 45 -18 3 -34 4 -36 2 -3 -3 7 -22 21 -43
30 -44 18 -55 -33 -29 -67 35 -181 2 -215 -61 l-14 -27 -16 32 -16 32 -57 -55
c-63 -63 -61 -63 -119 21 -21 30 -41 51 -46 46 -10 -10 -68 -161 -68 -177 0
-5 -11 -23 -24 -39 l-23 -30 -18 27 -18 28 -25 -37 c-13 -20 -28 -48 -31 -63
-7 -25 -8 -25 -44 24 -20 28 -42 70 -48 93 l-12 44 -21 -26 c-21 -26 -22 -26
-106 -19 -47 4 -85 11 -85 15 0 4 42 47 93 95 102 97 112 98 112 16 0 -67 14
-72 51 -19 19 26 35 41 37 34 7 -28 66 -148 73 -148 4 0 11 14 14 31 9 38 57
122 96 167 32 36 33 46 19 142 -5 36 -5 93 -1 128 l7 62 -29 -27 c-65 -63
-147 -214 -147 -271 0 -10 -7 -27 -15 -38 -13 -18 -14 -16 -15 26 -1 98 -26
111 -76 39 -15 -21 -30 -39 -33 -39 -4 0 -22 32 -41 70 -19 39 -36 70 -39 70
-3 0 -41 -37 -83 -82 -72 -78 -77 -81 -78 -55 0 16 -5 37 -11 48 -9 17 -4 27
30 64 37 40 61 95 61 139 0 11 12 44 27 75 39 83 44 236 12 457 -21 154 -29
182 -42 152 -55 -135 -68 -179 -81 -258 -8 -52 -27 -133 -42 -180 -37 -120
-38 -266 -4 -363 16 -44 21 -71 14 -75 -6 -4 -38 -29 -73 -56 -34 -26 -63 -47
-65 -45 -11 15 -46 111 -51 142 -4 21 -11 37 -15 35 -8 -3 -82 -89 -123 -142
-15 -20 -46 -45 -67 -56 -45 -23 -45 -22 -26 -58 8 -15 19 -61 25 -102 7 -41
14 -76 16 -78 2 -3 15 8 28 24 14 16 38 43 53 60 16 17 51 56 77 87 26 31 57
62 68 67 18 10 19 7 19 -37 0 -48 0 -48 -96 -133 -53 -47 -104 -93 -114 -103
-18 -18 -18 -18 -25 3 -5 16 -10 19 -20 10 -21 -17 -28 -9 -69 84 -21 48 -43
86 -48 86 -5 0 -16 -16 -23 -35 -8 -19 -36 -64 -62 -100 l-48 -65 -11 34 c-7
18 -24 52 -38 74 -14 23 -26 46 -26 51 0 11 107 100 139 114 21 10 23 16 17
55 -3 25 -6 94 -6 155 l0 110 -29 -39 c-37 -51 -139 -156 -170 -175 -23 -14
-23 -16 -11 -74 7 -32 21 -78 32 -101 20 -40 20 -41 2 -69 -11 -16 -26 -52
-35 -79 l-16 -51 -13 30 c-27 66 -40 134 -40 220 l0 91 30 11 c33 12 36 27 24
116 -6 41 -9 45 -25 37 -10 -6 -20 -10 -23 -10 -3 0 -6 45 -6 99 0 115 14 155
74 214 21 20 36 31 33 23 -37 -97 -73 -306 -53 -306 11 0 117 84 159 127 21
21 52 63 68 93 16 30 26 44 23 30 -18 -65 -24 -98 -23 -140 l0 -45 34 37 c27
29 35 46 35 74 0 31 51 144 65 144 2 0 -10 -39 -27 -87 -26 -77 -31 -106 -35
-230 -4 -99 -2 -143 5 -143 36 0 202 244 202 298 0 14 24 48 63 90 57 61 65
74 76 132 7 36 19 76 27 90 26 48 3 -88 -33 -194 -34 -99 -58 -229 -51 -282
l3 -29 18 32 c9 18 17 41 17 51 0 26 25 45 49 37 14 -4 25 2 40 24 18 24 23
49 26 125 3 71 10 106 25 137 31 59 42 141 30 219 -14 90 -19 110 -29 110 -5
0 -25 -42 -44 -92 l-36 -93 -1 80 c0 68 -7 97 -43 196 l-43 117 -64 -123 c-62
-118 -65 -122 -76 -97 l-11 27 -16 -30 c-9 -16 -16 -23 -17 -15 0 8 -8 31 -19
50 -10 19 -31 79 -46 133 -21 77 -26 109 -21 150 l6 52 -34 -60 c-32 -57 -40
-78 -82 -217 -9 -32 -20 -58 -24 -58 -3 0 -13 21 -21 47 l-15 47 -46 -103 -46
-103 -6 114 c-4 62 -9 155 -12 206 -6 96 4 145 31 156 8 3 17 20 20 39 7 35
-33 179 -96 349 -33 87 -35 117 -14 203 8 33 15 76 15 96 0 21 8 47 20 62 11
14 20 32 20 40 0 25 42 113 47 99 3 -7 -3 -74 -13 -150 -19 -155 -15 -382 9
-467 7 -27 30 -75 50 -105 20 -30 37 -61 37 -70 0 -8 -9 -40 -21 -70 -25 -67
-29 -206 -7 -260 l15 -35 22 74 c19 62 22 89 17 165 -10 161 -20 218 -48 262
-51 79 -84 217 -76 318 4 49 16 86 53 160 26 53 48 96 50 94 1 -2 -3 -68 -10
-147 -20 -242 -5 -315 107 -493 l63 -101 3 55 c3 53 -7 104 -42 228 -9 30 -16
80 -16 111 0 66 34 185 60 214 12 13 18 35 18 65 0 51 35 151 59 172 9 7 25
27 35 43 l19 30 -6 -35 c-4 -19 -15 -53 -24 -75 -28 -64 -53 -178 -49 -226 l3
-43 27 80 c28 85 93 228 84 184 -3 -14 -11 -90 -18 -169 -9 -113 -8 -158 1
-204 15 -72 49 -167 61 -167 4 0 11 21 14 48 9 65 24 132 53 232 45 162 64
207 99 240 l33 33 -14 -54 c-15 -55 -18 -194 -6 -239 6 -22 9 -19 30 30 13 30
34 68 46 85 13 16 26 40 29 52 8 27 44 73 57 73 5 0 9 -62 9 -142 l1 -143 22
42 c24 45 103 105 164 126 l37 12 18 120 c9 66 17 123 18 128 0 17 -17 5 -34
-24 -28 -47 -92 -89 -137 -89 -21 0 -49 -4 -63 -10 -24 -9 -25 -8 -31 45 -8
59 -3 75 24 75 30 0 126 47 163 78 18 16 53 36 77 43 39 12 46 19 69 69 39 87
73 182 68 187 -9 9 -109 -19 -171 -47 -33 -15 -87 -48 -121 -72 -58 -43 -61
-49 -81 -119 -12 -41 -24 -91 -28 -111 -4 -28 -11 -38 -24 -38 -11 0 -43 -16
-72 -35 l-52 -36 6 78 c4 43 12 98 20 123 12 41 16 45 54 52 94 16 137 55 160
147 l6 26 -38 -29 c-36 -28 -115 -52 -115 -35 0 4 16 39 35 78 19 38 35 72 35
75 0 3 13 28 30 56 16 27 26 50 21 50 -4 0 -39 -29 -76 -65 -46 -43 -79 -66
-99 -69 -89 -14 -116 -16 -116 -9 0 5 14 32 30 61 23 42 26 52 12 47 -34 -14
-55 -18 -50 -9 72 119 123 201 150 240 57 81 55 82 -23 9 -60 -57 -92 -78
-164 -109 -79 -34 -175 -58 -175 -44 0 20 55 98 68 98 49 0 98 26 160 84 59
55 262 179 262 159 0 -3 -14 -29 -31 -56 l-31 -51 33 25 c59 44 60 41 5 -38
-29 -43 -68 -105 -86 -138 -18 -33 -47 -79 -63 -103 -16 -24 -27 -45 -25 -48
10 -9 172 96 229 149 76 71 98 87 121 87 10 0 63 44 118 98 87 85 105 98 129
94 l28 -4 -50 -46 c-43 -41 -107 -121 -107 -135 0 -3 53 -3 119 0 65 3 131 3
146 -1 l27 -7 -35 -38 c-19 -21 -39 -46 -44 -56 -10 -16 -14 -16 -75 -1 -35 9
-74 16 -87 16 -24 0 -96 -34 -106 -50 -3 -5 -15 -15 -26 -21 -17 -9 -16 -3 11
48 16 32 37 68 46 81 16 22 16 22 -24 22 -39 0 -42 -2 -100 -82 -32 -46 -65
-94 -72 -107 -11 -22 -11 -23 6 -17 11 5 38 14 62 21 41 13 52 9 33 -11 -5 -5
-26 -49 -46 -99 -20 -49 -39 -96 -42 -104 -3 -7 11 -2 33 12 21 14 64 33 94
42 30 9 82 27 115 40 33 13 71 25 85 27 20 2 26 10 31 38 3 19 16 54 28 78 19
38 25 43 49 38 15 -3 48 -8 75 -12 26 -3 47 -10 47 -15 0 -4 -16 -38 -35 -76
-19 -37 -35 -71 -35 -75 0 -4 19 -12 43 -19 23 -6 65 -24 94 -40 l51 -29 18
47 c10 27 28 67 42 91 l24 43 70 -3 c63 -3 72 -1 85 19 14 20 13 23 -16 38
-75 38 -78 38 -111 -10 l-30 -44 -53 15 c-53 15 -137 45 -137 49 0 1 7 23 16
48 20 61 14 75 -36 83 -22 4 -39 10 -38 14 2 5 28 34 58 66 l54 57 45 -12 45
-12 40 41 41 40 -38 0 c-52 0 -82 16 -66 36 9 11 8 14 -4 14 -8 0 -17 -12 -21
-27 -3 -16 -15 -38 -25 -51 l-20 -23 -108 26 c-136 34 -143 37 -112 59 23 16
22 16 -34 16 -44 0 -57 -3 -57 -15 0 -12 -14 -15 -63 -15 -83 0 -172 -17 -222
-42 l-40 -20 23 24 c25 27 28 39 10 34 -7 -3 -25 -7 -41 -10 -25 -6 -27 -5
-21 19 l6 25 -109 0 -109 0 -60 -62 c-84 -86 -171 -192 -179 -217 -5 -16 -15
-21 -43 -21 -20 0 -54 -3 -76 -7 -38 -6 -38 -6 -25 18 7 13 62 75 122 137 61
61 106 112 101 112 -5 0 -54 -12 -109 -26 -123 -32 -159 -40 -208 -47 l-38 -6
51 60 52 59 -44 0 c-24 0 -49 -5 -56 -12z m159 -480 c-47 -89 -77 -165 -69
-173 2 -2 25 14 50 36 26 22 65 46 88 54 23 8 55 24 72 36 28 20 118 39 118
25 0 -4 -11 -29 -25 -56 -14 -28 -23 -50 -21 -50 3 0 17 5 31 10 24 9 26 8 19
-12 -4 -13 -17 -47 -30 -77 -13 -29 -30 -78 -38 -108 l-14 -54 31 24 c68 52
111 77 164 97 31 11 58 19 60 16 2 -2 -7 -26 -21 -53 -21 -42 -31 -51 -66 -62
-43 -13 -116 -77 -193 -170 l-36 -43 13 53 c7 30 20 72 30 94 l16 40 -45 -47
c-25 -26 -45 -41 -45 -35 0 21 56 188 84 251 15 33 25 61 23 62 -2 2 -20 -10
-40 -27 -20 -16 -55 -38 -79 -49 -75 -33 -140 -119 -229 -305 -27 -55 -49 -93
-49 -84 0 20 31 108 65 184 25 55 69 225 60 233 -6 7 -54 -65 -100 -153 -27
-49 -56 -99 -65 -110 -10 -11 -25 -33 -33 -50 -15 -27 -16 -28 -17 -7 -1 97
147 508 189 524 12 4 41 21 64 36 40 28 63 39 79 41 4 1 -14 -41 -41 -91z
m-453 -1540 c6 -46 14 -125 18 -175 6 -87 5 -95 -19 -136 -14 -24 -34 -50 -43
-58 -16 -13 -16 -11 -10 21 3 19 9 109 12 200 5 179 11 230 23 230 4 0 13 -37
19 -82z m552 -492 c0 -36 -27 -80 -79 -129 -46 -43 -46 -43 -26 33 8 30 15 57
15 60 -1 3 -18 -15 -40 -40 l-39 -45 29 90 c16 50 36 106 44 125 l15 35 1 -65
c1 -36 4 -58 7 -50 3 8 15 40 26 70 l20 55 13 -55 c7 -30 13 -68 14 -84z
m2015 -901 l0 -39 -108 -21 c-59 -12 -103 -17 -97 -11 13 13 13 49 -1 63 -7 7
14 14 73 23 46 7 90 16 98 21 25 14 35 4 35 -36z"/>
<path d="M2073 4013 c-3 -10 -8 -22 -11 -26 -2 -5 16 -5 42 -2 40 6 51 3 97
-25 28 -17 56 -28 63 -25 6 4 37 21 70 38 32 18 59 37 60 42 0 6 -59 11 -157
13 -143 2 -158 1 -164 -15z"/>
<path d="M2470 4015 c14 -8 33 -14 43 -15 29 0 20 -14 -43 -66 -33 -27 -62
-55 -65 -62 -10 -26 143 -101 209 -102 l29 0 -41 -30 c-23 -17 -42 -33 -42
-36 0 -4 36 -5 79 -2 l80 5 -64 -71 -64 -71 167 -5 167 -5 77 60 c42 33 77 63
77 66 2 16 -96 31 -212 32 l-126 2 32 34 32 34 -77 -7 c-43 -4 -78 -5 -78 -2
0 2 46 41 101 87 l101 84 -123 11 c-180 17 -203 25 -156 57 21 15 18 16 -53
16 -70 0 -73 -1 -50 -14z"/>
<path d="M2927 4011 c-3 -11 -20 -29 -38 -40 l-34 -21 45 0 c25 0 62 -3 82 -6
l37 -6 -102 -75 c-56 -41 -104 -77 -107 -79 -2 -3 65 -3 150 -2 108 2 168 -1
199 -10 l44 -14 -51 -29 c-64 -36 -70 -46 -35 -61 15 -7 38 -19 51 -26 22 -14
20 -15 -50 -59 -40 -25 -81 -52 -90 -60 -15 -14 -22 -14 -66 2 -49 18 -49 18
-80 -5 -36 -27 -39 -36 -14 -45 9 -3 30 -17 45 -31 29 -25 29 -25 10 -51 -32
-45 -71 -108 -72 -115 -1 -4 17 -12 39 -18 22 -6 51 -21 65 -33 l26 -22 -26
-37 c-14 -20 -25 -44 -25 -53 0 -14 -3 -14 -27 3 -16 10 -50 27 -78 37 -27 10
-52 20 -54 22 -2 1 13 23 33 47 l36 45 -54 15 c-30 9 -56 16 -59 16 -6 0 -37
-76 -37 -89 0 -5 13 -12 30 -16 16 -4 32 -10 35 -15 3 -5 -8 -30 -25 -56 -16
-26 -30 -58 -30 -71 0 -27 -1 -27 -35 -11 -31 14 -31 30 -4 102 12 31 19 59
16 63 -6 6 -211 64 -236 67 -18 1 -39 -59 -43 -126 l-3 -53 45 -7 c25 -5 68
-11 95 -14 95 -10 98 -12 91 -44 -4 -24 -1 -33 19 -46 28 -18 45 -12 45 17 0
25 2 24 55 -9 25 -16 58 -49 76 -76 16 -27 34 -45 38 -40 12 14 59 155 63 189
3 28 5 26 37 -35 l34 -65 13 40 c6 22 19 64 28 93 l17 53 -31 25 c-16 14 -30
30 -30 34 0 5 25 33 55 63 54 52 64 67 46 67 -5 0 -34 16 -66 35 -32 19 -62
36 -69 38 -11 4 37 87 51 87 3 0 25 -18 49 -40 24 -22 51 -40 59 -40 9 0 32
-7 53 -16 l37 -15 -30 -14 c-16 -7 -39 -20 -50 -28 -19 -16 -19 -17 23 -33 23
-9 42 -20 42 -24 0 -4 -12 -13 -27 -21 -14 -8 -44 -36 -65 -63 l-38 -48 34
-38 c18 -20 48 -74 67 -119 18 -45 37 -80 43 -78 5 2 24 37 41 79 37 87 70
138 90 138 9 0 24 -33 40 -87 l27 -88 36 70 36 70 6 -35 c4 -19 20 -75 35
-123 24 -72 27 -91 17 -105 -26 -36 -50 -99 -62 -164 -11 -59 -10 -72 8 -130
12 -34 25 -76 30 -93 l10 -30 12 33 12 32 39 -42 c21 -24 46 -62 56 -85 10
-24 21 -43 25 -43 8 0 68 144 68 164 0 28 14 17 45 -34 16 -28 32 -50 37 -50
7 0 15 37 20 93 2 23 11 10 45 -70 l42 -98 -5 -105 -5 -105 22 40 c12 22 37
59 56 82 19 22 38 56 43 74 6 19 10 131 10 251 l0 216 36 12 c20 7 47 25 62
41 14 16 32 29 40 29 14 0 14 -3 -4 -197 l-6 -73 -47 0 c-70 0 -72 -4 -59 -90
6 -41 17 -84 24 -95 8 -11 14 -29 15 -40 0 -20 42 103 60 183 8 30 18 46 38
57 15 7 33 21 40 29 11 13 34 16 109 16 l95 0 -6 -35 c-6 -35 -6 -36 26 -31
18 3 59 8 91 11 l59 7 -6 -39 c-4 -21 -7 -58 -7 -82 0 -38 -2 -43 -20 -38 -19
5 -146 -23 -169 -37 -27 -17 -7 -91 38 -142 16 -18 39 -62 51 -99 12 -36 28
-69 36 -72 8 -3 14 -13 14 -22 0 -28 29 -104 50 -131 l19 -25 20 47 c18 40 27
48 71 64 47 17 50 20 50 54 0 20 6 59 14 88 9 36 10 51 2 48 -6 -3 -42 -14
-79 -26 -44 -14 -82 -34 -108 -57 -42 -38 -45 -35 -28 33 9 36 15 44 28 38 65
-27 93 -2 99 90 5 80 -7 104 -58 112 -28 5 -37 10 -33 21 7 18 37 13 105 -16
36 -15 49 -26 53 -48 4 -15 13 -44 20 -63 8 -19 16 -44 18 -55 3 -11 5 19 6
66 1 52 7 101 16 122 8 20 15 53 15 74 l0 38 20 -25 c10 -14 22 -36 25 -50 4
-14 16 -40 27 -58 l21 -34 20 32 c25 40 30 33 62 -93 13 -51 30 -112 39 -136
17 -46 22 -176 8 -199 -7 -10 -21 -7 -63 13 -30 13 -71 25 -91 25 -36 0 -38 2
-38 31 0 28 2 31 25 25 25 -7 64 7 77 28 11 16 9 155 -2 196 -5 20 -16 45 -24
55 -12 16 -16 17 -30 6 -9 -7 -16 -28 -16 -46 0 -33 -27 -227 -32 -229 -43
-17 -98 -54 -98 -66 0 -9 -18 -24 -41 -34 -32 -14 -46 -28 -61 -63 -18 -41
-21 -43 -33 -26 -12 16 -15 14 -34 -30 -12 -27 -21 -65 -21 -85 0 -43 -9 -82
-19 -82 -4 0 -26 39 -49 86 -24 48 -58 105 -75 126 l-32 40 -6 -73 c-9 -100
-26 -190 -39 -203 -7 -7 -10 23 -10 95 0 95 -2 108 -25 142 -15 21 -37 39 -53
43 -40 9 -72 32 -72 52 0 9 -11 40 -25 67 -13 28 -25 56 -25 64 0 7 -7 34 -15
60 -8 25 -17 60 -21 76 -6 28 -10 21 -60 -84 -55 -116 -66 -170 -44 -212 6
-10 47 -45 92 -76 77 -54 156 -143 215 -244 9 -16 21 -29 25 -29 4 0 8 -5 8
-10 0 -6 -3 -9 -7 -8 -5 1 -30 -20 -56 -45 -49 -48 -67 -52 -67 -15 0 11 -14
47 -32 81 l-32 60 -51 -56 c-28 -31 -64 -61 -79 -67 -15 -5 -26 -13 -24 -18
34 -66 52 -116 56 -155 l5 -48 -48 33 c-35 24 -54 47 -71 87 -19 42 -27 52
-36 43 -9 -9 -4 -23 20 -57 19 -27 32 -59 33 -78 2 -56 13 -77 54 -100 35 -20
41 -28 47 -67 15 -103 -14 -228 -75 -317 -26 -38 -35 -40 -70 -13 l-25 20 -51
-31 c-49 -31 -51 -33 -34 -51 19 -22 54 -18 117 14 34 17 45 18 102 9 34 -6
81 -8 103 -5 44 7 50 0 26 -32 -21 -28 -19 -32 22 -36 l36 -3 -54 -56 c-30
-31 -70 -68 -89 -83 l-35 -28 66 6 c105 8 189 -8 219 -41 l25 -28 55 55 c31
30 65 69 77 85 19 26 22 27 23 10 0 -11 14 -38 30 -60 17 -22 33 -47 36 -57 5
-13 12 -9 41 23 19 21 39 37 43 34 4 -3 11 -31 15 -62 3 -32 16 -77 28 -101
l21 -44 -29 -55 c-16 -30 -64 -103 -108 -162 -43 -58 -90 -127 -103 -153 l-24
-48 59 0 c65 0 71 6 71 66 0 45 33 138 65 183 14 20 49 72 79 116 54 81 132
173 139 165 3 -3 12 -20 22 -39 16 -32 16 -65 -1 -119 -4 -11 3 -7 19 9 l24
27 -4 -43 c-3 -23 0 -52 7 -64 11 -21 17 -22 111 -19 104 3 109 1 84 -42 -21
-37 -19 -40 34 -40 91 0 108 8 123 54 l13 41 148 3 c81 1 147 -1 147 -6 0 -4
-16 -23 -35 -42 -40 -39 -43 -50 -14 -50 19 0 17 -5 -17 -52 -49 -69 -95 -118
-110 -118 -15 0 47 126 77 156 l20 21 -62 7 c-34 3 -86 6 -115 6 l-53 0 -76
-102 -77 -103 -66 -5 c-42 -4 -6 -6 94 -7 122 -1 168 2 189 13 35 18 49 18 41
-1 -3 -10 1 -15 13 -15 10 0 21 7 25 15 4 12 28 15 122 15 102 0 115 -2 104
-15 -11 -13 -4 -15 58 -15 52 0 71 4 75 15 5 11 -6 15 -54 17 l-60 3 69 56
c38 31 79 71 92 89 l23 33 -142 -5 -142 -5 38 39 c31 32 35 40 23 48 -8 5 -19
10 -25 10 -5 0 12 21 37 48 25 26 55 62 67 81 16 28 21 31 26 19 6 -15 -42
-117 -66 -143 -31 -32 29 -34 67 -2 28 24 34 58 21 107 -4 14 -3 32 2 40 8 12
14 9 33 -15 66 -85 120 -145 129 -145 6 0 28 38 50 85 l40 86 18 -23 c10 -13
26 -48 35 -78 l16 -55 -68 -65 c-37 -36 -96 -89 -130 -118 -34 -29 -67 -62
-73 -74 -11 -20 -10 -20 56 -13 36 4 89 4 116 0 41 -6 48 -9 38 -21 -10 -12
-2 -14 50 -14 71 0 83 17 14 22 l-46 3 61 62 c34 34 62 66 62 71 0 11 -44 117
-61 145 -8 14 -7 23 4 35 8 10 24 34 35 54 l19 38 28 -43 c30 -45 75 -97 85
-97 4 0 25 23 48 52 51 62 92 184 92 274 0 58 -1 60 -35 78 -19 11 -47 34 -61
53 -14 19 -43 41 -65 50 l-40 16 3 61 c4 84 25 86 63 6 36 -76 54 -92 97 -88
l33 3 0 169 c0 140 -3 170 -15 177 -8 4 -35 17 -60 29 -25 11 -58 29 -75 39
-16 10 -40 22 -53 26 l-22 6 20 -51 c15 -38 20 -74 20 -145 0 -52 -4 -95 -9
-95 -5 0 -18 8 -29 18 -15 13 -22 40 -32 117 -6 55 -20 122 -30 150 -37 101
-36 104 8 55 22 -25 43 -42 47 -39 3 4 2 30 -3 58 -7 37 -6 49 2 42 6 -5 42
-21 80 -35 38 -15 84 -35 101 -46 18 -11 37 -20 44 -20 33 0 -15 165 -52 179
-41 16 -60 48 -65 109 -4 54 -3 56 12 35 9 -12 29 -51 45 -87 16 -35 39 -69
50 -76 l21 -11 0 956 0 955 -27 0 c-52 0 -100 20 -146 60 l-45 40 29 -138 c16
-75 34 -150 39 -167 5 -16 14 -75 20 -130 6 -55 13 -108 16 -117 3 -10 3 -18
0 -18 -2 0 -19 37 -36 83 -18 45 -61 134 -96 197 -35 64 -64 123 -64 132 0 9
-16 40 -37 69 -20 30 -57 86 -83 124 -86 128 -102 123 -44 -15 55 -132 81
-213 104 -315 29 -134 26 -152 -10 -86 -17 30 -36 62 -43 70 -8 9 -25 39 -39
67 -59 114 -106 189 -115 180 -10 -10 30 -172 59 -234 29 -64 68 -169 68 -181
0 -3 -22 40 -49 95 -84 176 -163 278 -229 298 -12 4 -43 23 -68 42 -25 20 -47
34 -49 32 -2 -2 12 -39 31 -82 32 -72 84 -233 84 -259 0 -5 -13 8 -29 29 -29
40 -71 82 -71 71 0 -3 8 -28 19 -54 41 -106 37 -111 -29 -35 -34 39 -78 82
-98 96 -38 25 -92 49 -98 43 -2 -2 1 -19 7 -38 8 -27 28 -219 23 -219 -1 0
-18 14 -39 30 -21 17 -55 35 -75 41 -36 11 -38 14 -44 65 -3 29 -17 83 -30
119 -13 36 -22 65 -21 65 1 0 22 -11 46 -24 24 -14 61 -28 82 -31 42 -8 47 2
22 45 -18 31 -18 40 -2 40 24 0 123 -52 176 -92 39 -30 52 -35 48 -22 -3 11
-8 33 -12 51 -3 17 -22 69 -41 113 l-34 82 35 -6 36 -7 -24 46 c-17 35 -33 51
-65 65 -23 11 -42 17 -42 16 0 -2 11 -24 25 -47 14 -24 25 -47 25 -51 0 -11
-56 -10 -102 1 -53 12 -186 140 -265 254 -34 50 -61 93 -59 95 11 10 77 -32
121 -78 28 -29 66 -62 85 -74 46 -30 147 -86 155 -86 3 0 -10 24 -29 53 -18
28 -60 97 -92 152 -32 55 -77 120 -99 144 -32 36 -35 42 -15 31 14 -7 39 -23
57 -36 44 -33 47 -30 17 16 -15 22 -25 42 -23 44 12 10 208 -110 264 -162 50
-47 74 -62 112 -70 26 -6 49 -9 52 -7 9 10 -56 100 -145 198 l-98 107 -108 0
c-59 0 -108 -2 -108 -4 0 -3 4 -16 9 -29 l9 -24 -45 11 c-30 6 -48 16 -51 28
-2 10 -8 18 -14 18 -10 0 7 -36 22 -45 25 -15 6 -22 -27 -10 -86 30 -226 45
-238 25 -3 -5 36 -51 87 -102 l93 -93 -42 -3 c-24 -2 -43 -5 -43 -6 0 -5 67
-118 85 -143 9 -14 39 -29 76 -39 56 -16 64 -22 95 -70 19 -29 34 -56 34 -59
0 -3 14 -34 31 -68 55 -111 55 -108 6 -101 -23 4 -60 20 -81 35 -22 16 -41 27
-44 25 -2 -3 5 -25 17 -50 11 -25 17 -46 14 -46 -3 0 -26 15 -52 34 -57 42
-148 83 -224 101 -71 17 -76 44 40 -232 11 -27 -161 -9 -178 19 -5 7 -9 28 -9
47 0 20 -8 44 -19 55 -10 12 -26 43 -35 70 -20 62 -13 69 72 61 65 -6 71 -2
47 29 -25 34 -19 49 18 43 49 -7 238 -77 269 -98 36 -26 41 -24 24 9 -7 15
-28 62 -45 106 -39 98 -59 126 -118 165 -54 36 -113 41 -183 16 -23 -8 -44
-15 -45 -15 -1 0 -21 25 -44 55 l-41 55 26 6 c15 4 78 4 141 1 l113 -6 -40 59
c-22 33 -58 74 -80 91 -42 34 -44 49 -5 49 12 0 25 7 29 15 4 12 -6 15 -56 15
-60 0 -61 0 -44 -19 17 -19 17 -20 -21 -30 -21 -6 -63 -15 -93 -22 -59 -12
-90 -25 -90 -37 0 -5 25 -33 55 -62 56 -56 64 -70 43 -70 -7 0 -30 -5 -52 -11
-37 -10 -38 -12 -33 -47 3 -20 9 -47 12 -59 6 -20 -1 -24 -83 -50 l-89 -29 26
-49 c15 -28 34 -69 43 -92 l16 -42 67 34 c36 19 77 35 91 35 13 0 24 3 24 8 0
4 -18 42 -41 86 -22 43 -39 80 -37 81 2 2 38 10 81 18 l78 15 24 -48 c14 -27
27 -67 31 -89 6 -37 4 -41 -14 -41 -12 0 -24 -4 -27 -10 -3 -5 -24 -10 -47
-10 -39 0 -40 -1 -35 -29 7 -31 -5 -41 -46 -41 -30 0 -127 -46 -127 -61 0 -6
18 -49 40 -96 23 -47 40 -86 38 -87 -2 -2 -33 -19 -70 -40 -55 -30 -68 -42
-68 -61 0 -20 -5 -25 -25 -25 -31 0 -76 20 -69 31 3 5 20 9 37 9 53 0 59 9 46
71 -6 30 -20 75 -31 102 l-20 47 -139 0 c-124 0 -139 2 -148 18 -9 17 -17 18
-72 10 -35 -4 -64 -10 -67 -12 -2 -2 1 -13 7 -23 8 -17 5 -21 -25 -32 -35 -13
-188 -51 -203 -51 -4 0 -15 17 -23 39 l-15 38 52 17 c28 9 84 16 124 16 40 0
71 3 69 8 -2 4 -16 34 -32 67 -15 33 -32 68 -37 78 -15 28 -3 33 36 14 20 -9
51 -17 70 -17 32 0 37 -5 70 -65 l37 -65 63 0 c34 0 82 7 105 15 23 8 53 15
66 15 13 0 24 3 24 8 0 4 -20 48 -44 97 -24 50 -43 91 -41 93 2 2 28 7 59 11
31 4 59 11 63 14 4 4 -3 21 -15 37 -25 34 -27 40 -10 40 7 0 52 19 100 42 l87
41 -17 29 c-23 39 -72 98 -81 98 -4 0 -28 -14 -53 -30 -29 -19 -65 -33 -95
-37 -49 -5 -49 -5 -88 43 -21 27 -40 51 -41 53 -5 5 -134 -51 -140 -61 -3 -5
6 -24 20 -43 14 -18 26 -38 26 -42 0 -5 -24 -23 -53 -41 -40 -24 -65 -32 -100
-32 l-47 0 35 -46 c20 -26 43 -60 51 -76 15 -29 18 -30 62 -24 44 6 80 18 160
52 40 17 38 23 -43 105 -57 57 -57 59 -34 67 51 20 120 42 129 42 10 0 106
-138 99 -143 -2 -2 -28 -14 -57 -27 -29 -13 -51 -29 -48 -34 2 -6 7 -18 10
-26 4 -10 -12 -26 -52 -50 -69 -43 -76 -46 -129 -54 -39 -7 -43 -6 -57 23 -14
26 -22 30 -54 29 -20 0 -54 3 -76 7 -36 7 -38 7 -28 -11 9 -18 6 -19 -55 -16
-35 2 -100 -1 -144 -7 -75 -10 -82 -9 -109 11 -28 21 -30 21 -75 4 -25 -10
-45 -21 -45 -25 0 -3 11 -23 25 -43 l25 -38 46 35 c25 19 52 35 59 35 33 0
134 -151 122 -182 -3 -8 -30 -20 -61 -27 l-56 -13 31 -39 c18 -23 28 -44 23
-48 -5 -5 -30 -16 -56 -26 -26 -10 -53 -24 -59 -31 -17 -21 -24 -17 -37 20
-21 56 -36 62 -77 30 l-37 -28 -54 62 c-30 33 -63 64 -74 67 -11 4 -18 11 -14
16 6 10 70 39 85 39 4 0 37 -27 71 -59 l64 -59 39 24 c22 13 50 24 63 24 12 0
22 2 22 4 0 11 -57 105 -78 128 l-25 27 -41 -21 c-22 -11 -53 -29 -68 -39 -14
-11 -31 -19 -37 -19 -14 0 -81 43 -81 51 0 4 21 12 47 20 31 8 61 27 86 53
l39 39 -23 19 c-13 10 -57 39 -98 63 l-74 44 57 28 c31 15 56 30 56 33 0 3
-23 19 -50 36 l-51 31 46 13 c32 9 84 11 163 8 183 -8 184 -6 63 81 -56 41
-117 77 -134 81 -23 6 -7 8 58 10 50 1 98 5 108 9 17 6 16 8 -7 19 -16 7 -26
20 -26 32 0 20 -6 20 -274 20 -263 0 -274 -1 -279 -19z m1197 -791 c14 -43 26
-82 26 -85 0 -3 -14 -5 -30 -5 -17 0 -47 -9 -67 -20 -20 -10 -39 -17 -43 -15
-4 2 -10 29 -13 59 -3 31 -11 71 -18 90 -7 20 -11 38 -8 41 7 6 112 22 121 18
4 -2 18 -39 32 -83z m-386 -62 c11 -29 23 -63 26 -75 9 -29 50 -28 209 2 38 7
39 7 35 -21 -3 -26 -9 -30 -55 -40 -28 -6 -79 -13 -112 -16 -53 -4 -61 -2 -61
13 0 27 -18 33 -45 15 -32 -21 -32 -21 -39 17 -3 19 -20 55 -36 80 l-30 47 33
14 c49 22 54 20 75 -36z m1264 -7 c13 -5 42 -24 64 -42 22 -19 70 -45 107 -59
l67 -25 0 -57 c0 -50 3 -60 24 -73 13 -9 32 -34 41 -57 8 -22 26 -54 39 -72
12 -17 31 -50 41 -73 10 -24 21 -43 26 -43 4 0 11 30 15 67 6 61 -4 159 -23
210 -5 14 -1 13 19 -5 14 -13 35 -49 46 -80 46 -127 109 -378 112 -447 1 -21
33 51 51 114 12 40 19 97 19 146 0 84 -16 290 -25 322 -3 10 13 -20 35 -66 22
-46 43 -96 47 -110 3 -14 17 -51 29 -81 l23 -55 1 41 c0 44 -35 194 -55 234
-7 14 -15 39 -19 55 l-7 30 30 -35 c40 -46 71 -129 71 -191 0 -35 4 -51 15
-55 8 -4 25 -38 37 -78 28 -90 28 -186 -2 -276 -13 -39 -23 -103 -27 -160 l-5
-95 52 80 c122 189 135 235 126 429 -4 83 -11 176 -15 206 -5 30 -7 56 -6 58
1 1 26 -46 56 -105 l54 -107 0 -116 c0 -130 -15 -188 -71 -281 -32 -54 -43
-102 -26 -113 15 -9 92 132 104 191 16 78 13 331 -6 473 -8 63 -13 116 -11
118 4 5 45 -106 45 -122 0 -8 7 -19 15 -26 7 -6 17 -33 20 -58 3 -26 13 -80
22 -119 15 -70 15 -75 -6 -135 -12 -35 -29 -85 -38 -113 -8 -27 -28 -89 -44
-137 -37 -111 -37 -153 -3 -189 36 -38 43 -131 19 -252 -10 -49 -15 -100 -12
-115 3 -15 2 -35 -2 -46 -6 -14 -15 -1 -40 58 -19 42 -37 76 -41 76 -4 0 -13
-20 -19 -45 -18 -73 -21 -69 -77 115 -9 30 -33 87 -53 126 l-36 70 3 -66 c4
-70 -21 -186 -57 -265 -10 -22 -21 -47 -24 -55 -3 -10 -7 -7 -11 10 -4 15 2
63 15 115 24 97 35 244 45 600 3 133 2 219 -5 235 -8 20 -10 5 -10 -68 -1 -70
-6 -102 -20 -130 -15 -30 -82 -112 -143 -177 -6 -6 -9 -1 -7 15 4 48 -1 100
-10 100 -6 0 -25 -25 -43 -55 -46 -78 -58 -78 -58 -3 0 34 -11 102 -24 152
-14 50 -29 107 -34 126 -8 30 -10 32 -17 15 -4 -11 -21 -49 -37 -85 -18 -40
-33 -94 -38 -140 -5 -41 -16 -104 -24 -140 -35 -146 -13 -348 52 -477 l30 -58
16 38 c28 69 40 133 62 352 l8 70 7 -65 c7 -68 46 -186 57 -175 4 4 12 23 17
42 l10 36 44 -94 c24 -52 55 -117 68 -146 22 -45 23 -55 13 -90 l-12 -39 -67
128 c-63 121 -81 147 -81 113 0 -8 -17 -59 -37 -112 -21 -54 -40 -123 -43
-153 l-5 -55 -29 74 -29 74 -15 -28 c-10 -20 -15 -64 -16 -144 -1 -105 1 -120
23 -161 19 -35 26 -66 30 -145 7 -113 21 -146 61 -143 36 3 47 -7 54 -45 3
-19 13 -42 22 -53 14 -17 15 -11 11 71 -4 69 -14 120 -46 219 -23 72 -40 141
-39 155 3 17 10 -2 22 -54 18 -74 23 -84 73 -131 41 -39 57 -64 69 -105 20
-66 78 -162 146 -240 50 -58 52 -59 61 -37 5 13 6 74 2 137 -5 92 -13 136 -41
224 -20 60 -34 110 -32 113 8 7 78 -124 84 -157 3 -19 7 -43 9 -54 3 -12 19
-31 36 -44 l32 -24 -7 54 c-4 30 -10 65 -13 79 -4 18 3 13 24 -20 37 -55 59
-77 143 -139 70 -52 71 -53 56 -144 -7 -47 -7 -48 28 -62 31 -13 36 -20 42
-61 9 -65 -1 -161 -25 -225 -12 -30 -21 -62 -21 -71 0 -38 -18 -15 -35 45 -15
56 -38 97 -54 97 -10 0 -62 -87 -70 -115 -6 -25 -8 -23 -51 37 -25 35 -54 80
-64 100 -18 35 -18 39 -2 62 9 14 16 30 16 35 0 12 -53 101 -60 101 -3 0 -13
-21 -22 -47 l-17 -48 31 -32 31 -32 -44 -96 c-24 -53 -47 -99 -52 -102 -4 -2
-15 1 -24 9 -12 10 -17 10 -20 1 -5 -13 -122 79 -191 149 -40 42 -42 46 -34
83 l8 39 109 -122 c121 -133 122 -134 132 -34 3 31 14 74 25 95 11 22 18 40
16 42 -2 1 -20 10 -41 20 -21 10 -50 35 -65 57 -15 22 -48 64 -74 94 l-47 53
-6 -32 c-6 -28 -53 -156 -60 -165 -2 -2 -37 24 -78 57 -41 34 -78 61 -81 61
-3 0 -10 -18 -16 -41 -13 -49 -17 -47 -98 55 l-55 69 -41 -82 -41 -82 -46 51
c-25 27 -51 50 -57 50 -8 0 -12 -23 -12 -67 -1 -64 -2 -67 -15 -43 -8 14 -15
36 -15 50 -2 53 -64 167 -132 245 -51 57 -50 83 2 91 22 4 54 17 72 30 57 42
59 38 56 -109 -2 -100 1 -140 11 -160 8 -15 18 -27 23 -27 14 0 9 235 -8 416
-16 170 -16 172 5 233 11 33 21 78 22 99 l0 37 31 -65 c41 -89 76 -203 83
-274 4 -32 10 -54 15 -50 4 5 12 86 18 181 9 140 16 185 37 245 32 90 28 113
-30 203 -42 63 -45 73 -45 134 0 86 22 180 73 316 l42 110 7 -95 c4 -52 10
-140 14 -194 4 -60 2 -126 -4 -165 -18 -105 -26 -251 -14 -251 6 0 13 24 17
53 4 28 16 115 27 192 40 283 40 378 0 493 -23 65 -32 74 -33 36 0 -16 -4 -38
-9 -49 l-9 -20 -1 20 c-1 31 -38 107 -68 139 -25 26 -110 71 -118 63 -2 -2 -8
-44 -13 -93 -9 -83 -25 -149 -40 -167 -4 -4 -22 24 -41 63 -18 38 -49 84 -67
102 l-33 32 0 -52 c0 -29 -3 -52 -6 -52 -4 0 -22 14 -41 30 -31 27 -40 30
-104 30 l-70 0 3 27 c3 24 9 29 48 36 48 8 123 5 154 -8 18 -8 19 -4 13 93 -4
56 -5 102 -2 102 2 0 28 -19 57 -43 53 -43 120 -87 132 -87 3 0 6 13 6 29 0
22 -8 34 -33 50 -19 11 -53 45 -78 76 -28 36 -51 55 -65 55 -18 0 -24 10 -38
68 -9 37 -19 74 -22 83 -4 15 4 16 63 11 75 -6 131 -32 137 -66 3 -11 13 -72
23 -135 l19 -114 35 -13 c60 -20 135 -81 158 -126 l20 -42 -6 155 c-4 94 -10
157 -17 161 -6 4 -28 8 -49 8 -51 0 -86 20 -137 77 -40 45 -58 77 -74 131 -8
25 6 29 46 13z m-422 -90 c0 -21 3 -59 6 -84 l6 -45 114 5 114 6 0 -34 0 -35
-66 4 c-48 3 -76 0 -105 -13 l-39 -18 0 -92 c0 -107 2 -105 -95 -105 -74 0
-75 1 -75 122 l0 76 -57 6 c-200 18 -193 16 -193 42 0 31 -20 31 -89 -1 -30
-14 -55 -24 -56 -23 -1 2 -9 39 -18 83 l-15 80 26 23 c22 18 37 22 77 20 l50
-3 7 -55 c14 -103 9 -97 90 -105 129 -11 178 -24 178 -46 0 -16 7 -19 43 -19
23 0 59 -3 80 -6 l37 -7 0 42 c0 46 -3 47 -53 26 -20 -8 -52 -15 -71 -15 -42
0 -49 15 -44 105 3 60 3 60 48 83 24 12 57 22 72 22 26 0 28 -3 28 -39z m-870
-71 c0 -24 8 -25 38 -4 12 8 26 13 31 10 5 -4 15 -46 21 -96 l13 -89 26 13
c14 7 49 16 76 20 28 4 67 9 88 12 l37 6 0 -41 c0 -35 -3 -41 -21 -41 -45 0
-134 -34 -161 -61 -16 -16 -29 -39 -29 -56 -1 -15 -7 10 -13 57 l-12 85 -32
-49 c-30 -47 -32 -56 -33 -140 l0 -91 -15 40 c-10 25 -13 55 -9 80 8 52 5 298
-3 307 -8 8 -91 -93 -118 -143 -10 -19 -21 -52 -24 -74 -5 -35 -7 -30 -14 42
-8 82 -8 82 25 134 49 75 129 124 129 79z m2530 -1055 c0 -71 7 -173 15 -225
8 -52 15 -99 15 -104 0 -17 -42 28 -67 72 -25 42 -25 48 -20 165 3 67 11 155
18 195 12 66 14 70 26 50 8 -15 12 -68 13 -153z m-1377 34 c4 -28 15 -67 27
-86 11 -19 20 -36 20 -39 0 -2 -18 -1 -40 2 -32 5 -40 4 -40 -9 0 -31 13 -47
37 -47 61 0 102 -62 83 -128 -18 -65 -27 -71 -45 -30 -8 21 -15 40 -15 42 0 3
-11 31 -25 61 -22 51 -26 55 -45 45 -11 -6 -20 -20 -20 -30 0 -26 -16 -26 -30
-1 -13 26 1 62 36 90 l27 21 -25 28 c-55 59 -63 105 -20 120 58 22 69 17 75
-39z m-160 -218 c15 -37 33 -131 40 -206 2 -20 -4 -22 -37 -9 -17 7 -18 3 -14
-52 6 -79 25 -118 61 -122 25 -3 27 0 27 30 0 19 -6 57 -14 86 -7 29 -9 55 -5
58 5 3 11 -7 15 -21 9 -37 39 -50 70 -30 22 14 57 61 68 90 6 18 18 -3 23 -42
5 -39 4 -40 -76 -109 l-80 -69 -1 -61 c0 -90 -9 -124 -31 -124 -25 0 -24 -8 3
-37 20 -21 22 -35 23 -126 0 -56 -4 -120 -9 -142 l-8 -40 -13 37 c-8 20 -30
63 -50 94 -39 61 -39 61 -71 8 -10 -17 -16 -14 -60 32 -54 55 -108 80 -155 70
-28 -5 -40 6 -19 19 16 10 12 22 -7 22 -10 -1 -38 0 -63 1 l-45 2 3 100 c3 71
-1 113 -11 145 -9 25 -14 45 -11 45 2 0 25 -32 50 -71 45 -68 47 -71 79 -65
25 5 34 3 39 -10 9 -23 7 -89 -3 -117 -8 -22 -7 -23 15 -19 58 11 115 -8 167
-56 l49 -47 -6 110 c-10 146 -10 200 -1 262 8 57 -3 102 -51 207 l-27 59 -33
-64 c-58 -114 -55 -186 12 -272 21 -26 35 -50 32 -52 -3 -3 -28 0 -57 6 -29 6
-63 8 -76 5 -26 -7 -28 0 -70 163 -18 72 -15 86 11 42 23 -39 53 -50 70 -26 7
10 18 43 24 74 11 56 28 99 56 136 13 17 16 18 25 5 14 -22 54 35 55 80 1 19
7 55 13 79 l13 44 22 -39 c12 -21 30 -59 39 -83z m1050 -158 c9 -21 26 -69 38
-108 12 -38 28 -83 36 -100 16 -34 23 -41 -61 56 -21 24 -36 36 -33 27 13 -38
28 -100 24 -104 -2 -2 -22 15 -45 38 -56 55 -68 96 -49 168 l15 55 12 -30 c7
-16 19 -48 26 -70 14 -39 14 -39 9 33 -7 80 3 92 28 35z m-1645 -289 c52 -39
71 -72 72 -123 0 -41 24 -71 57 -71 12 0 23 -4 23 -10 0 -61 -135 -153 -154
-104 -4 11 0 28 12 44 43 57 37 92 -28 170 -32 39 -40 56 -40 89 0 22 3 41 6
41 3 0 26 -16 52 -36z m252 -264 c0 -5 -7 -13 -15 -17 -8 -5 -30 -43 -50 -85
-20 -44 -42 -79 -52 -81 -67 -18 -76 -18 -68 0 4 10 18 52 32 93 13 41 29 80
35 87 12 15 118 18 118 3z m299 -164 c37 -67 71 -94 87 -71 9 12 18 6 53 -38
24 -28 50 -70 60 -92 10 -22 22 -51 28 -65 10 -24 12 -22 47 50 20 41 36 81
36 90 0 8 16 -9 35 -37 47 -70 55 -73 55 -19 0 24 4 56 10 70 l9 26 67 -66
c37 -36 77 -72 90 -81 35 -23 30 -31 -23 -38 -27 -3 -61 -8 -76 -10 -21 -4
-35 2 -53 20 -31 32 -34 31 -34 -3 0 -29 -63 -134 -102 -168 -19 -18 -19 -18
-8 8 11 23 9 32 -16 77 l-29 50 -22 -21 c-22 -20 -24 -21 -36 -4 -7 9 -23 47
-36 84 -33 96 -53 142 -63 142 -4 0 -8 -4 -8 -8 0 -4 -21 -36 -46 -71 l-46
-63 -54 53 c-30 29 -57 62 -60 72 -10 32 75 185 96 172 4 -3 22 -29 39 -59z
m-257 12 c9 -7 37 -39 63 -72 42 -52 46 -61 36 -83 l-11 -24 -26 31 c-31 36
-93 70 -128 70 -14 0 -44 -7 -65 -16 -22 -9 -45 -14 -51 -12 -15 5 49 88 68
88 10 1 28 7 42 15 31 18 52 19 72 3z m993 -149 c22 -12 52 -32 66 -46 27 -24
27 -25 11 -74 -16 -48 -41 -85 -139 -199 -42 -48 -53 -68 -53 -96 l0 -34 -70
0 -71 0 6 53 c10 83 12 89 59 147 25 30 60 81 78 114 26 51 32 71 31 124 0 62
0 63 21 47 11 -8 39 -24 61 -36z"/>
<path d="M5952 2121 c-18 -59 -14 -145 10 -227 11 -41 24 -74 28 -74 13 0 30
78 30 140 0 60 -35 200 -50 200 -4 0 -12 -17 -18 -39z"/>
<path d="M5221 1764 c-1 -6 -12 -91 -26 -188 -35 -248 -32 -342 17 -441 11
-22 23 -63 28 -92 10 -57 48 -126 80 -143 19 -10 23 -6 43 37 19 42 22 64 21
178 -1 117 -4 140 -32 229 -18 54 -32 113 -32 130 0 53 -27 149 -64 227 -19
41 -35 69 -35 63z"/>
<path d="M5926 1023 c-3 -10 -6 -78 -8 -151 l-2 -132 39 -27 c22 -14 56 -41
76 -60 30 -28 38 -32 47 -20 20 24 52 128 52 168 0 34 -5 41 -45 69 -25 17
-50 41 -57 54 -7 13 -32 44 -55 70 -34 39 -42 44 -47 29z"/>
<path d="M3818 4013 c12 -8 22 -19 22 -23 0 -12 -65 -22 -188 -29 l-114 -6 79
-63 c43 -34 96 -79 118 -99 l40 -36 -30 6 c-16 3 -59 8 -95 12 l-65 6 31 -29
32 -30 -101 0 c-101 -1 -135 -5 -196 -24 -29 -9 -32 -13 -19 -22 8 -6 39 -31
68 -56 29 -25 60 -49 68 -54 9 -5 89 -10 179 -10 l162 -1 -22 25 c-12 14 -46
52 -77 84 -32 34 -47 56 -35 52 26 -10 175 -21 175 -13 0 4 -16 17 -36 31
l-36 24 59 17 c57 16 163 72 163 86 0 4 -30 33 -67 65 -72 60 -83 74 -61 74 7
1 27 7 43 15 29 13 27 13 -45 14 -71 0 -74 -1 -52 -16z"/>
<path d="M4010 4017 c0 -7 21 -23 48 -34 26 -12 59 -29 73 -39 25 -16 27 -16
65 10 28 19 51 26 86 26 49 0 61 13 36 38 -18 18 -308 17 -308 -1z"/>
<path d="M5630 3913 c65 -65 131 -137 148 -161 17 -25 57 -60 91 -80 34 -20
100 -73 148 -117 101 -93 163 -142 163 -128 0 5 -14 47 -31 94 -44 121 -108
233 -184 321 l-66 77 46 -14 c25 -7 51 -17 58 -23 25 -18 99 -43 91 -30 -17
30 -53 62 -106 94 -37 23 -60 44 -64 60 -6 22 -11 24 -72 24 -62 0 -65 -1 -45
-15 12 -8 35 -32 51 -53 l30 -38 -56 7 c-32 3 -83 13 -114 22 -32 9 -83 24
-113 32 -35 10 -55 21 -55 30 0 8 -8 15 -18 15 -13 0 20 -39 98 -117z"/>
<path d="M5980 4022 c0 -5 24 -24 53 -42 28 -19 83 -58 121 -87 38 -29 78 -53
88 -53 10 0 37 -17 61 -39 39 -35 77 -61 91 -61 3 0 6 65 6 145 l0 145 -210 0
c-115 0 -210 -4 -210 -8z"/>
<path d="M2215 3874 c-19 -26 -35 -50 -35 -53 0 -4 19 -12 43 -18 23 -6 55
-16 70 -22 l29 -11 -61 -67 c-34 -37 -61 -70 -61 -74 0 -6 46 -26 120 -54 19
-8 54 -16 77 -19 42 -6 43 -5 69 36 15 24 40 58 58 76 l31 34 -40 -2 c-76 -4
-93 3 -183 66 -2 1 10 23 28 49 18 26 30 48 28 50 -6 6 -120 55 -129 55 -4 0
-24 -21 -44 -46z"/>
<path d="M1928 3858 c-33 -46 -60 -89 -56 -92 21 -13 186 -86 195 -86 11 0 69
74 92 117 9 19 9 22 -3 17 -23 -9 -97 16 -142 47 -24 16 -47 29 -52 29 -5 0
-20 -15 -34 -32z"/>
<path d="M5337 3769 c28 -41 73 -113 102 -160 49 -84 53 -87 94 -93 23 -4 63
-20 87 -36 25 -17 52 -30 61 -30 9 0 35 -15 59 -32 87 -67 80 -65 65 -15 -15
49 -67 158 -97 199 -12 18 -31 29 -56 33 -102 16 -284 112 -312 165 -6 11 -20
25 -32 31 -15 8 -7 -10 29 -62z"/>
<path d="M227 3792 c-31 -20 -74 -49 -95 -63 -20 -14 -58 -38 -84 -53 l-48
-27 0 -95 c0 -92 1 -94 20 -84 12 6 42 38 67 70 25 33 56 66 68 74 11 8 26 32
33 53 6 21 32 65 57 97 61 79 62 79 -18 28z"/>
<path d="M6120 3822 c0 -4 18 -29 40 -56 22 -26 45 -66 52 -88 8 -26 22 -47
40 -58 15 -9 46 -42 69 -73 22 -31 49 -62 60 -67 19 -11 20 -8 17 87 l-3 98
-61 30 c-33 17 -78 44 -100 61 -49 38 -114 76 -114 66z"/>
<path d="M5650 3715 c0 -21 43 -85 57 -85 9 0 47 -18 85 -41 37 -22 72 -39 78
-37 12 4 -54 138 -77 156 -16 11 -143 18 -143 7z"/>
<path d="M2108 3484 c-43 -92 -41 -104 10 -104 12 0 39 -7 59 -15 19 -8 62
-15 94 -15 62 0 68 -4 46 -34 -12 -17 -26 -18 -152 -14 l-138 5 -18 -42 c-10
-23 -24 -66 -30 -95 -10 -48 -10 -55 7 -67 24 -18 108 -17 144 2 16 9 50 18
75 21 43 6 45 8 64 60 11 29 23 65 27 79 9 34 23 39 81 26 44 -9 50 -8 66 10
9 12 17 25 17 29 0 4 -27 10 -60 14 -33 4 -60 10 -60 14 0 4 14 31 30 60 24
41 36 52 56 52 48 0 170 68 152 85 -2 3 -20 0 -39 -5 -18 -6 -50 -10 -70 -10
-31 0 -38 -4 -49 -31 -13 -31 -14 -31 -68 -25 -41 5 -71 17 -115 46 -33 22
-66 40 -74 40 -8 0 -31 -36 -55 -86z"/>
<path d="M2575 3513 c-29 -7 -34 -13 -70 -96 -38 -88 -38 -87 65 -87 39 0 83
-7 105 -16 20 -8 38 -14 39 -12 1 2 14 28 29 58 14 30 42 72 61 93 30 33 32
38 17 46 -20 11 -217 22 -246 14z"/>
<path d="M1711 3411 c-5 -9 -11 -29 -15 -46 -4 -16 -16 -39 -27 -51 -10 -11
-22 -41 -25 -66 l-6 -46 45 5 c28 4 64 -1 97 -12 l52 -17 -5 -39 c-5 -38 -4
-39 31 -45 21 -4 50 -13 66 -21 24 -12 30 -13 37 -1 16 25 9 34 -56 69 -36 18
-65 38 -65 42 0 4 11 29 24 55 13 26 31 64 39 85 l16 37 -48 24 c-26 14 -71
29 -99 34 -45 8 -54 7 -61 -7z"/>
<path d="M1640 3117 c-19 -10 -29 -28 -43 -81 -10 -37 -16 -74 -13 -81 3 -9
34 -13 107 -14 56 -1 107 -4 111 -7 5 -3 6 -26 2 -51 l-7 -46 74 7 c84 9 89
11 89 35 0 15 14 20 83 29 45 7 103 12 130 12 45 0 47 -1 47 -29 0 -35 62 -95
108 -105 l29 -7 2 -229 c0 -125 5 -239 10 -252 5 -13 21 -38 36 -56 15 -18 40
-56 57 -84 l30 -53 -6 117 -6 117 47 108 48 108 3 -60 c1 -33 5 -71 8 -84 5
-21 8 -19 39 30 29 46 35 51 41 34 4 -11 20 -53 37 -94 l30 -74 26 50 c14 28
42 72 61 97 l35 47 16 -37 c8 -21 18 -34 21 -28 9 15 41 125 48 169 7 35 8 31
9 -30 2 -89 23 -180 60 -252 l28 -57 32 44 c112 154 89 459 -47 619 l-28 34
-18 -44 c-10 -24 -23 -89 -30 -144 l-12 -100 -12 58 c-12 60 -47 122 -63 112
-5 -4 -9 -25 -10 -48 0 -23 -4 -60 -8 -82 -8 -37 -9 -38 -10 -9 -2 56 -30 116
-89 187 l-57 71 -6 -110 c-8 -138 -8 -134 -17 -134 -4 0 -18 18 -32 40 -14 22
-28 40 -32 40 -5 0 -8 -24 -9 -52 0 -29 -4 -75 -9 -103 -7 -46 -7 -47 -9 -13
-3 82 -38 112 -159 139 l-52 11 0 42 c0 42 -2 44 -51 70 -28 14 -59 26 -70 26
-22 0 -23 13 -7 91 11 57 13 58 50 64 27 5 46 2 63 -9 33 -22 45 -20 45 7 0
27 -57 57 -109 57 -27 0 -32 -4 -38 -31 l-6 -32 -69 6 c-56 5 -80 2 -120 -14
-28 -11 -59 -17 -69 -14 -17 6 -19 0 -19 -69 l0 -76 -45 0 c-26 0 -58 6 -74
14 -27 15 -27 15 -23 98 l4 83 -30 18 c-35 20 -116 22 -152 4z"/>
<path d="M2371 2984 c-6 -32 -11 -70 -11 -85 0 -31 -6 -29 115 -49 39 -6 80
-18 92 -26 21 -13 22 -12 27 19 3 17 10 59 16 91 5 33 10 61 10 63 0 2 -19 3
-42 3 -42 1 -146 21 -179 34 -13 6 -18 -4 -28 -50z"/>
<path d="M3369 2927 c-55 -69 -69 -97 -93 -194 -31 -123 -33 -192 -5 -294 20
-73 69 -169 86 -169 10 1 58 111 74 170 8 27 13 118 13 230 1 160 -2 192 -18
238 -11 28 -22 52 -25 51 -4 0 -18 -15 -32 -32z"/>
<path d="M1553 2944 c-7 -3 -46 -39 -88 -81 -58 -59 -75 -82 -75 -104 0 -24
-7 -32 -42 -50 -24 -12 -55 -30 -71 -41 -31 -22 -73 -99 -85 -155 l-9 -38 -13
58 -14 59 -23 -69 c-14 -42 -25 -106 -30 -168 -7 -111 -17 -100 -29 30 -4 41
-16 89 -29 115 -13 25 -29 64 -36 88 -14 47 -22 42 -33 -23 -4 -22 -16 -67
-26 -101 -10 -33 -22 -98 -25 -143 -9 -95 -13 -94 -75 3 l-38 60 -7 -60 -8
-59 -54 60 c-83 91 -93 116 -93 237 -1 85 -3 100 -13 83 -14 -24 -16 -272 -3
-525 7 -144 35 -324 62 -400 3 -8 20 19 41 65 19 44 49 107 66 141 l31 61 -18
127 c-10 70 -15 130 -13 133 7 7 48 -86 54 -124 3 -17 0 -54 -7 -82 -7 -30 -9
-68 -5 -93 l7 -42 19 37 c25 47 48 149 50 212 2 68 5 48 29 -150 16 -143 50
-295 66 -295 2 0 17 27 34 60 42 84 60 167 61 295 l1 110 28 -193 c16 -107 31
-196 33 -198 3 -3 8 8 12 23 6 26 9 21 36 -50 22 -61 31 -106 39 -215 18 -228
22 -264 25 -260 3 2 9 37 15 78 13 87 41 177 81 264 l28 61 1 -45 c1 -25 9
-65 19 -88 l17 -44 13 41 c14 48 24 51 41 12 16 -39 64 -84 85 -79 18 3 29 17
40 52 4 14 9 16 17 8 8 -8 8 -21 0 -49 -6 -21 -14 -59 -17 -85 -4 -27 -11 -48
-16 -48 -9 0 -112 89 -141 121 -16 19 -17 18 -23 -23 -30 -216 -45 -531 -25
-543 5 -3 17 6 26 20 14 21 16 47 13 162 -3 91 0 137 7 140 6 2 30 -10 55 -27
29 -19 57 -30 81 -30 33 0 37 -3 40 -27 l3 -28 25 25 25 25 -30 5 c-34 6 -43
27 -44 112 -1 55 0 57 27 60 40 4 62 55 62 142 0 66 -1 68 -18 53 -27 -24 -35
-21 -28 11 4 15 10 59 15 97 5 48 19 93 42 138 l33 68 12 -33 c7 -18 13 -54
13 -79 1 -35 7 -51 25 -68 23 -22 25 -22 34 -4 6 10 12 16 14 13 38 -52 59
-97 69 -150 18 -100 42 -115 92 -58 l29 33 -6 -40 c-3 -22 -16 -76 -28 -120
l-23 -80 -65 -7 c-36 -3 -75 -9 -87 -13 -32 -10 -29 4 10 56 50 66 57 83 57
144 0 44 -7 70 -36 127 l-36 71 -36 -79 c-41 -90 -51 -169 -32 -238 10 -37 9
-56 -4 -114 -9 -39 -16 -102 -16 -140 0 -52 -5 -75 -18 -93 -62 -80 -86 -152
-62 -189 7 -12 12 -11 31 5 12 11 37 44 56 73 18 28 37 52 41 52 11 0 70 -100
77 -132 4 -16 11 -28 15 -28 5 0 34 29 65 65 62 70 79 76 133 49 59 -29 66
-17 31 56 -17 36 -40 75 -51 87 l-20 22 60 -5 61 -4 -14 32 c-13 32 -15 33
-81 36 l-67 3 17 -25 c9 -14 16 -27 16 -28 0 -2 -27 -1 -59 0 l-60 4 -63 -61
c-58 -57 -64 -60 -76 -44 -27 37 -26 63 4 95 42 43 98 69 157 71 l52 2 -3 72
-4 72 34 -5 c41 -6 47 -1 82 59 15 27 29 47 30 45 2 -2 -2 -48 -7 -103 -13
-140 1 -170 66 -146 20 8 26 20 36 72 12 68 20 81 85 127 l43 31 6 -40 c3 -22
8 -43 10 -46 8 -7 67 26 72 40 2 7 6 36 9 65 l5 54 -24 -16 c-14 -9 -36 -23
-49 -32 l-24 -15 5 43 c3 24 16 67 30 96 23 49 44 64 58 42 16 -26 54 -8 104
49 50 58 59 83 42 124 -6 16 -20 5 -90 -68 -75 -78 -85 -86 -111 -80 -42 9
-138 121 -123 143 5 10 46 49 91 87 92 80 162 172 162 213 -1 15 -7 41 -15 57
-13 29 -13 28 -14 -39 -1 -64 -4 -72 -36 -112 -30 -36 -47 -47 -103 -64 -44
-12 -78 -30 -96 -49 -25 -26 -27 -32 -17 -67 9 -35 7 -45 -24 -108 -41 -80
-42 -92 -13 -123 l22 -24 -41 -41 -41 -40 20 57 19 57 -55 54 c-33 33 -56 49
-59 41 -3 -7 -6 -2 -6 11 -1 13 -6 32 -11 42 -15 28 -41 176 -43 242 l-2 56
-27 -31 c-15 -18 -49 -74 -75 -124 -27 -51 -51 -93 -55 -93 -5 0 -8 15 -8 34
0 19 -9 65 -21 102 -21 68 -21 68 -39 46 -22 -27 -30 -28 -30 -4 0 31 -40 83
-75 98 -35 14 -51 54 -21 54 41 0 87 -32 108 -75 12 -25 25 -45 28 -45 14 0
60 107 60 138 0 17 5 32 10 32 10 0 35 49 61 119 7 19 25 49 40 65 14 17 32
48 39 70 11 34 10 40 -6 55 -19 18 -126 51 -164 51 -16 0 -20 7 -20 33 -1 48
-17 109 -32 118 -18 12 -91 11 -125 -2 -15 -5 -43 -24 -60 -42 l-33 -31 0 64
0 65 -32 -39 c-18 -22 -47 -66 -64 -99 l-31 -59 -11 28 c-20 50 -32 117 -32
181 0 62 0 63 38 82 20 11 60 38 87 60 l50 41 3 -95 c3 -94 3 -95 24 -84 13 7
55 10 109 7 l89 -4 0 52 c0 28 3 64 6 80 5 25 1 31 -29 48 -37 19 -132 25
-176 11 -23 -7 -24 -6 -19 39 6 46 4 49 -19 40z m22 -488 c8 -31 15 -78 16
-104 0 -26 4 -56 9 -67 7 -18 10 -16 24 17 9 21 16 46 16 56 0 26 26 47 80 66
62 22 90 21 90 -3 0 -12 9 -21 25 -25 37 -9 65 -42 65 -74 0 -16 -13 -43 -32
-67 -32 -38 -32 -38 -39 -14 -4 13 -8 44 -8 69 -2 80 -9 91 -50 88 -26 -2 -39
-10 -49 -28 -15 -29 -10 -116 8 -150 11 -20 17 -22 60 -16 l47 6 7 -37 c12
-74 9 -80 -21 -51 -36 33 -77 54 -139 69 -27 7 -59 24 -72 38 l-25 26 18 -35
c20 -38 34 -170 18 -170 -5 0 -18 7 -29 15 -32 24 -54 19 -54 -14 0 -27 4 -30
50 -41 67 -16 66 -36 -5 -123 -21 -25 -38 -37 -56 -37 -32 0 -48 -18 -87 -95
-27 -52 -31 -56 -32 -32 0 43 29 96 62 113 36 19 67 84 68 142 0 40 -1 42 -31
42 -17 0 -58 -12 -91 -27 -72 -32 -80 -27 -86 57 -4 48 1 78 22 138 14 42 35
112 46 155 28 111 32 117 58 72 22 -36 22 -36 3 -73 -14 -28 -20 -64 -22 -134
-4 -113 3 -128 64 -128 l40 0 -7 58 c-4 31 -9 84 -12 117 -3 33 -12 76 -21 97
-14 33 -14 39 1 65 8 15 22 46 31 67 8 22 18 37 20 34 3 -3 12 -31 20 -62z
m-346 -84 c33 -88 45 -132 62 -247 13 -84 3 -135 -40 -188 -15 -20 -35 -51
-42 -69 l-14 -33 -6 75 c-4 41 -10 105 -14 141 -9 78 4 425 15 412 4 -4 22
-46 39 -91z m391 -554 c25 -41 25 -60 0 -89 l-19 -24 -1 26 c0 30 -23 54 -43
46 -12 -5 -33 -48 -67 -142 l-12 -30 -13 25 c-17 31 -19 81 -4 114 10 22 27
32 82 50 10 3 17 15 17 31 0 37 35 33 60 -7z"/>
<path d="M3188 2885 c-9 -16 -18 -48 -22 -70 -8 -53 9 -282 24 -320 l12 -30
13 35 c7 19 15 103 19 185 6 134 4 154 -12 190 l-19 40 -15 -30z"/>
<path d="M2095 2860 c-11 -5 -48 -9 -82 -9 l-63 -1 0 -101 0 -101 93 7 c80 6
95 5 107 -10 7 -9 31 -25 52 -36 30 -15 38 -25 39 -47 0 -15 13 -65 29 -112
l28 -85 21 47 c13 27 22 71 24 110 l2 63 -52 3 -51 3 -6 57 c-3 31 -9 91 -12
133 -6 76 -6 77 -36 83 -40 8 -68 7 -93 -4z"/>
<path d="M1790 2632 c0 -25 5 -30 31 -36 17 -3 44 -6 59 -6 15 0 41 -5 59 -11
46 -16 96 -128 127 -283 31 -156 32 -234 2 -272 l-22 -28 31 19 c23 14 42 41
72 104 70 152 91 218 91 288 0 104 -33 135 -155 147 -107 11 -113 13 -127 57
l-11 39 -56 0 c-31 0 -66 3 -78 6 -20 6 -23 3 -23 -24z"/>
<path d="M4315 2560 c-80 -7 -102 -17 -139 -61 -20 -24 -26 -41 -26 -81 0 -94
113 -369 167 -403 28 -18 28 -18 11 2 -40 44 -7 336 50 450 43 85 47 103 25
102 -10 -1 -49 -5 -88 -9z"/>
<path d="M3192 2420 c-6 -19 -18 -62 -27 -95 -9 -33 -30 -76 -47 -97 l-29 -38
24 -32 c43 -57 72 -265 44 -314 -13 -23 -84 -104 -91 -104 -6 0 -34 79 -38
104 -2 15 -14 3 -45 -45 -40 -60 -43 -62 -43 -34 0 17 9 47 20 68 24 44 26
110 5 160 -18 43 -20 136 -4 171 9 19 8 29 -5 47 -9 13 -16 41 -16 62 0 35
-37 137 -50 137 -5 0 -42 -72 -85 -162 -10 -21 -22 -38 -26 -38 -4 0 -13 17
-20 38 -20 63 -24 60 -30 -28 -4 -65 -7 -79 -14 -60 -5 14 -24 54 -43 90 -19
36 -42 79 -51 97 -9 18 -19 32 -22 33 -3 0 -13 -24 -22 -52 -14 -45 -15 -89
-11 -297 3 -134 10 -255 15 -268 l9 -24 28 19 c15 11 36 29 46 41 27 30 36 26
36 -14 0 -29 -9 -46 -46 -85 -46 -50 -46 -50 -40 -104 7 -51 5 -57 -22 -86
-22 -22 -31 -44 -36 -83 -9 -66 -24 -88 -75 -112 l-41 -18 0 -94 0 -93 23 14
c12 9 42 22 65 30 70 25 96 49 110 103 7 26 30 77 51 113 21 36 46 86 56 112
9 26 26 55 37 65 19 17 20 17 34 -2 8 -11 17 -30 21 -42 7 -29 14 -29 43 2
l23 24 -27 41 c-30 46 -38 48 -59 18 -14 -22 -16 -20 -63 75 l-49 99 36 31
c20 18 43 49 50 69 11 33 11 44 -4 85 -17 49 -25 233 -9 233 13 -1 115 -190
115 -215 0 -28 -62 -115 -98 -139 -42 -28 -32 -95 27 -178 l19 -28 47 54 47
54 12 -28 c10 -24 50 -58 57 -48 28 45 53 78 58 78 4 0 14 -12 22 -27 8 -16
37 -50 65 -78 l51 -49 -41 -42 -41 -42 16 -62 c28 -107 16 -166 -41 -201 l-36
-23 32 -11 33 -11 -61 -12 c-80 -17 -131 -59 -131 -108 0 -37 -3 -39 -47 -23
-29 10 -31 13 -26 52 3 23 10 50 15 60 13 26 69 47 123 47 39 0 46 3 41 18
-16 53 -17 76 -6 122 7 28 28 74 47 102 31 45 34 53 23 77 -31 69 -110 150
-110 113 0 -4 -18 -29 -40 -55 l-39 -48 29 -53 c43 -76 40 -103 -13 -126 -23
-10 -65 -24 -92 -30 -27 -6 -55 -16 -62 -21 -9 -8 -10 -4 -3 23 14 48 12 58
-11 58 -39 0 -57 -19 -69 -72 -6 -29 -20 -62 -31 -74 -26 -27 -19 -84 10 -84
29 0 48 22 67 80 l19 55 5 -88 c5 -81 7 -91 32 -112 15 -13 33 -25 40 -27 11
-4 11 -8 0 -21 -10 -12 -11 -21 -2 -37 15 -28 12 -31 -34 -20 -49 11 -89 49
-116 111 -22 52 -35 58 -84 39 -36 -13 -33 -33 19 -102 48 -64 57 -110 33
-163 -15 -33 -36 -32 -86 4 l-40 30 15 43 c20 55 21 111 4 132 -9 10 -29 16
-59 16 l-45 0 5 -44 c3 -27 18 -63 38 -92 l32 -48 -28 -24 c-22 -19 -25 -26
-13 -33 63 -43 120 -56 139 -34 10 12 23 15 54 10 49 -8 174 -51 191 -65 27
-23 34 91 10 160 -8 24 -14 45 -11 47 2 2 15 -1 30 -7 15 -5 37 -10 48 -10 21
0 21 9 3 53 -7 16 2 17 100 17 l107 0 -30 -25 c-23 -19 -41 -25 -78 -25 -79 0
-81 -5 -31 -106 l43 -89 28 44 c15 24 30 56 33 72 4 21 12 28 35 31 17 3 35
-1 43 -8 11 -11 15 -11 25 1 7 9 29 15 51 15 37 0 39 -2 39 -30 0 -17 13 -53
28 -80 l28 -49 44 89 c24 49 40 93 36 97 -4 5 -34 9 -67 10 -47 1 -65 6 -90
27 l-31 26 95 0 c53 0 103 3 113 7 14 5 16 2 12 -18 -3 -13 -9 -33 -13 -43 -8
-17 -5 -19 38 -14 46 5 47 5 40 -21 -3 -14 -10 -36 -14 -49 -12 -31 -11 -59 2
-105 10 -36 11 -37 27 -19 18 20 121 62 152 62 10 0 30 4 44 10 25 9 25 10 10
45 -20 50 -9 96 36 152 61 73 60 98 -4 113 l-37 8 -23 -51 c-32 -71 -80 -114
-135 -123 -42 -7 -43 -6 -32 15 7 12 9 31 6 42 -6 17 -12 20 -45 14 -37 -6
-38 -5 -44 28 -3 18 -16 43 -29 54 -29 27 -91 53 -131 54 l-31 1 28 10 29 10
-31 19 c-53 32 -65 60 -58 142 3 40 11 86 17 102 l12 30 33 -38 c59 -68 87
-206 49 -238 -14 -12 -14 -14 3 -20 10 -4 39 -8 64 -8 60 -1 99 -30 99 -74 0
-51 12 -63 50 -47 47 20 63 59 58 150 -1 43 0 76 4 74 3 -2 14 -28 23 -57 25
-79 78 -115 91 -62 7 30 18 31 52 5 14 -11 45 -25 68 -31 24 -6 50 -19 59 -29
15 -16 13 -18 -24 -24 -61 -9 -74 -28 -66 -95 8 -63 21 -94 38 -88 6 2 24 24
40 50 27 44 29 54 34 191 l6 144 -41 21 c-51 26 -68 51 -76 116 -4 33 -14 58
-31 75 -20 21 -25 37 -25 81 -1 51 -4 57 -50 108 -28 30 -52 53 -54 50 -2 -2
-23 -42 -46 -88 -38 -77 -43 -82 -58 -67 -15 15 -13 21 21 85 48 89 48 109 -4
151 -43 34 -99 113 -99 138 0 8 28 65 63 126 l62 110 7 -49 c11 -88 8 -134
-12 -195 -19 -57 -19 -62 -4 -102 10 -24 29 -56 43 -71 l26 -28 8 26 c7 21 4
34 -18 65 -31 45 -41 106 -27 165 10 39 10 38 11 -26 1 -92 28 -147 97 -204
31 -25 61 -45 67 -45 9 0 9 -2 0 -8 -6 -4 -14 -27 -17 -52 -6 -43 -4 -47 43
-97 53 -57 76 -64 111 -35 20 16 21 19 6 31 -15 13 -14 15 7 30 79 53 118 88
124 110 l6 24 18 -24 c16 -20 20 -22 29 -9 5 8 10 29 10 46 0 38 -39 69 -113
91 -34 10 -66 29 -94 56 -36 34 -43 48 -44 82 -1 22 -4 54 -8 70 -7 30 -7 29
-20 -17 l-13 -46 41 -60 c22 -33 66 -82 97 -110 l58 -50 -50 5 c-27 2 -70 9
-96 14 -26 6 -57 8 -69 4 -21 -7 -22 -7 -15 96 14 230 11 391 -9 449 -10 30
-21 48 -23 40 -3 -8 -25 -51 -50 -94 -25 -44 -54 -107 -63 -140 l-18 -61 0 97
c-1 104 -12 129 -32 73 -17 -45 -30 -40 -49 16 -8 24 -28 69 -44 99 l-29 54
-23 -49 c-13 -27 -24 -65 -24 -84 0 -20 -8 -49 -17 -66 -12 -23 -16 -52 -14
-120 2 -63 -2 -101 -13 -127 -22 -51 -20 -79 9 -148 36 -87 31 -92 -20 -20
-44 62 -45 63 -45 32 0 -17 -7 -49 -15 -70 -15 -38 -15 -40 11 -80 25 -39 29
-41 48 -29 12 8 28 27 36 43 l14 30 49 -59 49 -59 -31 -43 c-37 -52 -37 -55
-8 -83 l22 -21 24 50 23 51 27 -26 c15 -14 33 -43 40 -63 8 -21 30 -67 51
-103 47 -84 62 -123 58 -152 l-3 -23 -27 27 c-16 15 -28 35 -28 45 0 10 -5 34
-10 55 -9 32 -15 37 -49 43 -30 5 -44 15 -62 43 -26 39 -49 52 -49 28 0 -15
13 -30 53 -58 9 -7 21 -28 26 -46 9 -31 9 -32 -17 -26 -54 11 -128 36 -149 50
-30 19 -29 38 7 102 l29 53 -46 57 c-25 31 -47 59 -49 61 -8 9 -56 -45 -82
-89 -14 -25 -27 -47 -30 -50 -2 -3 -19 13 -37 34 l-33 40 50 55 c79 87 79 90
19 157 l-51 58 0 75 c1 100 21 192 55 242 l27 41 -27 28 c-19 20 -36 59 -55
127 -27 98 -27 98 -38 63z"/>
<path d="M2300 2288 c0 -33 -8 -61 -50 -178 -7 -19 -20 -57 -30 -85 -15 -44
-22 -52 -56 -63 -82 -27 -104 -72 -103 -204 1 -145 5 -147 78 -41 79 116 92
129 183 191 76 51 98 82 98 136 0 12 -27 80 -60 151 -52 113 -60 125 -60 93z"/>
<path d="M2329 1223 c-74 -81 -87 -128 -49 -176 11 -14 20 -35 20 -46 0 -32
-59 -29 -100 5 -17 15 -32 25 -34 23 -2 -2 10 -44 28 -94 l31 -90 103 1 c56 0
106 4 112 10 6 6 -2 25 -20 53 -54 80 -72 144 -68 248 2 51 3 93 2 93 0 0 -12
-12 -25 -27z"/>
<path d="M3169 856 c-51 -61 -64 -96 -63 -176 0 -83 13 -117 63 -164 l31 -30
25 24 c71 67 88 204 36 295 -16 28 -37 57 -47 66 -18 15 -21 14 -45 -15z"/>
<path d="M3401 658 c16 -58 11 -113 -16 -152 l-24 -36 37 -1 c20 0 75 -15 122
-33 47 -19 88 -32 93 -29 12 7 8 53 -9 115 -15 51 -22 61 -50 73 -19 8 -53 27
-76 43 -24 16 -53 34 -65 40 -21 12 -21 11 -12 -20z"/>
<path d="M1840 470 c0 -85 6 -103 60 -183 16 -24 46 -77 65 -118 21 -43 34
-61 31 -44 -8 38 -26 155 -35 221 -5 36 -16 62 -43 95 -19 24 -43 59 -52 77
-9 17 -19 32 -21 32 -3 0 -5 -36 -5 -80z"/>
<path d="M4541 520 c-7 -14 -30 -47 -51 -75 -21 -29 -39 -67 -43 -90 -3 -22
-11 -69 -16 -105 -24 -145 -25 -141 16 -65 21 39 55 97 76 131 37 59 38 63 35
145 -3 77 -4 82 -17 59z"/>
<path d="M2360 469 c-100 -40 -115 -155 -31 -244 35 -37 87 -138 96 -188 7
-35 9 -37 47 -37 l40 0 -29 37 c-49 63 -103 149 -103 164 0 8 11 61 25 119 21
86 24 109 14 132 -12 30 -20 32 -59 17z"/>
<path d="M4810 298 c-23 -28 -47 -63 -55 -77 -16 -32 -35 -130 -35 -183 l0
-38 105 0 104 0 47 46 c50 50 114 131 114 143 0 4 -21 4 -47 0 -62 -10 -273
-11 -273 -1 0 7 34 69 72 130 30 48 14 39 -32 -20z"/>
<path d="M1576 295 c15 -27 36 -63 46 -80 10 -16 18 -33 18 -37 0 -11 -126
-10 -235 2 -49 5 -91 8 -93 5 -8 -8 24 -53 82 -114 l61 -64 -55 6 c-30 4 -69
3 -85 -2 -19 -5 43 -9 172 -9 l201 0 -4 56 c-11 124 -41 198 -105 257 l-32 30
29 -50z"/>
<path d="M313 298 c-5 -7 -22 -43 -37 -81 -32 -76 -33 -72 44 -144 l45 -42
-43 -1 c-65 0 -49 -24 18 -28 47 -3 52 -1 41 12 -13 15 -9 17 92 30 39 6 142
-15 159 -32 7 -7 38 -12 71 -12 52 0 58 2 47 15 -11 13 2 15 110 15 l122 0
-19 24 c-10 13 -37 48 -60 78 -52 69 -73 74 -258 69 l-90 -2 89 -84 88 -85
-55 0 c-52 0 -58 2 -82 35 -15 19 -57 59 -95 89 -37 30 -91 78 -119 105 -29
28 -54 51 -55 51 -2 0 -8 -6 -13 -12z"/>
<path d="M72 245 c-52 -33 -53 -34 -30 -46 13 -6 39 -27 59 -44 20 -18 51 -36
69 -40 39 -9 46 -25 26 -64 -9 -16 -16 -35 -16 -41 0 -16 47 -12 54 5 3 8 13
15 23 15 13 0 11 6 -12 30 -26 27 -27 31 -15 60 12 28 11 33 -14 58 -14 15
-36 42 -48 61 -13 19 -27 35 -33 37 -5 1 -34 -13 -63 -31z"/>
<path d="M2150 199 c0 -77 3 -88 33 -139 25 -42 39 -56 60 -58 26 -3 27 -1 21
25 -6 26 -100 242 -110 252 -2 2 -4 -34 -4 -80z"/>
<path d="M6223 238 c-15 -24 -35 -52 -45 -64 -15 -17 -16 -25 -6 -51 10 -28 9
-34 -17 -64 -27 -33 -28 -34 -7 -37 12 -2 22 -8 22 -13 0 -5 11 -9 25 -9 29 0
32 21 10 60 -16 30 -4 50 31 50 13 0 41 15 61 33 21 19 49 41 63 50 13 9 19
17 13 17 -6 0 -34 16 -62 35 -28 19 -53 35 -56 35 -2 0 -17 -19 -32 -42z"/>
<path d="M4182 157 c-59 -129 -64 -157 -29 -157 18 0 32 14 60 62 31 53 37 71
36 118 -1 104 -10 101 -67 -23z"/>
<path d="M2725 237 c-15 -55 0 -124 39 -182 l36 -55 130 0 131 0 -12 23 c-7
12 -24 40 -38 62 -14 22 -26 41 -26 42 -1 2 -37 8 -81 14 -82 13 -111 31 -156
99 l-16 25 -7 -28z"/>
<path d="M3642 218 c-40 -58 -68 -73 -148 -81 -74 -8 -90 -13 -98 -35 -3 -9
-17 -32 -31 -51 -14 -19 -25 -38 -25 -42 0 -5 60 -9 133 -9 l134 0 33 51 c39
60 50 108 41 169 l-6 45 -33 -47z"/>
</g>
</svg>
