<?xml version="1.0" standalone="no"?>
<!DOCTYPE svg PUBLIC "-//W3C//DTD SVG 20010904//EN"
 "http://www.w3.org/TR/2001/REC-SVG-20010904/DTD/svg10.dtd">
<svg version="1.0" xmlns="http://www.w3.org/2000/svg"
 width="360.000000pt" height="504.000000pt" viewBox="0 0 360.000000 504.000000"
 preserveAspectRatio="xMidYMid meet">
<metadata>
Created by potrace 1.11, written by Peter Selinger 2001-2013
</metadata>
<g transform="translate(0.000000,504.000000) scale(0.100000,-0.100000)"
fill="#000000" stroke="none">
"M0 5020 c0 -19 7 -20 160 -20 l160 0 2 -82 c2 -46 3 -137 3 -203 l0 -120 173 -3 172 -2 0 -210 0 -210 -170 0 -170 0 0 -205 c0 -157 -3 -205 -12 -206 -7 -1 -82 -1 -165 1 l-153 2 0 -211 0 -211 73 -1 c39 0 112 -1 162 -2 l90 -2 3 -207 2 -208 -165 0 -165 0 0 -210 0 -210 165 0 165 0 0 -211 0 -211 168 3 167 3 3 -204 c1 -116 -2 -206 -7 -209 -5 -3 -81 -5 -170 -3 l-161 3 0 203 c0 111 -2 205 -4 207 -2 2 -77 3 -165 1 l-161 -3 0 -210 0 -210 165 7 165 7 0 -212 0 -211 -165 0 -165 0 0 -210 0 -210 165 0 165 0 0 -44 0 -44 55 29 c31 16 79 36 108 44 l52 14 -107 0 -108 1 0 210 0 210 170 0 170 0 0 -194 0 -194 -32 -11 c-18 -5 -42 -12 -53 -14 -11 -3 1 -5 27 -6 26 0 49 -5 53 -10 6 -11 -29 -33 -60 -37 -83 -13 -185 -57 -237 -103 l-37 -32 -3 42 -3 43 -98 -100 c-71 -71 -107 -116 -128 -161 -28 -59 -32 -63 -65 -63 l-34 0 0 -132 c0 -132 8 -159 20 -70 8 52 27 132 43 175 8 22 15 27 43 27 29 0 36 5 55 42 25 50 86 128 100 128 5 0 23 15 39 33 l29 32 1 -117 0 -118 -94 0 c-52 0 -97 -4 -100 -8 -11 -19 -67 -251 -73 -305 -4 -43 -9 -57 -19 -53 -8 4 -21 9 -29 12 -11 5 -15 -1 -15 -25 l0 -31 159 0 159 0 7 205 7 205 167 2 166 3 3 196 c2 186 3 197 22 202 14 4 20 0 20 -12 0 -27 9 -30 38 -16 41 20 75 34 97 38 11 3 -24 5 -77 6 -123 1 -130 17 -22 50 56 17 82 20 102 13 15 -5 44 -7 65 -4 32 4 37 1 37 -16 0 -13 -10 -24 -27 -30 l-28 -10 26 -1 c15 -1 29 -7 31 -14 2 -6 2 -101 0 -209 l-4 -198 -137 0 -138 0 -5 -181 c-3 -100 -3 -192 0 -205 4 -24 5 -24 143 -24 l139 0 2 203 3 202 102 3 103 3 0 -206 0 -205 80 0 80 0 0 205 0 205 65 0 65 0 0 -205 0 -205 50 0 50 0 0 205 0 205 -50 0 -50 0 2 208 3 207 50 0 50 0 1 -195 c1 -107 2 -201 3 -208 1 -9 14 -12 44 -10 l42 3 1 190 c0 105 2 197 2 206 2 15 16 17 105 15 56 0 87 -2 69 -4 -25 -3 -32 -8 -30 -20 5 -26 48 -28 55 -3 7 27 39 27 46 1 6 -23 37 -27 37 -5 0 9 -10 20 -22 25 l-23 9 23 0 c19 1 22 6 22 41 0 29 4 40 15 40 10 0 15 10 15 30 0 20 -5 30 -15 30 -13 0 -15 20 -13 137 2 86 7 137 13 136 6 -2 12 -20 14 -40 3 -31 5 -34 11 -18 5 12 9 -38 9 -122 1 -78 -3 -144 -8 -147 -5 -3 -11 -24 -13 -45 -3 -34 0 -42 24 -56 21 -12 28 -24 28 -46 0 -19 -5 -29 -15 -29 -13 0 -15 -25 -15 -165 0 -103 -4 -165 -10 -165 -6 0 -10 -75 -10 -205 0 -130 4 -205 10 -205 6 0 10 75 10 205 0 176 2 205 15 205 13 0 15 -29 15 -205 l0 -205 25 0 25 0 0 205 0 205 25 0 25 0 0 -167 c0 -93 3 -185 6 -205 6 -34 10 -38 36 -38 l28 0 -2 203 -3 202 -32 3 -33 3 0 170 0 169 -25 0 -25 0 0 -170 0 -170 -25 0 -25 0 0 165 0 165 25 6 c16 4 25 13 25 25 0 29 48 26 52 -3 2 -18 11 -24 36 -26 30 -3 33 -1 30 20 -2 18 -9 23 -33 23 -23 1 -31 6 -33 23 -3 19 1 22 27 22 16 0 33 -5 37 -12 4 -6 6 -100 5 -209 l-2 -198 38 -3 c36 -3 38 -5 39 -38 0 -19 1 -110 2 -202 l2 -168 45 0 45 0 2 203 3 202 48 3 47 3 0 210 0 209 -50 0 -50 0 0 -213 0 -213 -47 6 -48 5 0 205 0 205 45 1 45 0 3 54 c4 60 -6 72 -53 63 -39 -8 -45 -18 -45 -74 l0 -46 -37 6 c-38 6 -38 7 -41 58 l-3 52 43 3 c38 3 43 6 46 30 3 24 25 41 48 37 44 -8 45 -4 42 118 l-3 118 -49 0 -49 0 6 -123 c7 -123 7 -123 -16 -122 -57 5 -66 1 -69 -32 -2 -21 -9 -34 -18 -34 -8 -1 -21 -2 -27 -3 -9 -1 -13 -18 -13 -51 0 -47 -2 -50 -25 -50 -16 0 -25 -6 -25 -15 0 -22 -37 -18 -61 6 -15 15 -19 30 -17 60 4 54 22 50 26 -6 3 -41 6 -45 28 -45 24 0 25 3 22 48 -3 42 -5 47 -25 44 -20 -3 -23 1 -23 27 0 23 5 30 22 33 22 3 23 7 26 130 2 121 2 127 -19 133 -22 7 -22 4 -3 113 4 17 10 32 15 32 5 0 9 11 9 25 0 20 -5 25 -25 25 -25 0 -25 1 -25 88 0 53 5 93 12 100 8 8 8 15 -1 25 -9 12 -7 14 14 14 l25 1 0 -113 c0 -91 3 -114 15 -119 20 -7 19 -33 0 -44 -20 -11 -18 -146 3 -148 6 -1 17 -2 22 -3 6 -1 10 -50 10 -126 l0 -125 -25 0 c-21 0 -25 -5 -25 -30 0 -25 4 -30 25 -30 21 0 25 5 25 29 0 25 5 31 30 36 l30 7 0 118 0 119 38 3 37 3 3 83 3 83 37 -6 c63 -11 62 -9 62 -89 l0 -74 50 0 50 -1 0 210 0 209 64 0 c59 0 65 2 68 22 2 13 2 -29 0 -92 -3 -63 -8 -116 -13 -118 -12 -5 -11 -32 1 -32 6 0 10 -40 10 -101 l0 -100 -62 2 -63 3 -3 -114 c-2 -78 1 -116 9 -121 6 -3 36 -5 65 -2 53 5 54 4 54 -21 0 -26 1 -26 80 -26 l80 0 0 30 c0 23 5 30 19 30 19 0 31 44 45 173 l6 47 -34 0 c-19 0 -37 -6 -39 -12 -4 -10 -6 -10 -6 0 -1 6 -12 12 -25 12 -19 0 -26 7 -31 32 -4 18 -16 63 -26 99 -17 55 -23 65 -42 65 -12 -1 -23 6 -25 16 -4 20 50 38 116 38 38 0 42 -2 42 -25 0 -21 -5 -25 -29 -25 -17 0 -32 -3 -35 -8 -4 -6 33 -134 53 -182 3 -8 7 31 9 88 l3 102 29 0 c26 0 30 -4 31 -27 5 -182 3 -168 32 -171 26 -3 27 -6 27 -55 -1 -49 -10 -103 -25 -154 -6 -18 -3 -23 12 -23 40 0 73 -24 73 -53 0 -28 0 -28 -52 -21 -29 4 -58 11 -65 16 -7 5 -22 8 -35 6 -21 -3 -23 -9 -28 -68 l-5 -65 -78 2 -78 1 1 -196 c1 -108 1 -202 1 -209 -1 -8 -24 -13 -63 -15 l-63 -3 -3 -202 -2 -203 71 0 71 0 -2 193 c-1 105 -2 198 -1 205 1 9 14 11 48 7 26 -3 60 -3 75 0 l28 7 0 206 0 207 38 3 c20 1 61 0 89 -3 l53 -6 2 -207 3 -207 100 -3 c54 -2 102 -5 105 -8 3 -3 6 -93 8 -200 l4 -194 129 0 129 0 2 201 3 202 98 -2 97 -2 0 75 c0 41 -5 88 -12 103 -20 45 -75 108 -134 153 -38 30 -54 49 -54 66 0 22 -4 24 -47 24 l-48 0 25 -20 c14 -11 35 -23 48 -26 22 -6 22 -8 22 -189 l0 -183 -132 -1 -133 -1 -3 210 -3 210 88 1 88 1 -45 20 c-25 12 -64 23 -87 26 -40 4 -43 7 -43 36 0 28 -5 33 -40 44 -22 6 -46 12 -54 12 -7 0 -37 7 -65 17 l-51 16 0 124 0 123 105 0 105 0 0 -150 0 -150 28 -6 c54 -11 167 -49 170 -56 2 -5 9 -8 15 -8 6 0 21 -10 34 -22 l23 -21 0 206 0 207 100 0 100 0 0 210 0 210 -100 0 -100 0 2 208 3 207 98 -3 97 -3 0 213 0 213 -100 3 -100 3 0 -210 0 -211 -135 0 -135 0 0 210 0 209 123 -1 c67 0 128 0 135 1 9 1 12 49 12 206 l0 205 100 0 100 0 0 210 0 210 -100 0 -100 0 -2 -207 -3 -208 -132 -1 -133 -1 0 208 0 208 133 3 132 3 3 208 2 207 100 0 100 0 0 210 0 210 -100 0 -100 0 -1 178 c-1 97 -2 191 -3 207 l-1 30 -132 3 -133 3 0 204 0 205 136 0 137 0 -5 -205 -5 -205 103 0 104 0 0 225 0 225 -1800 0 c-1793 0 -1800 0 -1800 -20z m950 -225 l0 -205 105 0 105 0 0 205 0 205 80 0 80 0 0 -205 0 -205 65 0 65 0 0 205 0 205 53 0 52 0 0 -202 0 -203 45 0 45 0 -4 203 -3 202 46 0 46 0 0 -204 c0 -186 2 -204 18 -208 41 -11 42 -5 42 208 l0 204 30 0 30 0 0 -205 c0 -198 1 -205 20 -205 12 0 20 -7 20 -17 0 -10 1 -103 2 -208 1 -188 1 -190 -20 -193 -22 -3 -22 -7 -22 -168 0 -157 1 -164 20 -164 19 0 20 7 21 138 1 75 2 142 4 147 1 6 3 18 3 28 1 9 9 17 17 17 13 0 15 29 15 205 0 192 -1 205 -19 215 -19 9 -20 23 -21 210 0 194 0 200 20 200 19 0 20 -6 20 -205 0 -130 4 -205 10 -205 6 0 10 -77 10 -210 0 -133 -4 -210 -10 -210 -6 0 -10 -62 -10 -165 0 -160 -1 -165 -21 -165 -15 0 -20 -5 -17 -22 4 -30 38 -37 38 -9 0 12 5 21 10 21 6 0 10 62 10 165 0 138 3 167 15 171 13 5 15 39 15 215 0 179 -2 209 -15 209 -13 0 -15 29 -15 205 0 176 2 205 15 205 13 0 15 -29 15 -205 0 -176 2 -205 15 -205 13 0 15 29 15 205 l0 205 25 0 25 0 0 -205 0 -205 25 0 25 0 0 205 0 205 28 0 29 0 7 -197 c4 -108 3 -200 -1 -204 -4 -4 -19 -9 -33 -11 l-25 -3 -3 -207 -2 -207 32 -3 33 -3 0 -140 c1 -206 -1 -195 40 -195 l35 0 0 170 0 170 45 0 45 0 0 -180 c0 -136 3 -182 13 -184 6 -3 31 -7 55 -10 l42 -6 0 190 0 190 65 0 65 0 2 208 3 207 78 3 77 3 0 204 0 205 90 0 90 0 0 -205 0 -205 105 0 105 0 0 -210 0 -209 133 -3 132 -3 3 -207 2 -208 -135 0 -135 0 0 -210 0 -210 -105 0 -105 0 0 -205 c0 -215 1 -209 -45 -207 -11 1 -30 -1 -41 -3 -20 -5 -22 -13 -30 -182 -5 -98 -8 -190 -5 -205 3 -27 5 -28 62 -28 l59 0 0 210 0 210 103 -3 102 -2 3 -207 2 -208 -105 0 -105 0 0 -210 0 -210 105 0 105 0 0 -210 0 -210 135 0 135 0 0 -210 0 -210 -135 0 -135 0 0 210 0 210 -105 0 -105 0 0 -210 0 -210 -30 0 -31 0 6 68 c3 37 8 79 10 94 2 15 0 30 -6 34 -7 4 -8 43 -3 115 6 107 6 109 -15 109 -25 0 -33 -17 -36 -74 -4 -102 -2 -96 -40 -96 l-35 0 0 85 0 85 -49 0 c-48 0 -48 0 -72 49 -13 27 -27 47 -31 45 -4 -3 -8 11 -8 31 0 23 -4 34 -10 30 -6 -4 -18 -1 -27 7 -12 10 -17 10 -20 1 -8 -23 -48 -76 -60 -81 -8 -2 -13 6 -13 20 0 18 -2 20 -10 8 -6 -9 -6 -18 0 -24 6 -6 10 -27 10 -48 0 -35 -2 -38 -29 -38 -24 0 -28 3 -24 20 6 23 -15 28 -35 8 -9 -9 -12 30 -13 175 -1 103 -2 193 -3 200 -1 8 17 13 52 15 41 2 52 7 52 20 0 15 2 15 10 2 6 -10 6 -16 0 -18 -6 -2 -10 -65 -10 -150 l0 -147 35 53 36 53 -26 57 c-19 43 -24 64 -17 81 8 22 10 21 35 -27 15 -29 27 -58 27 -66 0 -7 9 -16 20 -19 19 -5 20 0 20 79 l0 84 -51 0 c-40 0 -49 3 -42 13 7 8 3 28 -13 62 l-24 50 0 -40 c0 -30 -3 -36 -10 -25 -13 20 -13 70 0 70 6 0 10 34 10 81 0 68 -2 80 -14 70 -19 -16 -44 14 -30 37 5 9 9 35 9 57 0 38 -2 40 -32 43 -32 3 -33 3 -33 -38 l0 -42 -20 23 -19 24 0 -30 c-1 -16 8 -41 19 -55 l21 -25 -7 28 c-7 32 11 38 21 6 4 -11 20 -36 37 -55 26 -30 29 -38 20 -62 -15 -41 -38 -137 -41 -176 -1 -4 -8 -6 -16 -3 -8 4 -17 2 -20 -3 -4 -6 -26 -10 -51 -10 l-44 0 0 -199 c0 -135 4 -202 11 -207 8 -4 7 -9 -2 -15 -12 -7 -11 -11 3 -25 17 -18 38 -12 38 12 0 8 9 14 20 14 19 0 19 -2 -5 -40 -14 -23 -23 -45 -20 -50 11 -17 32 -11 43 12 9 19 11 8 11 -58 l1 -81 41 -6 c22 -3 43 -8 46 -10 13 -13 -12 -27 -48 -27 -32 0 -39 4 -39 19 0 38 -93 38 -103 0 -3 -13 -11 -17 -21 -13 -23 9 -20 34 4 34 19 0 20 7 20 100 0 88 -2 100 -19 110 -11 5 -28 7 -38 4 -15 -5 -15 -4 -3 5 8 5 25 8 37 4 14 -3 23 -1 23 6 0 6 -17 11 -37 11 l-38 0 -1 -211 c-1 -126 -6 -215 -12 -221 -5 -5 -18 -8 -28 -6 -18 3 -19 19 -24 213 -5 202 -6 210 -25 210 -19 0 -20 8 -23 208 l-2 207 -25 0 -25 0 0 -205 c0 -188 -1 -205 -17 -206 -17 -1 -17 -2 0 -6 21 -5 23 -43 2 -43 -9 0 -15 9 -15 23 -1 12 0 115 0 229 0 139 -3 207 -10 210 -7 2 -11 70 -11 206 0 167 -3 204 -15 209 -8 3 -14 18 -14 35 0 25 -2 28 -14 19 -12 -10 -15 -7 -18 16 l-3 28 -22 -35 -23 -35 0 140 1 140 24 -28 c22 -25 25 -38 25 -104 0 -66 2 -74 15 -63 12 10 15 10 15 -4 0 -9 7 -16 15 -16 11 0 15 -12 15 -45 0 -25 5 -45 10 -45 6 0 10 -77 10 -210 0 -180 2 -210 15 -210 13 0 15 30 15 210 0 180 -2 210 -15 210 -13 0 -15 21 -15 132 0 118 2 130 15 112 14 -18 14 -18 15 4 0 12 -7 25 -15 28 -11 5 -15 23 -15 70 0 48 4 66 15 70 13 5 15 37 14 208 0 139 -3 194 -10 177 -11 -29 -14 -26 -23 18 -5 28 -4 32 8 21 8 -6 27 -10 43 -8 26 3 28 7 33 58 3 38 8 51 14 41 8 -12 11 -11 23 4 11 17 13 11 13 -43 0 -59 -1 -62 -25 -62 l-25 0 0 -205 0 -205 25 0 25 0 0 205 c0 169 2 205 14 205 9 0 12 7 9 18 -2 10 3 24 11 31 13 11 17 10 25 -10 7 -17 10 10 10 96 l1 120 -18 -30 c-10 -16 -22 -42 -25 -57 -4 -16 -12 -28 -17 -28 -13 0 -13 73 1 87 5 5 21 37 34 69 l25 59 1 -45 c1 -32 3 -37 6 -17 3 16 11 36 19 45 7 9 20 26 28 37 14 18 15 2 16 -155 0 -96 3 -185 6 -197 5 -19 13 -23 49 -23 l44 0 -4 198 c-1 108 -3 203 -4 211 -1 9 -14 12 -46 9 -38 -3 -45 0 -45 14 0 11 -8 19 -20 19 -11 1 -26 2 -32 3 -7 0 -14 11 -16 23 -6 39 -72 42 -72 2 0 -14 -7 -19 -25 -19 -18 0 -25 -5 -25 -20 0 -30 47 -28 52 3 2 18 8 21 33 19 36 -5 39 -7 32 -27 -4 -9 -19 -15 -37 -15 l-30 0 0 -87 0 -88 -22 35 -23 35 -3 -29 -4 -28 -24 23 -24 22 0 -111 c0 -92 2 -110 14 -106 23 9 31 -35 9 -51 -16 -12 -18 -11 -21 6 -3 16 -6 18 -18 8 -12 -10 -14 11 -14 147 1 142 2 157 15 140 14 -19 15 -18 15 15 l0 34 25 -30 24 -30 1 48 c0 44 -2 47 -25 47 -16 0 -25 -6 -25 -16 0 -14 -3 -14 -15 -4 -13 10 -15 9 -15 -11 l-1 -24 -12 23 c-11 19 -13 -11 -13 -183 1 -112 5 -205 9 -205 5 0 5 -5 2 -10 -4 -6 -12 -4 -21 5 -13 13 -15 50 -12 237 2 122 2 214 0 205 -5 -25 -27 -21 -40 8 -6 14 -18 25 -27 25 -8 0 -17 -11 -21 -25 -4 -18 -13 -25 -30 -25 l-24 0 0 -211 c0 -165 3 -209 13 -203 6 4 8 3 4 -2 -4 -4 -24 -7 -43 -5 l-34 3 0 -108 c0 -96 2 -106 14 -88 14 18 15 18 21 1 5 -11 1 -25 -11 -38 -17 -19 -19 -19 -24 -3 -5 14 -14 8 -43 -31 l-37 -48 0 156 0 156 38 3 37 3 3 208 2 207 -39 0 c-39 0 -53 12 -43 38 2 7 21 12 44 12 35 0 39 2 36 23 -2 18 -10 23 -40 25 -35 3 -38 1 -38 -22 0 -19 -5 -26 -20 -26 -11 0 -20 -4 -20 -9 0 -5 -10 -11 -21 -14 -17 -5 -24 1 -32 24 -13 32 -16 33 -69 18 -27 -7 -38 -16 -38 -29 0 -11 -11 -22 -27 -28 l-28 -10 28 -1 27 -1 0 -210 0 -210 50 0 50 0 1 -37 c1 -21 3 -67 4 -103 l3 -65 -44 48 c-26 29 -44 59 -44 73 0 33 -18 30 -23 -3 -2 -16 -2 -2 0 30 l5 57 -50 0 c-40 0 -53 4 -65 23 -13 18 -16 19 -16 5 -1 -27 -18 -22 -43 12 -28 38 -39 38 -58 -3 l-15 -32 -125 -2 c-69 -1 -135 -2 -147 -3 -32 0 -55 -88 -59 -220 -1 -58 -5 -124 -9 -147 -6 -39 -4 -43 14 -43 12 0 21 1 22 3 0 1 4 74 8 162 7 122 13 170 27 200 l19 40 3 -202 2 -203 39 0 c36 0 40 3 49 33 6 17 13 50 17 72 4 22 13 56 22 75 23 55 32 18 18 -76 -13 -92 -19 -104 -45 -104 -13 0 -22 -9 -25 -27 -4 -16 -10 -44 -14 -64 -5 -24 -4 -41 4 -52 20 -28 32 -20 39 26 19 125 14 116 60 119 l41 3 -3 130 c-3 104 -1 136 12 160 9 17 16 39 16 50 1 61 7 65 86 64 66 -1 75 -4 89 -26 24 -35 14 -48 -18 -23 l-27 21 0 -190 0 -191 65 0 65 0 0 141 0 142 42 -54 c64 -80 68 -84 68 -60 0 27 16 27 23 0 3 -12 0 -22 -9 -26 -17 -6 -20 -113 -4 -129 8 -8 -8 -12 -52 -13 -34 -1 -64 -3 -65 -5 -2 -2 -3 -38 -1 -81 l3 -77 27 54 c15 29 39 67 52 83 22 26 25 28 26 10 1 -18 1 -19 11 -2 5 9 21 17 33 17 21 0 24 5 24 35 0 19 -6 39 -14 46 -15 13 -19 49 -5 49 16 0 41 -49 41 -80 0 -16 5 -30 10 -30 6 0 10 -4 10 -10 0 -5 -6 -10 -12 -10 -10 0 -12 -47 -10 -210 l3 -210 29 0 c26 0 29 4 34 43 11 86 13 91 15 37 1 -30 3 -71 5 -90 2 -19 1 -25 -1 -12 -2 12 -8 22 -13 22 -13 0 -20 -28 -20 -78 0 -32 -7 -59 -23 -82 l-22 -35 -3 98 -3 97 -44 0 -45 0 0 -152 c0 -98 4 -148 10 -138 15 24 24 2 10 -27 -10 -24 -13 -25 -19 -11 -5 15 -10 13 -34 -17 -15 -18 -27 -39 -27 -44 0 -21 26 -11 42 17 l17 27 1 -37 0 -38 45 0 45 0 1 -122 c1 -68 4 -113 6 -100 2 12 11 22 18 22 16 0 29 -35 20 -50 -4 -6 -8 -27 -10 -48 -2 -21 -6 -54 -10 -75 -5 -24 -3 -37 4 -38 49 -6 46 -19 49 204 2 195 1 208 -15 205 -13 -2 -18 -13 -19 -38 -2 -83 -3 -86 -19 -70 -10 11 -16 50 -21 140 -6 117 -5 127 15 160 12 19 27 47 33 63 7 15 16 27 20 27 4 0 8 -63 8 -140 l0 -140 30 0 30 0 0 210 c0 205 0 210 -21 210 -19 0 -20 5 -17 108 2 81 0 106 -9 104 -10 -1 -13 24 -13 101 0 99 -1 104 -30 137 -16 19 -29 39 -30 44 0 4 13 24 30 43 l30 34 0 -76 c0 -41 4 -75 9 -75 9 0 13 15 27 93 3 20 10 37 16 37 5 0 7 44 5 108 -3 74 -2 87 2 42 7 -59 9 -65 16 -35 2 6 3 43 4 83 1 65 3 75 21 79 19 5 20 13 19 187 -1 99 -3 173 -6 164 -5 -20 -23 -25 -23 -6 0 6 5 27 12 45 9 24 18 33 34 33 21 0 22 -5 29 -112 4 -62 5 -156 3 -208 -4 -89 -6 -95 -26 -98 -22 -3 -22 -5 -22 -207 l0 -204 -27 -3 -28 -3 -3 -185 c-1 -102 0 -195 3 -207 5 -20 12 -23 51 -23 29 0 43 -4 39 -11 -4 -6 -13 -8 -21 -5 -12 4 -14 -28 -14 -200 l0 -205 23 3 c22 3 22 4 24 193 1 105 3 198 3 208 0 9 7 17 15 17 13 0 15 -30 15 -210 0 -180 -2 -210 -15 -210 -13 0 -15 -28 -16 -187 -2 -212 -2 -194 3 -211 5 -20 -26 -37 -48 -27 -11 5 -27 9 -36 9 -9 1 -20 4 -24 8 -11 11 44 10 65 -1 10 -6 23 -6 32 0 10 6 7 9 -13 9 l-28 0 0 200 0 200 -30 0 -30 0 0 -200 c0 -184 -1 -200 -17 -200 -12 0 -9 -5 11 -15 15 -8 37 -15 47 -15 18 0 19 -9 19 -116 0 -105 2 -115 18 -112 15 3 17 18 20 112 3 103 4 108 23 103 14 -4 20 -1 18 11 -1 9 -1 111 0 225 1 162 4 208 14 205 19 -7 21 -447 1 -455 -11 -4 -14 -26 -14 -95 0 -80 -2 -90 -19 -95 -11 -3 -21 -13 -24 -24 -3 -13 -11 -17 -21 -13 -14 5 -16 -5 -16 -73 0 -72 2 -79 20 -80 18 -2 20 4 20 78 0 72 2 79 20 79 13 0 20 7 20 20 0 11 7 20 15 20 12 0 15 17 15 96 0 61 4 93 10 89 6 -3 10 -46 10 -96 0 -72 3 -89 15 -89 8 0 15 -9 15 -20 0 -11 -7 -20 -15 -20 -8 0 -15 9 -15 20 0 11 -4 20 -10 20 -5 0 -10 -6 -10 -14 0 -8 5 -18 10 -21 6 -3 10 -25 10 -48 1 -41 1 -42 15 -17 l14 25 1 -36 c0 -20 2 -65 4 -100 3 -42 2 -51 -2 -25 -4 22 -13 41 -21 44 -9 3 -11 0 -6 -7 5 -9 1 -9 -14 1 -19 12 -21 20 -17 91 3 56 1 77 -7 74 -7 -2 -14 -36 -17 -83 -4 -61 -8 -79 -20 -79 -13 0 -15 -24 -18 -142 -2 -138 -2 -143 18 -143 28 0 28 -46 0 -55 -15 -5 -20 -15 -20 -41 0 -27 -4 -34 -20 -34 -16 0 -20 7 -20 35 0 19 3 34 8 34 24 -4 32 4 32 31 0 23 -5 30 -19 30 -15 0 -21 -8 -23 -32 -2 -28 -8 -34 -31 -36 -27 -3 -28 -1 -25 30 2 28 7 34 31 36 l28 3 -3 140 c-2 83 -7 139 -13 140 -5 1 -18 5 -27 10 -16 9 -18 29 -18 203 0 175 -2 194 -17 200 -10 3 -24 9 -30 12 -10 4 -13 -22 -13 -115 0 -120 0 -121 25 -127 14 -3 25 -10 25 -15 0 -5 -11 -11 -25 -15 -24 -6 -25 -10 -25 -79 l0 -72 30 3 30 4 0 -150 0 -149 -27 3 -28 3 -5 144 -5 144 -37 3 c-32 3 -38 7 -38 26 0 15 -7 26 -20 29 -17 4 -19 11 -14 51 7 46 7 46 -24 46 -29 0 -30 -2 -34 -48 -6 -91 -2 -101 45 -104 l42 -3 2 -130 c1 -71 2 -136 2 -142 1 -8 16 -13 41 -13 39 0 40 -1 40 -36 0 -33 2 -35 28 -32 24 3 27 -1 30 -30 3 -30 1 -32 -27 -32 -28 0 -31 3 -31 30 0 28 -2 30 -40 30 -39 0 -40 1 -40 35 l0 35 -50 0 c-36 0 -50 -4 -50 -14 0 -29 13 -46 34 -46 49 0 67 -12 64 -39 -3 -23 -8 -26 -45 -29 -42 -3 -43 -2 -43 26 0 35 -10 40 -67 34 -41 -4 -43 -6 -43 -36 l0 -31 -65 3 -65 4 0 -211 0 -211 -80 0 -80 0 0 210 0 210 -105 0 c-58 0 -105 4 -105 8 0 9 88 32 124 32 13 0 37 5 54 11 25 8 31 17 34 42 3 30 5 32 38 28 19 -3 53 -5 75 -5 l40 -1 3 153 3 152 -81 0 -80 0 0 59 0 60 -63 0 -64 0 2 -42 c3 -80 -1 -76 68 -79 34 -2 61 -6 60 -10 -2 -5 -3 -71 -3 -148 l0 -140 -30 0 c-32 0 -37 9 -18 28 8 8 5 19 -15 45 -18 24 -31 61 -44 130 -16 89 -19 97 -40 97 -27 0 -27 -3 -8 -111 19 -99 30 -132 56 -155 29 -26 24 -33 -31 -40 -40 -5 -50 -10 -50 -25 0 -11 -6 -19 -12 -19 -10 0 -13 41 -13 172 l0 173 -142 3 -143 3 0 208 0 209 28 0 c15 -1 88 0 162 2 l135 2 -4 150 c-3 137 -2 150 13 145 12 -5 21 3 33 31 38 89 34 86 101 85 19 0 22 5 22 37 0 21 3 53 6 71 6 31 5 33 -8 15 -22 -28 -32 -4 -17 39 15 40 26 45 31 13 2 -15 15 3 46 64 23 47 42 90 42 97 0 28 -22 5 -56 -59 -21 -38 -39 -68 -40 -67 -1 1 0 48 3 105 l6 102 53 0 c45 0 52 -2 47 -18 -2 -10 3 -24 11 -31 13 -11 17 -10 25 10 7 16 9 -41 8 -176 l-2 -200 -72 2 c-40 2 -73 0 -73 -5 -1 -4 -2 -84 -3 -177 -2 -94 -6 -176 -10 -183 -5 -6 -16 -12 -26 -12 -10 0 -26 -9 -36 -20 -18 -20 -17 -20 9 -20 l28 0 -32 -40 c-31 -39 -70 -54 -70 -26 0 7 9 25 21 40 l20 26 -35 0 c-36 0 -36 0 -36 -44 0 -24 7 -57 15 -72 9 -18 15 -57 15 -101 0 -67 9 -89 25 -63 3 6 28 10 56 10 37 0 49 -4 49 -15 0 -10 10 -15 29 -15 17 0 33 -5 36 -10 9 -14 62 -13 71 2 11 18 -20 34 -72 37 -26 1 -51 4 -56 7 -4 3 -8 63 -8 134 0 94 -3 130 -12 133 -7 2 -9 8 -5 13 4 5 12 2 16 -5 7 -10 31 -13 102 -9 52 2 86 2 77 0 -16 -3 -18 -21 -18 -213 l0 -209 65 0 65 0 0 230 -1 230 -53 0 c-28 0 -57 -5 -64 -12 -9 -9 -12 32 -12 187 l0 200 65 -2 65 -2 0 210 0 209 -61 0 c-67 0 -67 1 -34 75 7 17 17 42 20 58 11 43 -13 33 -35 -15 l-19 -43 0 173 -1 172 -75 0 c-71 0 -75 -1 -76 -22 0 -13 0 -102 0 -198 0 -97 -3 -181 -7 -187 -4 -6 -16 -11 -27 -11 -11 1 -46 0 -77 -1 l-57 -1 -7 -37 c-4 -21 -8 -56 -8 -78 -1 -22 -5 -41 -11 -42 -5 -2 -12 -29 -15 -60 l-5 -58 -11 68 c-8 55 -8 67 3 63 10 -4 13 11 12 67 -1 54 -3 65 -9 42 -4 -16 -8 -46 -9 -65 -1 -27 -4 -31 -11 -20 -5 8 -10 29 -10 45 0 50 -11 75 -31 75 -24 0 -24 -10 5 -166 13 -71 27 -155 31 -186 6 -52 4 -58 -12 -59 -10 0 -69 -1 -131 -2 l-112 -2 0 208 0 207 -170 0 -170 0 0 210 0 210 170 0 170 0 -2 206 -3 205 -165 3 -165 3 -3 206 c-2 190 -1 206 15 209 10 3 87 2 171 0 l152 -4 0 211 0 211 140 0 140 0 0 210 0 210 -139 0 -139 0 -4 183 c-2 100 -1 192 1 205 3 22 6 22 142 22 l139 0 0 -205z m1392 123 c1 -46 2 -137 2 -203 l1 -120 48 -5 c26 -4 50 -4 52 -1 3 2 5 96 5 208 l0 203 65 0 65 0 0 -205 0 -205 -65 0 -65 0 0 -209 c0 -148 -3 -210 -11 -213 -7 -2 -30 -1 -52 2 l-41 5 -1 190 c-2 249 3 225 -50 225 l-45 0 -2 -212 -3 -213 -30 3 c-16 2 -31 5 -31 5 -1 1 -3 94 -5 207 l-4 205 38 3 37 3 0 205 0 204 45 0 45 0 2 -82z m-694 -1375 l-3 -208 -41 -3 c-33 -2 -42 1 -46 15 -3 13 -2 343 2 396 0 4 20 7 45 7 l45 0 -2 -207z m282 -240 c0 -19 3 -24 9 -15 6 10 10 6 14 -15 3 -16 0 -37 -9 -50 -21 -33 -20 -303 0 -303 12 0 15 25 13 153 -1 102 2 159 10 172 10 16 12 -14 13 -152 0 -128 -3 -172 -12 -175 -10 -4 -12 -40 -10 -146 3 -124 2 -142 -12 -142 -13 0 -16 12 -16 55 0 40 -4 57 -15 61 -8 4 -15 17 -15 31 0 22 2 24 15 13 13 -11 15 -3 15 59 0 55 -3 71 -15 71 -10 0 -15 -15 -17 -57 l-3 -58 -20 23 -20 23 -5 -23 c-5 -21 -7 -20 -29 15 -26 42 -23 54 8 37 19 -9 21 -8 21 15 0 20 5 25 25 25 l25 0 0 205 c0 176 2 205 15 205 10 0 15 -10 15 -27z m757 -2076 c4 -6 12 -34 19 -62 6 -27 16 -49 23 -47 7 1 11 -16 11 -48 l0 -50 -80 0 -80 0 0 109 c0 68 4 111 11 113 20 7 89 -4 96 -15z m308 -327 c6 -5 38 -14 73 -20 55 -11 62 -15 62 -36 0 -24 -1 -24 -105 -24 l-105 0 0 51 0 51 33 -7 c17 -4 37 -11 42 -15z"/>2 -140 5 -140 16 0 63 32 89 59 17 17 39 31 51 31 12 0 64 32 115 71 51 38 106 77 122 85 15 8 28 19 28 24 0 6 -79 10 -205 10 l-205 0 0 -140z"/><path d="M1160 4380 l0 -210 -105 0 -106 0 1 -210 1 -210 100 0 c91 0 99 -2 99 -19 0 -11 -8 -22 -18 -25 -34 -11 -93 -83 -132 -162 l-39 -79 -2 115 c-2 63 -3 122 -5 130 -1 8 -2 21 -3 28 -1 9 -36 12 -141 12 l-140 0 0 -210 0 -210 120 0 119 0 17 32 c9 18 21 44 25 58 8 24 8 24 8 -5 -1 -16 0 -37 0 -45 3 -22 38 47 57 110 9 30 26 68 36 83-21 -25 -46 -41 -26 -15 -67 -47 -93 -71 -38 -36 -42 -42 -21 -37 14 4 39 14 55 22 17 8 47 21 68 29 45 16 44 14 -33 -77 -75 -87 -145 -224 -190 -371 -5 -16 -6 -28 -2 -28 4 0 66 53 138 118 116 104 227 182 240 169 9 -8 -72 -156 -109 -198 -65 -74 -149 -201 -172 -259 -12 -30 -49 -103 -83 -162 -34 -59 -62 -113 -62 -120 -1 -7 -16 -49 -36 -93 -19 -44 -32 -66 -29 -50 2 17 9 73 15 125 6 52 21 140 34 195 41 171 56 239 56 253 0 8 -21 -4 -46 -27 -34 -30 -57 -42 -92 -46 -26 -4 -53 -8 -60 -10 -16 -6 -18 -1915 -2 -1915 6 0 30 42 54 94 24 51 49 96 55 100 8 5 11 -12 11 -57 0 -69 -12 -88 -76 -121 -36 -17 -54 -58 -54 -117 0 -45 16 -50 58 -20 15 10 56 29 92 41 36 13 73 30 84 39 18 15 18 14 11 -44 -4 -33 -9 -64 -12 -68 -3 -5 -26 -17 -51 -28 -25 -11 -50 -26 -56 -34 -6 -8 -37 -24 -69 -35 l-57 -21 0 -165 0 -165 42 3 c42 3 44 4 81 76 27 52 43 72 57 72 18 0 20 -7 20 -70 l0 -70 -38 -19 c-20 -11 -50 -36 -65 -56 -16 -20 -44 -43 -63 -52 -34 -17 -34 -17 -34 -86 0 -99 31 -195 82 -254 22 -27 44 -49 48 -51 12 -5 100 98 106 124 9 33 18 30 38 -13 22 -48 53 -86 64 -79 5 3 12 23 16 45 3 21 14 49 24 61 l19 23 42 -87 c39 -81 41 -89 27 -105 -31 -34 -22 -42 56 -54 36 -5 35 2 -2 38 -17 16 -30 33 -30 37 0 7 78 102 141 172 5 5 14 4 23 -3 8 -7 19 -10 24 -7 5 3 14 -6 21 -20 6 -13 31 -47 57 -74 43 -46 44 -49 23 -55 -26 -8 -37 3 -75 78 -13 26 -28 47 -33 47 -18 0 -28 -60 -15 -95 8 -20 56 -45 87 -45 14 0 43 -17 70 -40 65 -58 90 -53 37 7 l-42 48 157 3 c87 1 159 1 160 0 1 -2 5 -21 8 -43 l6 -40 -111 -3 c-61 -1 -114 -4 -116 -7 -3 -3 2 -13 10 -22 8 -10 27 -44 41 -76 14 -31 34 -60 44 -63 10 -3 29 -11 43 -18 14 -7 38 -16 54 -20 34 -8 176 3 176 13 0 4 -27 43 -60 87 -33 43 -60 83 -60 88 0 4 32 6 70 4 39 -2 70 -3 70 -1 0 1 -10 23 -22 48 -21 42 -24 45 -62 45 -61 0 -86 10 -86 32 0 30 -18 57 -87 133 -62 68 -123 170 -123 205 0 16 18 30 118 93 l42 27 0 -54 c0 -64 49 -170 114 -243 34 -39 41 -55 50 -116 l11 -72 49 -8 c27 -4 74 -7 105 -5 50 3 57 6 69 31 11 22 12 39 4 69 l-11 40 36 -33 c20 -19 32 -28 28 -20 -20 35 -24 86 -8 118 8 18 19 33 23 33 14 0 95 -97 143 -171 26 -41 58 -89 72 -108 31 -42 65 -149 65 -202 l0 -39 60 0 c33 0 60 2 60 5 0 17 -50 98 -110 179 -89 121 -140 205 -140 234 0 12 7 33 14 45 8 12 20 54 26 92 6 39 15 74 19 78 5 5 24 -10 42 -32 32 -41 33 -41 53 -22 12 11 30 37 41 58 10 21 20 39 21 41 1 2 33 -29 71 -68 l69 -73 30 31 c38 37 92 47 212 39 l84 -6 -40 29 c-49 35 -108 93 -122 120 -10 18 -8 20 19 20 21 0 35 -8 50 -29 21 -29 120 -82 189 -100 22 -6 45 -18 52 -26 11 -13 3 -15 -64 -15 -73 0 -76 -1 -66 -19 5 -11 10 -36 10 -55 0 -42 9 -44 83 -21 45 13 48 13 43 -3 -20 -63 -46 -171 -46 -195 0 -39 21 -85 65 -137 55 -67 63 -61 20 15 -35 63 -37 70 -26 105 13 44 48 70 102 77 34 5 43 12 68 57 17 28 36 73 43 99 7 28 18 47 26 47 10 0 13 -8 8 -27 -3 -16 -9 -54 -12 -85 -6 -50 -9 -57 -33 -63 -40 -10 -71 -33 -71 -53 0 -10 11 -29 24 -41 l25 -23 38 31 38 31 25 -29 c51 -60 127 -84 206 -65 33 7 75 14 94 14 l35 0 -50 -31 c-49 -31 -115 -87 -115 -99 0 -3 16 -12 35 -19 41 -14 75 -54 75 -87 0 -24 2 -24 95 -24 71 0 95 3 93 13 -7 36 14 69 57 88 25 11 45 23 45 28 0 22 -116 104 -180 127 l-35 13 34 1 c19 0 77 -7 127 -17 87 -15 96 -15 138 1 25 10 59 33 76 53 l31 35 40 -26 c21 -15 39 -32 39 -38 0 -6 11 -1 25 12 16 15 25 34 25 53 0 27 2 28 32 21 98 -21 122 -82 68 -177 -37 -66 -38 -78 -4 -46 55 52 84 109 84 167 0 57 -21 145 -46 196 -13 26 -13 28 3 21 10 -3 44 -14 76 -22 l58 -16 -6 -41 c-4 -27 1 -69 14 -123 34 -134 35 -130 -88 -304 -13 -18 -11 -19 28 -19 38 0 41 2 41 28 0 36 51 143 94 195 47 59 56 79 56 133 0 40 -5 51 -35 79 -19 19 -50 39 -70 45 -28 9 -35 17 -35 38 0 15 7 39 14 55 l15 27 -87 0 -87 1 24 19 c13 11 35 23 50 26 77 17 201 88 201 116 0 4 -44 8 -97 8 -54 0 -124 4 -157 10 -58 9 -60 9 -126 -31 -59 -35 -90 -69 -90 -99 0 -12 55 -28 127 -35 59 -7 62 -8 52 -27 -6 -11 -9 -28 -6 -38 4 -15 0 -16 -32 -10 -20 4 -65 13 -100 20 l-63 13 5 39 c3 21 1 38 -4 38 -4 0 -25 15 -46 33 -28 25 -35 27 -29 12 4 -11 13 -40 19 -64 8 -29 20 -47 34 -54 15 -7 27 -25 34 -51 6 -23 24 -65 41 -94 17 -29 28 -55 26 -57 -3 -3 -24 3 -48 12 -29 12 -45 14 -47 7 -2 -6 -9 -19 -16 -28 -12 -16 -17 -15 -78 13 -41 20 -94 35 -144 41 -71 9 -111 20 -74 20 9 0 24 7 35 16 18 14 15 15 -38 9 -36 -4 -65 -2 -78 5 -17 9 -29 9 -50 0 -22 -9 -37 -9 -64 0 -20 6 -44 10 -53 8 -36 -8 45 -38 104 -39 57 -1 57 -1 18 -10 -22 -4 -63 -8 -92 -8 -75 -1 -150 -19 -215 -52 l-57 -29 -16 30 c-15 30 -15 30 21 45 75 31 176 65 194 65 19 0 19 1 -2 45 -20 40 -21 51 -11 97 6 29 9 55 7 57 -2 2 -27 -11 -56 -29 -87 -55 -126 -75 -133 -68 -4 3 2 36 13 72 l20 65 -30 -29 c-38 -38 -58 -37 -83 2 -11 18 -46 47 -79 66 -50 29 -62 33 -83 23 -14 -6 -83 -11 -163 -11 l-140 0 -24 39 c-17 27 -34 40 -57 45 -18 3 -34 4 -36 2 -3 -3 7 -22 21 -43 30 -44 18 -55 -33 -29 -67 35 -181 2 -215 -61 l-14 -27 -16 32 -16 32 -57 -55 c-63 -63 -61 -63 -119 21 -21 30 -41 51 -46 46 -10 -10 -68 -161 -68 -177 0 -5 -11 -23 -24 -39 l-23 -30 -18 27 -18 28 -25 -37 c-13 -20 -28 -48 -31 -63 -7 -25 -8 -25 -44 24 -20 28 -42 70 -48 93 l-12 44 -21 -26 c-21 -26 -22 -26 -106 -19 -47 4 -85 11 -85 15 0 4 42 47 93 95 102 97 112 98 112 16 0 -67 14 -72 51 -19 19 26 35 41 37 34 7 -28 66 -148 73 -148 4 0 11 14 14 31 9 38 57 122 96 167 32 36 33 46 19 142 -5 36 -5 93 -1 128 l7 62 -29 -27 c-65 -63 -147 -214 -147 -271 0 -10 -7 -27 -15 -38 -13 -18 -14 -16 -15 26 -1 98 -26 111 -76 39 -15 -21 -30 -39 -33 -39 -4 0 -22 32 -41 70 -19 39 -36 70 -39 70 -3 0 -41 -37 -83 -82 -72 -78 -77 -81 -78 -55 0 16 -5 37 -11 48 -9 17 -4 27 30 64 37 40 61 95 61 139 0 11 12 44 27 75 39 83 44 236 12 457 -21 154 -29 182 -42 152 -55 -135 -68 -179 -81 -258 -8 -52 -27 -133 -42 -180 -37 -120 -38 -266 -4 -363 16 -44 21 -71 14 -75 -6 -4 -38 -29 -73 -56 -34 -26 -63 -47 -65 -45 -11 15 -46 111 -51 142 -4 21 -11 37 -15 35 -8 -3 -82 -89 -123 -142 -15 -20 -46 -45 -67 -56 -45 -23 -45 -22 -26 -58 8 -15 19 -61 25 -102 7 -41 14 -76 16 -78 2 -3 15 8 28 24 14 16 38 43 53 60 16 17 51 56 77 87 26 31 57 62 68 67 18 10 19 7 19 -37 0 -48 0 -48 -96 -133 -53 -47 -104 -93 -114 -103 -18 -18 -18 -18 -25 3 -5 16 -10 19 -20 10 -21 -17 -28 -9 -69 84 -21 48 -43 86 -48 86 -5 0 -16 -16 -23 -35 -8 -19 -36 -64 -62 -100 l-48 -65 -11 34 c-7 18 -24 52 -38 74 -14 23 -26 46 -26 51 0 11 107 100 139 114 21 10 23 16 17 55 -3 25 -6 94 -6 155 l0 110 -29 -39 c-37 -51 -139 -156 -170 -175 -23 -14 -23 -16 -11 -74 7 -32 21 -78 32 -101 20 -40 20 -41 2 -69 -11 -16 -26 -52 -35 -79 l-16 -51 -13 30 c-27 66 -40 134 -40 220 l0 91 30 11 c33 12 36 27 24 116 -6 41 -9 45 -25 37 -10 -6 -20 -10 -23 -10 -3 0 -6 45 -6 99 0 115 14 155 74 214 21 20 36 31 33 23 -37 -97 -73 -306 -53 -306 11 0 117 84 159 127 21 21 52 63 68 93 16 30 26 44 23 30 -18 -65 -24 -98 -23 -140 l0 -45 34 37 c27 29 35 46 35 74 0 31 51 144 65 144 2 0 -10 -39 -27 -87 -26 -77 -31 -106 -35 -230 -4 -99 -2 -143 5 -143 36 0 202 244 202 298 0 14 24 48 63 90 57 61 65 74 76 132 7 36 19 76 27 90 26 48 3 -88 -33 -194 -34 -99 -58 -229 -51 -282 l3 -29 18 32 c9 18 17 41 17 51 0 26 25 45 49 37 14 -4 25 2 40 24 18 24 23 49 26 125 3 71 10 106 25 137 31 59 42 141 30 219 -14 90 -19 110 -29 110 -5 0 -25 -42 -44 -92 l-36 -93 -1 80 c0 68 -7 97 -43 196 l-43 117 -64 -123 c-62 -118 -65 -122 -76 -97 l-11 27 -16 -30 c-9 -16 -16 -23 -17 -15 0 8 -8 31 -19 50 -10 19 -31 79 -46 133 -21 77 -26 109 -21 150 l6 52 -34 -60 c-32 -57 -40 -78 -82 -217 -9 -32 -20 -58 -24 -58 -3 0 -13 21 -21 47 l-15 47 -46 -103 -46 -103 -6 114 c-4 62 -9 155 -12 206 -6 96 4 145 31 156 8 3 17 20 20 39 7 35 -33 179 -96 349 -33 87 -35 117 -14 203 8 33 15 76 15 96 0 21 8 47 20 62 11 14 20 32 20 40 0 25 42 113 47 99 3 -7 -3 -74 -13 -150 -19 -155 -15 -382 9 -467 7 -27 30 -75 50 -105 20 -30 37 -61 37 -70 0 -8 -9 -40 -21 -70 -25 -67 -29 -206 -7 -260 l15 -35 22 74 c19 62 22 89 17 165 -10 161 -20 218 -48 262 -51 79 -84 217 -76 318 4 49 16 86 53 160 26 53 48 96 50 94 1 -2 -3 -68 -10 -147 -20 -242 -5 -315 107 -493 l63 -101 3 55 c3 53 -7 104 -42 228 -9 30 -16 80 -16 111 0 66 34 185 60 214 12 13 18 35 18 65 0 51 35 151 59 172 9 7 25 27 35 43 l19 30 -6 -35 c-4 -19 -15 -53 -24 -75 -28 -64 -53 -178 -49 -226 l3 -43 27 80 c28 85 93 228 84 184 -3 -14 -11 -90 -18 -169 -9 -113 -8 -158 1 -204 15 -72 49 -167 61 -167 4 0 11 21 14 48 9 65 24 132 53 232 45 162 64 207 99 240 l33 33 -14 -54 c-15 -55 -18 -194 -6 -239 6 -22 9 -19 30 30 13 30 34 68 46 85 13 16 26 40 29 52 8 27 44 73 57 73 5 0 9 -62 9 -142 l1 -143 22 42 c24 45 103 105 164 126 l37 12 18 120 c9 66 17 123 18 128 0 17 -17 5 -34 -24 -28 -47 -92 -89 -137 -89 -21 0 -49 -4 -63 -10 -24 -9 -25 -8 -31 45 -8 59 -3 75 24 75 30 0 126 47 163 78 18 16 53 36 77 43 39 12 46 19 69 69 39 87 73 182 68 187 -9 9 -109 -19 -171 -47 -33 -15 -87 -48 -121 -72 -58 -43 -61 -49 -81 -119 -12 -41 -24 -91 -28 -111 -4 -28 -11 -38 -24 -38 -11 0 -43 -16 -72 -35 l-52 -36 6 78 c4 43 12 98 20 123 12 41 16 45 54 52 94 16 137 55 160 147 l6 26 -38 -29 c-36 -28 -115 -52 -115 -35 0 4 16 39 35 78 19 38 35 72 35 75 0 3 13 28 30 56 16 27 26 50 21 50 -4 0 -39 -29 -76 -65 -46 -43 -79 -66 -99 -69 -89 -14 -116 -16 -116 -9 0 5 14 32 30 61 23 42 26 52 12 47 -34 -14 -55 -18 -50 -9 72 119 123 201 150 240 57 81 55 82 -23 9 -60 -57 -92 -78 -164 -109 -79 -34 -175 -58 -175 -44 0 20 55 98 68 98 49 0 98 26 160 84 59 55 262 179 262 159 0 -3 -14 -29 -31 -56 l-31 -51 33 25 c59 44 60 41 5 -38 -29 -43 -68 -105 -86 -138 -18 -33 -47 -79 -63 -103 -16 -24 -27 -45 -25 -48 10 -9 172 96 229 149 76 71 98 87 121 87 10 0 63 44 118 98 87 85 105 98 129 94 l28 -4 -50 -46 c-43 -41 -107 -121 -107 -135 0 -3 53 -3 119 0 65 3 131 3 146 -1 l27 -7 -35 -38 c-19 -21 -39 -46 -44 -56 -10 -16 -14 -16 -75 -1 -35 9 -74 16 -87 16 -24 0 -96 -34 -106 -50 -3 -5 -15 -15 -26 -21 -17 -9 -16 -3 11 48 16 32 37 68 46 81 16 22 16 22 -24 22 -39 0 -42 -2 -100 -82 -32 -46 -65 -94 -72 -107 -11 -22 -11 -23 6 -17 11 5 38 14 62 21 41 13 52 9 33 -11 -5 -5 -26 -49 -46 -99 -20 -49 -39 -96 -42 -104 -3 -7 11 -2 33 12 21 14 64 33 94 42 30 9 82 27 115 40 33 13 71 25 85 27 20 2 26 10 31 38 3 19 16 54 28 78 19 38 25 43 49 38 15 -3 48 -8 75 -12 26 -3 47 -10 47 -15 0 -4 -16 -38 -35 -76 -19 -37 -35 -71 -35 -75 0 -4 19 -12 43 -19 23 -6 65 -24 94 -40 l51 -29 18 47 c10 27 28 67 42 91 l24 43 70 -3 c63 -3 72 -1 85 19 14 20 13 23 -16 38 -75 38 -78 38 -111 -10 l-30 -44 -53 15 c-53 15 -137 45 -137 49 0 1 7 23 16 48 20 61 14 75 -36 83 -22 4 -39 10 -38 14 2 5 28 34 58 66 l54 57 45 -12 45 -12 40 41 41 40 -38 0 c-52 0 -82 16 -66 36 9 11 8 14 -4 14 -8 0 -17 -12 -21 -27 -3 -16 -15 -38 -25 -51 l-20 -23 -108 26 c-136 34 -143 37 -112 59 23 16 22 16 -34 16 -44 0 -57 -3 -57 -15 0 -12 -14 -15 -63 -15 -83 0 -172 -17 -222 -42 l-40 -20 23 24 c25 27 28 39 10 34 -7 -3 -25 -7 -41 -10 -25 -6 -27 -5 -21 19 l6 25 -109 0 -109 0 -60 -62 c-84 -86 -171 -192 -179 -217 -5 -16 -15 -21 -43 -21 -20 0 -54 -3 -76 -7 -38 -6 -38 -6 -25 18 7 13 62 75 122 137 61 61 106 112 101 112 -5 0 -54 -12 -109 -26 -123 -32 -159 -40 -208 -47 l-38 -6 51 60 52 59 -44 0 c-24 0 -49 -5 -56 -12z m159 -480 c-47 -89 -77 -165 -69 -173 2 -2 25 14 50 36 26 22 65 46 88 54 23 8 55 24 72 36 28 20 118 39 118 25 0 -4 -11 -29 -25 -56 -14 -28 -23 -50 -21 -50 3 0 17 5 31 10 24 9 26 8 19 -12 -4 -13 -17 -47 -30 -77 -13 -29 -30 -78 -38 -108 l-14 -54 31 24 c68 52 111 77 164 97 31 11 58 19 60 16 2 -2 -7 -26 -21 -53 -21 -42 -31 -51 -66 -62 -43 -13 -116 -77 -193 -170 l-36 -43 13 53 c7 30 20 72 30 94 l16 40 -45 -47 c-25 -26 -45 -41 -45 -35 0 21 56 188 84 251 15 33 25 61 23 62 -2 2 -20 -10 -40 -27 -20 -16 -55 -38 -79 -49 -75 -33 -140 -119 -229 -305 -27 -55 -49 -93 -49 -84 0 20 31 108 65 184 25 55 69 225 60 233 -6 7 -54 -65 -100 -153 -27 -49 -56 -99 -65 -110 -10 -11 -25 -33 -33 -50 -15 -27 -16 -28 -17 -7 -1 97 147 508 189 524 12 4 41 21 64 36 40 28 63 39 79 41 4 1 -14 -41 -41 -91z m-453 -1540 c6 -46 14 -125 18 -175 6 -87 5 -95 -19 -136 -14 -24 -34 -50 -43 -58 -16 -13 -16 -11 -10 21 3 19 9 109 12 200 5 179 11 230 23 230 4 0 13 -37 19 -82z m552 -492 c0 -36 -27 -80 -79 -129 -46 -43 -46 -43 -26 33 8 30 15 57 15 60 -1 3 -18 -15 -40 -40 l-39 -45 29 90 c16 50 36 106 44 125 l15 35 1 -65 c1 -36 4 -58 7 -50 3 8 15 40 26 70 l20 55 13 -55 c7 -30 13 -68 14 -84z m2015 -901 l0 -39 -108 -21 c-59 -12 -103 -17 -97 -11 13 13 13 49 -1 63 -7 7 14 14 73 23 46 7 90 16 98 21 25 14 35 4 35 -36z"/><path d="M1645 4383 l0 -208 -45 -5 -45 -5 -3 -168 -2 -169 32 7 c76 15 70 0 66 173 l-3 157 43 3 42 3 0 -165 0 -166 30 0 c23 0 30 -4 30 -20 0 -16 -7 -20 -30 -20 -25 0 -30 -4 -30 -25 0 -21 5 -25 30 -25 26 0 30 4 30 26 0 22 4 25 28 22 22 -2 28 1 30 20 3 19 -1 22 -27 22 l-31 0 0 165 0 165 30 0 30 0 -2 208 -3 207 -27 3 -28 3 0 -210 0 -211 -30 0 c-29 0 -30 2 -31 48 -1 99 -7 348 -8 360 -1 7 -16 12 -39 12 l-37 0 0 -207z"/>-5 16 -5 42 -2 40 6 51 3 97 -25 28 -17 56 -28 63 -25 6 4 37 21 70 38 32 18 59 37 60 42 0 6 -59 11 -157 13 -143 2 -158 1 -164 -15z"/><path d="M2010 4381 c0 -181 -2 -211 -15 -211 -13 0 -15 -26 -15 -170 0 -147 -2 -170 -16 -170 -12 0 -14 -9 -12 -37 3 -33 7 -38 31 -41 22 -3 27 1 27 17 0 12 -7 21 -15 21 -8 0 -15 -8 -15 -17 0 -9 -2 -14 -5 -11 -3 3 -2 19 1 36 7 35 34 44 34 12 0 -15 7 -20 25 -20 18 0 25 5 25 20 0 15 7 20 25 20 l25 0 0 170 0 170 -25 0 -25 0 -2 208 c-3 206 -3 207 -25 210 l-23 3 0 -210z m50 -381 l0 -170 -25 0 -25 0 0-14 43 -15 29 0 20 -14 -43 -66 -33 -27 -62 -55 -65 -62 -10 -26 143 -101 209 -102 l29 0 -41 -30 c-23 -17 -42 -33 -42 -36 0 -4 36 -5 79 -2 l80 5 -64 -71 -64 -71 167 -5 167 -5 77 60 c42 33 77 63 77 66 2 16 -96 31 -212 32 l-126 2 32 34 32 34 -77 -7 c-43 -4 -78 -5 -78 -2 0 2 46 41 101 87 l101 84 -123 11 c-180 17 -203 25 -156 57 21 15 18 16 -53 16 -70 0 -73 -1 -50 -14z"/><path d="M2740 4380 l0 -210 -80 0 -80 0 0 -210 0 -210 -32 0 -33 0 25 -20 c32 -25 40 -25 40 0 0 18 7 20 80 20 l80 0 0 -151 c0 -82 -4 -148 -9 -145 -4 3 -21 39 -37 80 -17 46 -44 93 -71 123 l-42 48 -1 -34 0 -33 -40 33 c-21 19 -52 44 -67 56 l-28 22 35 1 35 1 -28 15 c-16 9 -31 13 -34 11 -2 -3 -4 -104 -3 -225 l1 -221 -53 -3 -53 -3 0 -173 c0 -149 -2 -169 -13 -143 -17 42 -32 39 -25 -5 5 -29 3 -36 -8 -32 -8 3 -22 -1 -31 -10 -17 -14 -18 -11 -18 52 0 36 5 74 11 85 9 13 9 23 1 37 -10 17 -11 16 -12 -10 0 -24 -2 -26 -14 -16 -8 6 -23 35 -33 63 l-18 52 -3 -145 c-1 -79 0 -150 2 -157 3 -6 14 -10 26 -8 l21 4 -21 -26 c-11 -14 -20 -32 -20 -39 0 -25 23 -27 41 -3 18 24 19 22 19 -104 l0 -129 -34 41 c-32 38 -35 39 -38 19 -3 -22 -3 -22 -21 5 -20 31 -14 55 9 36 12 -10 14 5 14 95 l0 107 -32 -3 c-31 -3 -33 -5 -36 -47 -3 -34 2 -49 19 -67 22 -24 22 -24 3 -38 -17 -13 -19 -13 -22 5 -4 22 -6 23 -33 9 -18 -10 -19 -7 -19 65 0 73 -1 75 -25 75 -24 0 -25 -2 -25 -74 0 -73 14 -107 40 -91 6 4 10 -6 10 -26 l0 -33 20 22 c12 12 23 22 25 22 3 0 5 -29 5 -65 0 -50 -3 -63 -14 -59 -9 4 -16 -8 -22 -38 -8 -41 -9 -39 -12 36 -3 74 -4 78 -18 57 -9 -12 -20 -19 -25 -16 -5 4 -9 -27 -9 -74 l0 -81 50 0 50 0 0 -150 c0 -139 -6 -171 -26 -138 -4 6 -11 25 -15 42 -4 20 -7 -4 -8 -71 l-1 -103 25 0 25 0 0 -205 c0 -178 2 -206 16 -212 8 -3 23 2 32 11 15 14 17 43 18 194 1 232 -2 212 39 212 l35 0 2 208 3 207 48 3 49 3 -2 157 c-1 86 -1 162 0 167 1 6 10 -21 19 -60 12 -51 21 -71 34 -73 17 -3 18 1 12 45 -16 113 -41 184 -64 182 -9 -1 -27 -1 -40 0 -20 1 -22 3 -10 17 11 14 13 14 21 -1 5 -8 14 -13 19 -10 5 4 7 11 4 16 -4 5 -2 9 2 9 5 0 13 -8 19 -18 8 -12 22 -17 48 -16 l36 2 0 -147 c0-20 -29 -38 -40 l-34 -21 45 0 c25 0 62 -3 82 -6 l37 -6 -102 -75 c-56 -41 -104 -77 -107 -79 -2 -3 65 -3 150 -2 108 2 168 -1 199 -10 l44 -14 -51 -29 c-64 -36 -70 -46 -35 -61 15 -7 38 -19 51 -26 22 -14 20 -15 -50 -59 -40 -25 -81 -52 -90 -60 -15 -14 -22 -14 -66 2 -49 18 -49 18 -80 -5 -36 -27 -39 -36 -14 -45 9 -3 30 -17 45 -31 29 -25 29 -25 10 -51 -32 -45 -71 -108 -72 -115 -1 -4 17 -12 39 -18 22 -6 51 -21 65 -33 l26 -22 -26 -37 c-14 -20 -25 -44 -25 -53 0 -14 -3 -14 -27 3 -16 10 -50 27 -78 37 -27 10 -52 20 -54 22 -2 1 13 23 33 47 l36 45 -54 15 c-30 9 -56 16 -59 16 -6 0 -37 -76 -37 -89 0 -5 13 -12 30 -16 16 -4 32 -10 35 -15 3 -5 -8 -30 -25 -56 -16 -26 -30 -58 -30 -71 0 -27 -1 -27 -35 -11 -31 14 -31 30 -4 102 12 31 19 59 16 63 -6 6 -211 64 -236 67 -18 1 -39 -59 -43 -126 l-3 -53 45 -7 c25 -5 68 -11 95 -14 95 -10 98 -12 91 -44 -4 -24 -1 -33 19 -46 28 -18 45 -12 45 17 0 25 2 24 55 -9 25 -16 58 -49 76 -76 16 -27 34 -45 38 -40 12 14 59 155 63 189 3 28 5 26 37 -35 l34 -65 13 40 c6 22 19 64 28 93 l17 53 -31 25 c-16 14 -30 30 -30 34 0 5 25 33 55 63 54 52 64 67 46 67 -5 0 -34 16 -66 35 -32 19 -62 36 -69 38 -11 4 37 87 51 87 3 0 25 -18 49 -40 24 -22 51 -40 59 -40 9 0 32 -7 53 -16 l37 -15 -30 -14 c-16 -7 -39 -20 -50 -28 -19 -16 -19 -17 23 -33 23 -9 42 -20 42 -24 0 -4 -12 -13 -27 -21 -14 -8 -44 -36 -65 -63 l-38 -48 34 -38 c18 -20 48 -74 67 -119 18 -45 37 -80 43 -78 5 2 24 37 41 79 37 87 70 138 90 138 9 0 24 -33 40 -87 l27 -88 36 70 36 70 6 -35 c4 -19 20 -75 35 -123 24 -72 27 -91 17 -105 -26 -36 -50 -99 -62 -164 -11 -59 -10 -72 8 -130 12 -34 25 -76 30 -93 l10 -30 12 33 12 32 39 -42 c21 -24 46 -62 56 -85 10 -24 21 -43 25 -43 8 0 68 144 68 164 0 28 14 17 45 -34 16 -28 32 -50 37 -50 7 0 15 37 20 93 2 23 11 10 45 -70 l42 -98 -5 -105 -5 -105 22 40 c12 22 37 59 56 82 19 22 38 56 43 74 6 19 10 131 10 251 l0 216 36 12 c20 7 47 25 62 41 14 16 32 29 40 29 14 0 14 -3 -4 -197 l-6 -73 -47 0 c-70 0 -72 -4 -59 -90 6 -41 17 -84 24 -95 8 -11 14 -29 15 -40 0 -20 42 103 60 183 8 30 18 46 38 57 15 7 33 21 40 29 11 13 34 16 109 16 l95 0 -6 -35 c-6 -35 -6 -36 26 -31 18 3 59 8 91 11 l59 7 -6 -39 c-4 -21 -7 -58 -7 -82 0 -38 -2 -43 -20 -38 -19 5 -146 -23 -169 -37 -27 -17 -7 -91 38 -142 16 -18 39 -62 51 -99 12 -36 28 -69 36 -72 8 -3 14 -13 14 -22 0 -28 29 -104 50 -131 l19 -25 20 47 c18 40 27 48 71 64 47 17 50 20 50 54 0 20 6 59 14 88 9 36 10 51 2 48 -6 -3 -42 -14 -79 -26 -44 -14 -82 -34 -108 -57 -42 -38 -45 -35 -28 33 9 36 15 44 28 38 65 -27 93 -2 99 90 5 80 -7 104 -58 112 -28 5 -37 10 -33 21 7 18 37 13 105 -16 36 -15 49 -26 53 -48 4 -15 13 -44 20 -63 8 -19 16 -44 18 -55 3 -11 5 19 6 66 1 52 7 101 16 122 8 20 15 53 15 74 l0 38 20 -25 c10 -14 22 -36 25 -50 4 -14 16 -40 27 -58 l21 -34 20 32 c25 40 30 33 62 -93 13 -51 30 -112 39 -136 17 -46 22 -176 8 -199 -7 -10 -21 -7 -63 13 -30 13 -71 25 -91 25 -36 0 -38 2 -38 31 0 28 2 31 25 25 25 -7 64 7 77 28 11 16 9 155 -2 196 -5 20 -16 45 -24 55 -12 16 -16 17 -30 6 -9 -7 -16 -28 -16 -46 0 -33 -27 -227 -32 -229 -43 -17 -98 -54 -98 -66 0 -9 -18 -24 -41 -34 -32 -14 -46 -28 -61 -63 -18 -41 -21 -43 -33 -26 -12 16 -15 14 -34 -30 -12 -27 -21 -65 -21 -85 0 -43 -9 -82 -19 -82 -4 0 -26 39 -49 86 -24 48 -58 105 -75 126 l-32 40 -6 -73 c-9 -100 -26 -190 -39 -203 -7 -7 -10 23 -10 95 0 95 -2 108 -25 142 -15 21 -37 39 -53 43 -40 9 -72 32 -72 52 0 9 -11 40 -25 67 -13 28 -25 56 -25 64 0 7 -7 34 -15 60 -8 25 -17 60 -21 76 -6 28 -10 21 -60 -84 -55 -116 -66 -170 -44 -212 6 -10 47 -45 92 -76 77 -54 156 -143 215 -244 9 -16 21 -29 25 -29 4 0 8 -5 8 -10 0 -6 -3 -9 -7 -8 -5 1 -30 -20 -56 -45 -49 -48 -67 -52 -67 -15 0 11 -14 47 -32 81 l-32 60 -51 -56 c-28 -31 -64 -61 -79 -67 -15 -5 -26 -13 -24 -18 34 -66 52 -116 56 -155 l5 -48 -48 33 c-35 24 -54 47 -71 87 -19 42 -27 52 -36 43 -9 -9 -4 -23 20 -57 19 -27 32 -59 33 -78 2 -56 13 -77 54 -100 35 -20 41 -28 47 -67 15 -103 -14 -228 -75 -317 -26 -38 -35 -40 -70 -13 l-25 20 -51 -31 c-49 -31 -51 -33 -34 -51 19 -22 54 -18 117 14 34 17 45 18 102 9 34 -6 81 -8 103 -5 44 7 50 0 26 -32 -21 -28 -19 -32 22 -36 l36 -3 -54 -56 c-30 -31 -70 -68 -89 -83 l-35 -28 66 6 c105 8 189 -8 219 -41 l25 -28 55 55 c31 30 65 69 77 85 19 26 22 27 23 10 0 -11 14 -38 30 -60 17 -22 33 -47 36 -57 5 -13 12 -9 41 23 19 21 39 37 43 34 4 -3 11 -31 15 -62 3 -32 16 -77 28 -101 l21 -44 -29 -55 c-16 -30 -64 -103 -108 -162 -43 -58 -90 -127 -103 -153 l-24 -48 59 0 c65 0 71 6 71 66 0 45 33 138 65 183 14 20 49 72 79 116 54 81 132 173 139 165 3 -3 12 -20 22 -39 16 -32 16 -65 -1 -119 -4 -11 3 -7 19 9 l24 27 -4 -43 c-3 -23 0 -52 7 -64 11 -21 17 -22 111 -19 104 3 109 1 84 -42 -21 -37 -19 -40 34 -40 91 0 108 8 123 54 l13 41 148 3 c81 1 147 -1 147 -6 0 -4 -16 -23 -35 -42 -40 -39 -43 -50 -14 -50 19 0 17 -5 -17 -52 -49 -69 -95 -118 -110 -118 -15 0 47 126 77 156 l20 21 -62 7 c-34 3 -86 6 -115 6 l-53 0 -76 -102 -77 -103 -66 -5 c-42 -4 -6 -6 94 -7 122 -1 168 2 189 13 35 18 49 18 41 -1 -3 -10 1 -15 13 -15 10 0 21 7 25 15 4 12 28 15 122 15 102 0 115 -2 104 -15 -11 -13 -4 -15 58 -15 52 0 71 4 75 15 5 11 -6 15 -54 17 l-60 3 69 56 c38 31 79 71 92 89 l23 33 -142 -5 -142 -5 38 39 c31 32 35 40 23 48 -8 5 -19 10 -25 10 -5 0 12 21 37 48 25 26 55 62 67 81 16 28 21 31 26 19 6 -15 -42 -117 -66 -143 -31 -32 29 -34 67 -2 28 24 34 58 21 107 -4 14 -3 32 2 40 8 12 14 9 33 -15 66 -85 120 -145 129 -145 6 0 28 38 50 85 l40 86 18 -23 c10 -13 26 -48 35 -78 l16 -55 -68 -65 c-37 -36 -96 -89 -130 -118 -34 -29 -67 -62 -73 -74 -11 -20 -10 -20 56 -13 36 4 89 4 116 0 41 -6 48 -9 38 -21 -10 -12 -2 -14 50 -14 71 0 83 17 14 22 l-46 3 61 62 c34 34 62 66 62 71 0 11 -44 117 -61 145 -8 14 -7 23 4 35 8 10 24 34 35 54 l19 38 28 -43 c30 -45 75 -97 85 -97 4 0 25 23 48 52 51 62 92 184 92 274 0 58 -1 60 -35 78 -19 11 -47 34 -61 53 -14 19 -43 41 -65 50 l-40 16 3 61 c4 84 25 86 63 6 36 -76 54 -92 97 -88 l33 3 0 169 c0 140 -3 170 -15 177 -8 4 -35 17 -60 29 -25 11 -58 29 -75 39 -16 10 -40 22 -53 26 l-22 6 20 -51 c15 -38 20 -74 20 -145 0 -52 -4 -95 -9 -95 -5 0 -18 8 -29 18 -15 13 -22 40 -32 117 -6 55 -20 122 -30 150 -37 101 -36 104 8 55 22 -25 43 -42 47 -39 3 4 2 30 -3 58 -7 37 -6 49 2 42 6 -5 42 -21 80 -35 38 -15 84 -35 101 -46 18 -11 37 -20 44 -20 33 0 -15 165 -52 179 -41 16 -60 48 -65 109 -4 54 -3 56 12 35 9 -12 29 -51 45 -87 16 -35 39 -69 50 -76 l21 -11 0 956 0 955 -27 0 c-52 0 -100 20 -146 60 l-45 40 29 -138 c16 -75 34 -150 39 -167 5 -16 14 -75 20 -130 6 -55 13 -108 16 -117 3 -10 3 -18 0 -18 -2 0 -19 37 -36 83 -18 45 -61 134 -96 197 -35 64 -64 123 -64 132 0 9 -16 40 -37 69 -20 30 -57 86 -83 124 -86 128 -102 123 -44 -15 55 -132 81 -213 104 -315 29 -134 26 -152 -10 -86 -17 30 -36 62 -43 70 -8 9 -25 39 -39 67 -59 114 -106 189 -115 180 -10 -10 30 -172 59 -234 29 -64 68 -169 68 -181 0 -3 -22 40 -49 95 -84 176 -163 278 -229 298 -12 4 -43 23 -68 42 -25 20 -47 34 -49 32 -2 -2 12 -39 31 -82 32 -72 84 -233 84 -259 0 -5 -13 8 -29 29 -29 40 -71 82 -71 71 0 -3 8 -28 19 -54 41 -106 37 -111 -29 -35 -34 39 -78 82 -98 96 -38 25 -92 49 -98 43 -2 -2 1 -19 7 -38 8 -27 28 -219 23 -219 -1 0 -18 14 -39 30 -21 17 -55 35 -75 41 -36 11 -38 14 -44 65 -3 29 -17 83 -30 119 -13 36 -22 65 -21 65 1 0 22 -11 46 -24 24 -14 61 -28 82 -31 42 -8 47 2 22 45 -18 31 -18 40 -2 40 24 0 123 -52 176 -92 39 -30 52 -35 48 -22 -3 11 -8 33 -12 51 -3 17 -22 69 -41 113 l-34 82 35 -6 36 -7 -24 46 c-17 35 -33 51 -65 65 -23 11 -42 17 -42 16 0 -2 11 -24 25 -47 14 -24 25 -47 25 -51 0 -11 -56 -10 -102 1 -53 12 -186 140 -265 254 -34 50 -61 93 -59 95 11 10 77 -32 121 -78 28 -29 66 -62 85 -74 46 -30 147 -86 155 -86 3 0 -10 24 -29 53 -18 28 -60 97 -92 152 -32 55 -77 120 -99 144 -32 36 -35 42 -15 31 14 -7 39 -23 57 -36 44 -33 47 -30 17 16 -15 22 -25 42 -23 44 12 10 208 -110 264 -162 50 -47 74 -62 112 -70 26 -6 49 -9 52 -7 9 10 -56 100 -145 198 l-98 107 -108 0 c-59 0 -108 -2 -108 -4 0 -3 4 -16 9 -29 l9 -24 -45 11 c-30 6 -48 16 -51 28 -2 10 -8 18 -14 18 -10 0 7 -36 22 -45 25 -15 6 -22 -27 -10 -86 30 -226 45 -238 25 -3 -5 36 -51 87 -102 l93 -93 -42 -3 c-24 -2 -43 -5 -43 -6 0 -5 67 -118 85 -143 9 -14 39 -29 76 -39 56 -16 64 -22 95 -70 19 -29 34 -56 34 -59 0 -3 14 -34 31 -68 55 -111 55 -108 6 -101 -23 4 -60 20 -81 35 -22 16 -41 27 -44 25 -2 -3 5 -25 17 -50 11 -25 17 -46 14 -46 -3 0 -26 15 -52 34 -57 42 -148 83 -224 101 -71 17 -76 44 40 -232 11 -27 -161 -9 -178 19 -5 7 -9 28 -9 47 0 20 -8 44 -19 55 -10 12 -26 43 -35 70 -20 62 -13 69 72 61 65 -6 71 -2 47 29 -25 34 -19 49 18 43 49 -7 238 -77 269 -98 36 -26 41 -24 24 9 -7 15 -28 62 -45 106 -39 98 -59 126 -118 165 -54 36 -113 41 -183 16 -23 -8 -44 -15 -45 -15 -1 0 -21 25 -44 55 l-41 55 26 6 c15 4 78 4 141 1 l113 -6 -40 59 c-22 33 -58 74 -80 91 -42 34 -44 49 -5 49 12 0 25 7 29 15 4 12 -6 15 -56 15 -60 0 -61 0 -44 -19 17 -19 17 -20 -21 -30 -21 -6 -63 -15 -93 -22 -59 -12 -90 -25 -90 -37 0 -5 25 -33 55 -62 56 -56 64 -70 43 -70 -7 0 -30 -5 -52 -11 -37 -10 -38 -12 -33 -47 3 -20 9 -47 12 -59 6 -20 -1 -24 -83 -50 l-89 -29 26 -49 c15 -28 34 -69 43 -92 l16 -42 67 34 c36 19 77 35 91 35 13 0 24 3 24 8 0 4 -18 42 -41 86 -22 43 -39 80 -37 81 2 2 38 10 81 18 l78 15 24 -48 c14 -27 27 -67 31 -89 6 -37 4 -41 -14 -41 -12 0 -24 -4 -27 -10 -3 -5 -24 -10 -47 -10 -39 0 -40 -1 -35 -29 7 -31 -5 -41 -46 -41 -30 0 -127 -46 -127 -61 0 -6 18 -49 40 -96 23 -47 40 -86 38 -87 -2 -2 -33 -19 -70 -40 -55 -30 -68 -42 -68 -61 0 -20 -5 -25 -25 -25 -31 0 -76 20 -69 31 3 5 20 9 37 9 53 0 59 9 46 71 -6 30 -20 75 -31 102 l-20 47 -139 0 c-124 0 -139 2 -148 18 -9 17 -17 18 -72 10 -35 -4 -64 -10 -67 -12 -2 -2 1 -13 7 -23 8 -17 5 -21 -25 -32 -35 -13 -188 -51 -203 -51 -4 0 -15 17 -23 39 l-15 38 52 17 c28 9 84 16 124 16 40 0 71 3 69 8 -2 4 -16 34 -32 67 -15 33 -32 68 -37 78 -15 28 -3 33 36 14 20 -9 51 -17 70 -17 32 0 37 -5 70 -65 l37 -65 63 0 c34 0 82 7 105 15 23 8 53 15 66 15 13 0 24 3 24 8 0 4 -20 48 -44 97 -24 50 -43 91 -41 93 2 2 28 7 59 11 31 4 59 11 63 14 4 4 -3 21 -15 37 -25 34 -27 40 -10 40 7 0 52 19 100 42 l87 41 -17 29 c-23 39 -72 98 -81 98 -4 0 -28 -14 -53 -30 -29 -19 -65 -33 -95 -37 -49 -5 -49 -5 -88 43 -21 27 -40 51 -41 53 -5 5 -134 -51 -140 -61 -3 -5 6 -24 20 -43 14 -18 26 -38 26 -42 0 -5 -24 -23 -53 -41 -40 -24 -65 -32 -100 -32 l-47 0 35 -46 c20 -26 43 -60 51 -76 15 -29 18 -30 62 -24 44 6 80 18 160 52 40 17 38 23 -43 105 -57 57 -57 59 -34 67 51 20 120 42 129 42 10 0 106 -138 99 -143 -2 -2 -28 -14 -57 -27 -29 -13 -51 -29 -48 -34 2 -6 7 -18 10 -26 4 -10 -12 -26 -52 -50 -69 -43 -76 -46 -129 -54 -39 -7 -43 -6 -57 23 -14 26 -22 30 -54 29 -20 0 -54 3 -76 7 -36 7 -38 7 -28 -11 9 -18 6 -19 -55 -16 -35 2 -100 -1 -144 -7 -75 -10 -82 -9 -109 11 -28 21 -30 21 -75 4 -25 -10 -45 -21 -45 -25 0 -3 11 -23 25 -43 l25 -38 46 35 c25 19 52 35 59 35 33 0 134 -151 122 -182 -3 -8 -30 -20 -61 -27 l-56 -13 31 -39 c18 -23 28 -44 23 -48 -5 -5 -30 -16 -56 -26 -26 -10 -53 -24 -59 -31 -17 -21 -24 -17 -37 20 -21 56 -36 62 -77 30 l-37 -28 -54 62 c-30 33 -63 64 -74 67 -11 4 -18 11 -14 16 6 10 70 39 85 39 4 0 37 -27 71 -59 l64 -59 39 24 c22 13 50 24 63 24 12 0 22 2 22 4 0 11 -57 105 -78 128 l-25 27 -41 -21 c-22 -11 -53 -29 -68 -39 -14 -11 -31 -19 -37 -19 -14 0 -81 43 -81 51 0 4 21 12 47 20 31 8 61 27 86 53 l39 39 -23 19 c-13 10 -57 39 -98 63 l-74 44 57 28 c31 15 56 30 56 33 0 3 -23 19 -50 36 l-51 31 46 13 c32 9 84 11 163 8 183 -8 184 -6 63 81 -56 41 -117 77 -134 81 -23 6 -7 8 58 10 50 1 98 5 108 9 17 6 16 8 -7 19 -16 7 -26 20 -26 32 0 20 -6 20 -274 20 -263 0 -274 -1 -279 -19z m1197 -791 c14 -43 26 -82 26 -85 0 -3 -14 -5 -30 -5 -17 0 -47 -9 -67 -20 -20 -10 -39 -17 -43 -15 -4 2 -10 29 -13 59 -3 31 -11 71 -18 90 -7 20 -11 38 -8 41 7 6 112 22 121 18 4 -2 18 -39 32 -83z m-386 -62 c11 -29 23 -63 26 -75 9 -29 50 -28 209 2 38 7 39 7 35 -21 -3 -26 -9 -30 -55 -40 -28 -6 -79 -13 -112 -16 -53 -4 -61 -2 -61 13 0 27 -18 33 -45 15 -32 -21 -32 -21 -39 17 -3 19 -20 55 -36 80 l-30 47 33 14 c49 22 54 20 75 -36z m1264 -7 c13 -5 42 -24 64 -42 22 -19 70 -45 107 -59 l67 -25 0 -57 c0 -50 3 -60 24 -73 13 -9 32 -34 41 -57 8 -22 26 -54 39 -72 12 -17 31 -50 41 -73 10 -24 21 -43 26 -43 4 0 11 30 15 67 6 61 -4 159 -23 210 -5 14 -1 13 19 -5 14 -13 35 -49 46 -80 46 -127 109 -378 112 -447 1 -21 33 51 51 114 12 40 19 97 19 146 0 84 -16 290 -25 322 -3 10 13 -20 35 -66 22 -46 43 -96 47 -110 3 -14 17 -51 29 -81 l23 -55 1 41 c0 44 -35 194 -55 234 -7 14 -15 39 -19 55 l-7 30 30 -35 c40 -46 71 -129 71 -191 0 -35 4 -51 15 -55 8 -4 25 -38 37 -78 28 -90 28 -186 -2 -276 -13 -39 -23 -103 -27 -160 l-5 -95 52 80 c122 189 135 235 126 429 -4 83 -11 176 -15 206 -5 30 -7 56 -6 58 1 1 26 -46 56 -105 l54 -107 0 -116 c0 -130 -15 -188 -71 -281 -32 -54 -43 -102 -26 -113 15 -9 92 132 104 191 16 78 13 331 -6 473 -8 63 -13 116 -11 118 4 5 45 -106 45 -122 0 -8 7 -19 15 -26 7 -6 17 -33 20 -58 3 -26 13 -80 22 -119 15 -70 15 -75 -6 -135 -12 -35 -29 -85 -38 -113 -8 -27 -28 -89 -44 -137 -37 -111 -37 -153 -3 -189 36 -38 43 -131 19 -252 -10 -49 -15 -100 -12 -115 3 -15 2 -35 -2 -46 -6 -14 -15 -1 -40 58 -19 42 -37 76 -41 76 -4 0 -13 -20 -19 -45 -18 -73 -21 -69 -77 115 -9 30 -33 87 -53 126 l-36 70 3 -66 c4 -70 -21 -186 -57 -265 -10 -22 -21 -47 -24 -55 -3 -10 -7 -7 -11 10 -4 15 2 63 15 115 24 97 35 244 45 600 3 133 2 219 -5 235 -8 20 -10 5 -10 -68 -1 -70 -6 -102 -20 -130 -15 -30 -82 -112 -143 -177 -6 -6 -9 -1 -7 15 4 48 -1 100 -10 100 -6 0 -25 -25 -43 -55 -46 -78 -58 -78 -58 -3 0 34 -11 102 -24 152 -14 50 -29 107 -34 126 -8 30 -10 32 -17 15 -4 -11 -21 -49 -37 -85 -18 -40 -33 -94 -38 -140 -5 -41 -16 -104 -24 -140 -35 -146 -13 -348 52 -477 l30 -58 16 38 c28 69 40 133 62 352 l8 70 7 -65 c7 -68 46 -186 57 -175 4 4 12 23 17 42 l10 36 44 -94 c24 -52 55 -117 68 -146 22 -45 23 -55 13 -90 l-12 -39 -67 128 c-63 121 -81 147 -81 113 0 -8 -17 -59 -37 -112 -21 -54 -40 -123 -43 -153 l-5 -55 -29 74 -29 74 -15 -28 c-10 -20 -15 -64 -16 -144 -1 -105 1 -120 23 -161 19 -35 26 -66 30 -145 7 -113 21 -146 61 -143 36 3 47 -7 54 -45 3 -19 13 -42 22 -53 14 -17 15 -11 11 71 -4 69 -14 120 -46 219 -23 72 -40 141 -39 155 3 17 10 -2 22 -54 18 -74 23 -84 73 -131 41 -39 57 -64 69 -105 20 -66 78 -162 146 -240 50 -58 52 -59 61 -37 5 13 6 74 2 137 -5 92 -13 136 -41 224 -20 60 -34 110 -32 113 8 7 78 -124 84 -157 3 -19 7 -43 9 -54 3 -12 19 -31 36 -44 l32 -24 -7 54 c-4 30 -10 65 -13 79 -4 18 3 13 24 -20 37 -55 59 -77 143 -139 70 -52 71 -53 56 -144 -7 -47 -7 -48 28 -62 31 -13 36 -20 42 -61 9 -65 -1 -161 -25 -225 -12 -30 -21 -62 -21 -71 0 -38 -18 -15 -35 45 -15 56 -38 97 -54 97 -10 0 -62 -87 -70 -115 -6 -25 -8 -23 -51 37 -25 35 -54 80 -64 100 -18 35 -18 39 -2 62 9 14 16 30 16 35 0 12 -53 101 -60 101 -3 0 -13 -21 -22 -47 l-17 -48 31 -32 31 -32 -44 -96 c-24 -53 -47 -99 -52 -102 -4 -2 -15 1 -24 9 -12 10 -17 10 -20 1 -5 -13 -122 79 -191 149 -40 42 -42 46 -34 83 l8 39 109 -122 c121 -133 122 -134 132 -34 3 31 14 74 25 95 11 22 18 40 16 42 -2 1 -20 10 -41 20 -21 10 -50 35 -65 57 -15 22 -48 64 -74 94 l-47 53 -6 -32 c-6 -28 -53 -156 -60 -165 -2 -2 -37 24 -78 57 -41 34 -78 61 -81 61 -3 0 -10 -18 -16 -41 -13 -49 -17 -47 -98 55 l-55 69 -41 -82 -41 -82 -46 51 c-25 27 -51 50 -57 50 -8 0 -12 -23 -12 -67 -1 -64 -2 -67 -15 -43 -8 14 -15 36 -15 50 -2 53 -64 167 -132 245 -51 57 -50 83 2 91 22 4 54 17 72 30 57 42 59 38 56 -109 -2 -100 1 -140 11 -160 8 -15 18 -27 23 -27 14 0 9 235 -8 416 -16 170 -16 172 5 233 11 33 21 78 22 99 l0 37 31 -65 c41 -89 76 -203 83 -274 4 -32 10 -54 15 -50 4 5 12 86 18 181 9 140 16 185 37 245 32 90 28 113 -30 203 -42 63 -45 73 -45 134 0 86 22 180 73 316 l42 110 7 -95 c4 -52 10 -140 14 -194 4 -60 2 -126 -4 -165 -18 -105 -26 -251 -14 -251 6 0 13 24 17 53 4 28 16 115 27 192 40 283 40 378 0 493 -23 65 -32 74 -33 36 0 -16 -4 -38 -9 -49 l-9 -20 -1 20 c-1 31 -38 107 -68 139 -25 26 -110 71 -118 63 -2 -2 -8 -44 -13 -93 -9 -83 -25 -149 -40 -167 -4 -4 -22 24 -41 63 -18 38 -49 84 -67 102 l-33 32 0 -52 c0 -29 -3 -52 -6 -52 -4 0 -22 14 -41 30 -31 27 -40 30 -104 30 l-70 0 3 27 c3 24 9 29 48 36 48 8 123 5 154 -8 18 -8 19 -4 13 93 -4 56 -5 102 -2 102 2 0 28 -19 57 -43 53 -43 120 -87 132 -87 3 0 6 13 6 29 0 22 -8 34 -33 50 -19 11 -53 45 -78 76 -28 36 -51 55 -65 55 -18 0 -24 10 -38 68 -9 37 -19 74 -22 83 -4 15 4 16 63 11 75 -6 131 -32 137 -66 3 -11 13 -72 23 -135 l19 -114 35 -13 c60 -20 135 -81 158 -126 l20 -42 -6 155 c-4 94 -10 157 -17 161 -6 4 -28 8 -49 8 -51 0 -86 20 -137 77 -40 45 -58 77 -74 131 -8 25 6 29 46 13z m-422 -90 c0 -21 3 -59 6 -84 l6 -45 114 5 114 6 0 -34 0 -35 -66 4 c-48 3 -76 0 -105 -13 l-39 -18 0 -92 c0 -107 2 -105 -95 -105 -74 0 -75 1 -75 122 l0 76 -57 6 c-200 18 -193 16 -193 42 0 31 -20 31 -89 -1 -30 -14 -55 -24 -56 -23 -1 2 -9 39 -18 83 l-15 80 26 23 c22 18 37 22 77 20 l50 -3 7 -55 c14 -103 9 -97 90 -105 129 -11 178 -24 178 -46 0 -16 7 -19 43 -19 23 0 59 -3 80 -6 l37 -7 0 42 c0 46 -3 47 -53 26 -20 -8 -52 -15 -71 -15 -42 0 -49 15 -44 105 3 60 3 60 48 83 24 12 57 22 72 22 26 0 28 -3 28 -39z m-870 -71 c0 -24 8 -25 38 -4 12 8 26 13 31 10 5 -4 15 -46 21 -96 l13 -89 26 13 c14 7 49 16 76 20 28 4 67 9 88 12 l37 6 0 -41 c0 -35 -3 -41 -21 -41 -45 0 -134 -34 -161 -61 -16 -16 -29 -39 -29 -56 -1 -15 -7 10 -13 57 l-12 85 -32 -49 c-30 -47 -32 -56 -33 -140 l0 -91 -15 40 c-10 25 -13 55 -9 80 8 52 5 298 -3 307 -8 8 -91 -93 -118 -143 -10 -19 -21 -52 -24 -74 -5 -35 -7 -30 -14 42 -8 82 -8 82 25 134 49 75 129 124 129 79z m2530 -1055 c0 -71 7 -173 15 -225 8 -52 15 -99 15 -104 0 -17 -42 28 -67 72 -25 42 -25 48 -20 165 3 67 11 155 18 195 12 66 14 70 26 50 8 -15 12 -68 13 -153z m-1377 34 c4 -28 15 -67 27 -86 11 -19 20 -36 20 -39 0 -2 -18 -1 -40 2 -32 5 -40 4 -40 -9 0 -31 13 -47 37 -47 61 0 102 -62 83 -128 -18 -65 -27 -71 -45 -30 -8 21 -15 40 -15 42 0 3 -11 31 -25 61 -22 51 -26 55 -45 45 -11 -6 -20 -20 -20 -30 0 -26 -16 -26 -30 -1 -13 26 1 62 36 90 l27 21 -25 28 c-55 59 -63 105 -20 120 58 22 69 17 75 -39z m-160 -218 c15 -37 33 -131 40 -206 2 -20 -4 -22 -37 -9 -17 7 -18 3 -14 -52 6 -79 25 -118 61 -122 25 -3 27 0 27 30 0 19 -6 57 -14 86 -7 29 -9 55 -5 58 5 3 11 -7 15 -21 9 -37 39 -50 70 -30 22 14 57 61 68 90 6 18 18 -3 23 -42 5 -39 4 -40 -76 -109 l-80 -69 -1 -61 c0 -90 -9 -124 -31 -124 -25 0 -24 -8 3 -37 20 -21 22 -35 23 -126 0 -56 -4 -120 -9 -142 l-8 -40 -13 37 c-8 20 -30 63 -50 94 -39 61 -39 61 -71 8 -10 -17 -16 -14 -60 32 -54 55 -108 80 -155 70 -28 -5 -40 6 -19 19 16 10 12 22 -7 22 -10 -1 -38 0 -63 1 l-45 2 3 100 c3 71 -1 113 -11 145 -9 25 -14 45 -11 45 2 0 25 -32 50 -71 45 -68 47 -71 79 -65 25 5 34 3 39 -10 9 -23 7 -89 -3 -117 -8 -22 -7 -23 15 -19 58 11 115 -8 167 -56 l49 -47 -6 110 c-10 146 -10 200 -1 262 8 57 -3 102 -51 207 l-27 59 -33 -64 c-58 -114 -55 -186 12 -272 21 -26 35 -50 32 -52 -3 -3 -28 0 -57 6 -29 6 -63 8 -76 5 -26 -7 -28 0 -70 163 -18 72 -15 86 11 42 23 -39 53 -50 70 -26 7 10 18 43 24 74 11 56 28 99 56 136 13 17 16 18 25 5 14 -22 54 35 55 80 1 19 7 55 13 79 l13 44 22 -39 c12 -21 30 -59 39 -83z m1050 -158 c9 -21 26 -69 38 -108 12 -38 28 -83 36 -100 16 -34 23 -41 -61 56 -21 24 -36 36 -33 27 13 -38 28 -100 24 -104 -2 -2 -22 15 -45 38 -56 55 -68 96 -49 168 l15 55 12 -30 c7 -16 19 -48 26 -70 14 -39 14 -39 9 33 -7 80 3 92 28 35z m-1645 -289 c52 -39 71 -72 72 -123 0 -41 24 -71 57 -71 12 0 23 -4 23 -10 0 -61 -135 -153 -154 -104 -4 11 0 28 12 44 43 57 37 92 -28 170 -32 39 -40 56 -40 89 0 22 3 41 6 41 3 0 26 -16 52 -36z m252 -264 c0 -5 -7 -13 -15 -17 -8 -5 -30 -43 -50 -85 -20 -44 -42 -79 -52 -81 -67 -18 -76 -18 -68 0 4 10 18 52 32 93 13 41 29 80 35 87 12 15 118 18 118 3z m299 -164 c37 -67 71 -94 87 -71 9 12 18 6 53 -38 24 -28 50 -70 60 -92 10 -22 22 -51 28 -65 10 -24 12 -22 47 50 20 41 36 81 36 90 0 8 16 -9 35 -37 47 -70 55 -73 55 -19 0 24 4 56 10 70 l9 26 67 -66 c37 -36 77 -72 90 -81 35 -23 30 -31 -23 -38 -27 -3 -61 -8 -76 -10 -21 -4 -35 2 -53 20 -31 32 -34 31 -34 -3 0 -29 -63 -134 -102 -168 -19 -18 -19 -18 -8 8 11 23 9 32 -16 77 l-29 50 -22 -21 c-22 -20 -24 -21 -36 -4 -7 9 -23 47 -36 84 -33 96 -53 142 -63 142 -4 0 -8 -4 -8 -8 0 -4 -21 -36 -46 -71 l-46 -63 -54 53 c-30 29 -57 62 -60 72 -10 32 75 185 96 172 4 -3 22 -29 39 -59z m-257 12 c9 -7 37 -39 63 -72 42 -52 46 -61 36 -83 l-11 -24 -26 31 c-31 36 -93 70 -128 70 -14 0 -44 -7 -65 -16 -22 -9 -45 -14 -51 -12 -15 5 49 88 68 88 10 1 28 7 42 15 31 18 52 19 72 3z m993 -149 c22 -12 52 -32 66 -46 27 -24 27 -25 11 -74 -16 -48 -41 -85 -139 -199 -42 -48 -53 -68 -53 -96 l0 -34 -70 0 -71 0 6 53 c10 83 12 89 59 147 25 30 60 81 78 114 26 51 32 71 31 124 0 62 0 63 21 47 11 -8 39 -24 61 -36z"/><path d="M670 2710 l0 -210 101 0 101 0 -7 40 c-4 22 -7 117 -8 210 l-1 170 -93 0 -93 0 0 -210z"/>-14 -145 10 -227 11 -41 24 -74 28 -74 13 0 30 78 30 140 0 60 -35 200 -50 200 -4 0 -12 -17 -18 -39z"/><path d="M897 2886 c-3 -19 -1 -103 3 -188 5 -84 9 -163 10 -175 0 -25 34 -33 43 -10 4 10-35 -248 -32 -342 17 -441 11 -22 23 -63 28 -92 10 -57 48 -126 80 -143 19 -10 23 -6 43 37 19 42 22 64 21 178 -1 117 -4 140 -32 229 -18 54 -32 113 -32 130 0 53 -27 149 -64 227 -19 41 -35 69 -35 63z"/><path d="M1536 2850 c-75 -134 -86 -169 -86 -261 l0 -89 50 0 c32 0 52 5 56 13 2 7 3 94 2 192 l-3 180 -19 -35z"/>-10 -6 -78 -8 -151 l-2 -132 39 -27 c22 -14 56 -41 76 -60 30 -28 38 -32 47 -20 20 24 52 128 52 168 0 34 -5 41 -45 69 -25 17 -50 41 -57 54 -7 13 -32 44 -55 70 -34 39 -42 44 -47 29z"/><path d="M1452 2068 c-2 -9 -9 -15 -15 -12 -7-65 -22 -188 -29 l-114 -6 79 -63 c43 -34 96 -79 118 -99 l40 -36 -30 6 c-16 3 -59 8 -95 12 l-65 6 31 -29 32 -30 -101 0 c-101 -1 -135 -5 -196 -24 -29 -9 -32 -13 -19 -22 8 -6 39 -31 68 -56 29 -25 60 -49 68 -54 9 -5 89 -10 179 -10 l162 -1 -22 25 c-12 14 -46 52 -77 84 -32 34 -47 56 -35 52 26 -10 175 -21 175 -13 0 4 -16 17 -36 31 l-36 24 59 17 c57 16 163 72 163 86 0 4 -30 33 -67 65 -72 60 -83 74 -61 74 7 1 27 7 43 15 29 13 27 13 -45 14 -71 0 -74 -1 -52 -16z"/><path d="M2740 1870 l0 -210 46 0 c30 0 43 4 39 11 -4 6 -9 72 -11 147 -2 75 -6 165 -10 200 -5 61 -6 62 -35 62 l-29 0 0 -210z"/>4017 c0 -7 21 -23 48 -34 26 -12 59 -29 73 -39 25 -16 27 -16 65 10 28 19 51 26 86 26 49 0 61 13 36 38 -18 18 -308 17 -308 -1z"/><path d="M2854 2028 c3 -29 8 -124 12 -210 7 -158 7 -158 30 -158 l24 0 0 210 0 210 -36 0 -36 0 6 -52z"/>-65 131 -137 148 -161 17 -25 57 -60 91 -80 34 -20 100 -73 148 -117 101 -93 163 -142 163 -128 0 5 -14 47 -31 94 -44 121 -108 233 -184 321 l-66 77 46 -14 c25 -7 51 -17 58 -23 25 -18 99 -43 91 -30 -17 30 -53 62 -106 94 -37 23 -60 44 -64 60 -6 22 -11 24 -72 24 -62 0 -65 -1 -45 -15 12 -8 35 -32 51 -53 l30 -38 -56 7 c-32 3 -83 13 -114 22 -32 9 -83 24 -113 32 -35 10 -55 21 -55 30 0 8 -8 15 -18 15 -13 0 20 -39 98 -117z"/><path d="M1646 1652 c-5 -15 -16 -19 -49 -18 l-42 1 3 -95 4 -95 -34 -10 c-42 -13 -43 -29 0 -33 27 -3 32 0 32 18 0 18 5 21 33 18 35 -3 32 -12 51 137 4 28 9 60 12 73 5 26 -2 30 -10 4z"/>4022 c0 -5 24 -24 53 -42 28 -19 83 -58 121 -87 38 -29 78 -53 88 -53 10 0 37 -17 61 -39 39 -35 77 -61 91 -61 3 0 6 65 6 145 l0 145 -210 0 c-115 0 -210 -4 -210 -8z"/><path d="M1450 1102 c0 -111 -3 -151 -12 -154 -7 -2 -37 -4 -65 -3 l-53 2 0 -34 c0 -29 3 -33 28 -33 15 0 44 3 65 6 33 6 37 10 37 35 0 26 3 29 35 30 19 1 40 2 47 3 20 2 29 62 26 179 l-3 112 -52 3 -53 3 0 -149z"/>3874 c-19 -26 -35 -50 -35 -53 0 -4 19 -12 43 -18 23 -6 55 -16 70 -22 l29 -11 -61 -67 c-34 -37 -61 -70 -61 -74 0 -6 46 -26 120 -54 19 -8 54 -16 77 -19 42 -6 43 -5 69 36 15 24 40 58 58 76 l31 34 -40 -2 c-76 -4 -93 3 -183 66 -2 1 10 23 28 49 18 26 30 48 28 50 -6 6 -120 55 -129 55 -4 0 -24 -21 -44 -46z"/><path d="M0 4380 l0 -210 163 2 162 3 3 208 2 207 -165 0 -165 0 0 -210z"/>-92 21 -13 186 -86 195 -86 11 0 69 74 92 117 9 19 9 22 -3 17 -23 -9 -97 16 -142 47 -24 16 -47 29 -52 29 -5 0 -20 -15 -34 -32z"/><path d="M2454 941 c-7 -8 -4 -111 4 -112 30 -6 71 -6 95 -2 26 4 27 7 27-113 102 -160 49 -84 53 -87 94 -93 23 -4 63 -20 87 -36 25 -17 52 -30 61 -30 9 0 35 -15 59 -32 87 -67 80 -65 65 -15 -15 49 -67 158 -97 199 -12 18 -31 29 -56 33 -102 16 -284 112 -312 165 -6 11 -20 25 -32 31 -15 8 -7 -10 29 -62z"/><path d="M1930 820 c0 -5 7 -10 15 -10 8 0 15 -9 15-20 -74 -49 -95 -63 -20 -14 -58 -38 -84 -53 l-48 -27 0 -95 c0 -92 1 -94 20 -84 12 6 42 38 67 70 25 33 56 66 68 74 11 8 26 32 33 53 6 21 32 65 57 97 61 79 62 79 -18 28z"/><path d="M1730 606 l0 -196 -42 0 -43 0 0 -205 0 -205 43 0 42 0 0 205 0 205 30 0 30 0 0 -205 0 -205 30 0 30 0 0 205 c0 198 1 205 20 205 19 0 20 7 20 185 0 178 -1 185 -20 185 -19 0 -20 -7 -20 -185 l0 -185 -30 0 -30 0 0 188 c0 14418 -29 40 -56 22 -26 45 -66 52 -88 8 -26 22 -47 40 -58 15 -9 46 -42 69 -73 22 -31 49 -62 60 -67 19 -11 20 -8 17 87 l-3 98 -61 30 c-33 17 -78 44 -100 61 -49 38 -114 76 -114 66z"/>"M2745 402 c-3 -3 -5 -95 -5 -204 l0 -198 90 0 90 0 0 204 0 203 -85
0 c-46 0 -87 -2 -90 -5z"/>
</g>
</svg>
